<svg width="32" height="22" viewBox="0 0 32 22" fill="none" xmlns="http://www.w3.org/2000/svg">
<path d="M16 3V1" stroke="#5D5D5D" stroke-width="2" stroke-linecap="round"/>
<path d="M6.50004 8C5.16671 9.16667 3.30004 12.4 6.50004 16" stroke="#5D5D5D" stroke-linecap="round"/>
<path d="M3.99994 5.5C1.99994 7.5 -0.800063 12.9 3.99994 18.5" stroke="#5D5D5D" stroke-linecap="round"/>
<path d="M26 8C27.3333 9.16667 29.2 12.4 26 16" stroke="#5D5D5D" stroke-linecap="round"/>
<path d="M28.5001 5.5C30.5001 7.5 33.3001 12.9 28.5001 18.5" stroke="#5D5D5D" stroke-linecap="round"/>
<path d="M9.50003 9V16.5V17L7.50003 19C6.70003 20.2 7.50003 20.8333 8.00003 21H24C25.2 20.6 24.8334 19.5 24.5 19L22.5 17V16.5V9C21.3 4.6 17.6667 3.5 16 3.5C12 3.1 10 7 9.50003 9Z" stroke="#5D5D5D" stroke-width="1.5"/>
</svg>
