<svg width="25" height="34" viewBox="0 0 25 34" fill="none" xmlns="http://www.w3.org/2000/svg">
<path d="M24.1517 5.5788L19.7092 1L19.1124 4.17165C18.5186 7.32754 23.0247 8.58581 24.1517 5.5788Z" fill="white"/>
<path d="M8.60303 9.0129V5C8.60303 2.79086 10.3939 1 12.603 1H19.7092M19.7092 1L24.1517 5.5788M19.7092 1L19.1124 4.17165C18.5186 7.32754 23.0247 8.58581 24.1517 5.5788V5.5788M24.1517 5.5788V18.0866C24.1517 20.2957 22.3609 22.0866 20.1517 22.0866H8.60303" stroke="#5D5D5D" stroke-linecap="round"/>
<path d="M16.9099 6.53784H11.585" stroke="#5D5D5D" stroke-width="1.5" stroke-linecap="round"/>
<path d="M21.3494 11.4368H15.0694M21.5957 16.5487H13.7148" stroke="#5D5D5D" stroke-width="1.5" stroke-linecap="round"/>
<path d="M1 11H2.8139L4.6278 18.4549H10.3718" stroke="#5D5D5D" stroke-linecap="round"/>
<path d="M3.12988 12.0648H12.0757L10.8586 16.7507H4.28615" stroke="#5D5D5D"/>
</svg>
