<svg width="81" height="44" viewBox="0 0 81 44" fill="none" xmlns="http://www.w3.org/2000/svg">
<rect width="81" height="44" rx="22" fill="#84CB3D"/>
<path d="M50 10.6276L53.2883 8.52111L50.9047 7.76722L56.2263 4.20621" stroke="white" stroke-linecap="round"/>
<path d="M50 31.2063L53.2883 33.3127L50.9047 34.0666L56.2263 37.6277" stroke="white" stroke-linecap="round"/>
<path d="M50 20.1135L53.9046 20.051L52.3351 21.9969L58.7382 22.0224" stroke="white" stroke-linecap="round"/>
<path d="M27.5091 9.5H44.5091V15H27.5088C23.9088 15.8 22.6755 19.6667 22.5088 21.5C22.5088 26.7 25.8423 28.6667 27.5091 29H44.5091V34.5H27.5091C17.9091 33.3 15.8424 25.3333 16.0091 21.5C16.8091 12.7 24.0091 9.83333 27.5091 9.5Z" fill="white" stroke="white" stroke-linecap="round"/>
</svg>
