<svg xmlns="http://www.w3.org/2000/svg" width="20" height="20" viewBox="0 0 60 60" class="app-icon app-icon--smallsecondary menu__icon-align"><path d="M33.985 16.599L18.49 38l6.923 5.397 19.393-26.752c1.435-1.97 1.048-4.775-.863-6.266s-4.625-1.101-6.06.869l-1.299 1.784 6.923 5.397-2.598 3.567-6.923-5.397zm.436-8.05c2.87-3.94 8.296-4.718 12.119-1.738s4.596 8.591 1.726 12.532L27.574 47.879 14.13 54.767c-1.069.548-2.369.095-2.903-1.012a2.308 2.308 0 01-.193-1.401l2.694-15.269L34.42 8.549zM17.165 42.56l-1.096 6.214 5.471-2.803-4.375-3.411z"></path></svg>