<svg width="41" height="40" viewBox="0 0 41 40" fill="none" xmlns="http://www.w3.org/2000/svg">
<g clip-path="url(#clip0_1979_4640)">
<path d="M36.3367 17.0469C35.9219 14.774 35.0343 12.6752 33.7734 10.842L36.2289 7.51556L35.2417 6.52842L33.9062 5.19287L32.919 4.20573L29.6009 6.65285C27.7676 5.39196 25.6606 4.49607 23.3877 4.073L22.7822 0.00830078H21.3885H19.4972H18.1036L17.4897 4.0813C15.2168 4.50436 13.1098 5.40025 11.2766 6.66114L7.95843 4.21402L6.97958 5.19287L5.63574 6.53671L4.6486 7.52385L7.10401 10.8503C5.85142 12.6835 4.95553 14.7823 4.54076 17.0552L0.451172 17.6607V19.0543V20.9457V22.3393L4.55735 22.9614C4.98041 25.2178 5.86801 27.3082 7.1289 29.1331L4.6569 32.4845L5.64404 33.4716L6.97958 34.8071L7.96673 35.7943L11.3263 33.314C13.143 34.5583 15.2334 35.4459 17.4897 35.8606L18.1119 39.9917H19.5055H21.3968H22.7904L23.4126 35.8606C25.6689 35.4459 27.751 34.5583 29.576 33.314L32.9356 35.7943L33.9228 34.8071L35.2583 33.4716L36.2454 32.4845L33.7734 29.1331C35.026 27.3082 35.9219 25.2178 36.345 22.9614L40.4512 22.3393V20.9457V19.0543V17.6607L36.3367 17.0469ZM20.4429 32.7748C13.3919 32.7748 7.66809 27.0593 7.66809 20C7.66809 12.949 13.3836 7.22522 20.4429 7.22522C27.4939 7.22522 33.2177 12.9407 33.2177 20C33.2177 27.051 27.4939 32.7748 20.4429 32.7748Z" fill="#7A7A7A"/>
<path d="M17.3984 21.9668C19.7389 23.3366 21.0748 23.3559 23.5019 21.9668L23.9256 28.2984L17.3984 28.5573V21.9668Z" fill="#7A7A7A"/>
<path d="M27.4848 23.7908C25.3031 23.235 23.5362 21.9907 23.5362 21.9907L22.1509 26.3624L21.8937 27.1836V27.1753L21.6698 27.8721L20.9398 25.8066C22.7813 23.235 20.4504 23.3346 20.4504 23.3346C20.4504 23.3346 18.1194 23.235 19.9609 25.8066L19.2227 27.8887L18.9987 27.1836L17.3562 21.9907C17.3562 21.9907 15.581 23.235 13.4076 23.7908C12.321 24.0645 11.9228 24.9936 11.8066 25.8563C13.7643 28.544 16.9166 30.228 20.4255 30.228C21.2301 30.228 22.0348 30.1367 22.8311 29.9542C25.3778 29.3653 27.576 27.9053 29.0941 25.8066C28.9531 24.9604 28.5549 24.0645 27.4848 23.7908Z" fill="#7A7A7A"/>
<path d="M16.7839 19.0958C16.9747 20.3152 17.9121 21.8664 19.455 22.4056C20.0854 22.6296 20.7822 22.6296 21.4127 22.4056C22.9307 21.8581 23.9013 20.3152 24.0921 19.0958C24.2995 19.0792 24.5649 18.7888 24.8552 17.7685C25.2534 16.3666 24.8304 16.1592 24.4737 16.1924C24.54 16.0016 24.5898 15.8108 24.6313 15.62C25.2368 11.9867 23.445 11.8623 23.445 11.8623C23.445 11.8623 23.1464 11.2899 22.3667 10.8585C21.844 10.5516 21.1141 10.311 20.1518 10.394C19.8449 10.4106 19.5462 10.4686 19.2725 10.5599C18.9158 10.676 18.5923 10.8502 18.3019 11.0576C17.9452 11.2816 17.6051 11.5636 17.3065 11.8788C16.8337 12.36 16.4106 12.9904 16.2281 13.7702C16.0788 14.3508 16.112 14.9647 16.2364 15.62C16.2696 15.8108 16.3194 16.0016 16.394 16.1924C16.0373 16.1592 15.6143 16.3666 16.0124 17.7685C16.3111 18.7888 16.5848 19.0792 16.7839 19.0958Z" fill="#7A7A7A"/>
</g>
<defs>
<clipPath id="clip0_1979_4640">
<rect width="40" height="40" fill="white" transform="translate(0.451172)"/>
</clipPath>
</defs>
</svg>
