<svg width="41" height="40" viewBox="0 0 41 40" fill="none" xmlns="http://www.w3.org/2000/svg">
<path d="M11.2578 28.1928C11.2578 23.0497 15.4271 18.8804 20.5703 18.8804C25.7134 18.8804 29.8827 23.0497 29.8827 28.1928V31.5407C29.8827 33.6343 28.1855 35.3315 26.0919 35.3315H15.0487C12.955 35.3315 11.2578 33.6343 11.2578 31.5407V28.1928Z" fill="#7A7A7A"/>
<circle cx="20.5641" cy="10.6896" r="6.02112" fill="#7A7A7A"/>
<ellipse cx="32.6247" cy="12.8594" rx="3.87665" ry="3.85134" fill="#7A7A7A"/>
<ellipse cx="8.50165" cy="12.8594" rx="3.87665" ry="3.85134" fill="#7A7A7A"/>
<path d="M36.2946 33.0623H31.8764C31.8764 25.026 31.3386 22.7164 28.8223 20.0272C29.5624 19.4848 30.1935 19.2099 31.5171 18.9834H34.1595C36.6865 19.7718 37.5252 20.6643 38.0492 22.9999V31.2654C37.7841 32.3072 37.4317 32.7277 36.2946 33.0623Z" fill="#7A7A7A"/>
<path d="M4.80308 33.0623H9.22123C9.22123 25.026 9.75905 22.7164 12.2754 20.0272C11.5352 19.4848 10.9042 19.2099 9.58055 18.9834H6.93812C4.41116 19.7718 3.57247 20.6643 3.04847 22.9999V31.2654C3.31357 32.3072 3.66594 32.7277 4.80308 33.0623Z" fill="#7A7A7A"/>
</svg>
