<svg width="30" height="30" viewBox="0 0 30 30" fill="none" xmlns="http://www.w3.org/2000/svg">
<path d="M16.234 8.74823C16.234 8.06641 15.6813 7.51367 14.9994 7.51367C14.3177 7.51367 13.7649 8.06641 13.7649 8.74823H16.234ZM14.1265 22.1245C14.6087 22.6066 15.3903 22.6066 15.8725 22.1245L23.7291 14.2677C24.2112 13.7856 24.2112 13.0039 23.7291 12.5218C23.247 12.0397 22.4653 12.0397 21.9832 12.5218L14.9994 19.5056L8.01573 12.5218C7.53361 12.0397 6.75192 12.0397 6.2698 12.5218C5.78767 13.0039 5.78767 13.7856 6.2698 14.2677L14.1265 22.1245ZM13.7649 8.74823V21.2515H16.234V8.74823H13.7649Z" fill="#364F6B"/>
</svg>
