<svg width="30" height="30" viewBox="0 0 30 30" fill="none" xmlns="http://www.w3.org/2000/svg">
<path d="M7 18.6172V21.0002H23.0851V18.6172" stroke="#364F6B" stroke-width="3" stroke-linecap="round"/>
<path d="M16.3405 7C16.3405 6.44772 15.8928 6 15.3405 6C14.7883 6 14.3405 6.44772 14.3405 7H16.3405ZM14.6334 17.8348C15.024 18.2253 15.6571 18.2253 16.0477 17.8348L22.4116 11.4708C22.8021 11.0803 22.8021 10.4471 22.4116 10.0566C22.0211 9.66609 21.3879 9.66609 20.9974 10.0566L15.3405 15.7135L9.68367 10.0566C9.29315 9.66609 8.65998 9.66609 8.26946 10.0566C7.87893 10.4471 7.87893 11.0803 8.26946 11.4708L14.6334 17.8348ZM14.3405 7V17.1277H16.3405V7H14.3405Z" fill="#364F6B"/>
</svg>
