<svg width="85" height="51" viewBox="0 0 85 51" fill="none" xmlns="http://www.w3.org/2000/svg">
<path d="M68.4887 15H62C61.4477 15 61 15.4477 61 16V32.2802C61 32.9112 61.5817 33.3807 62.208 33.3038C68.4039 32.5431 70.5212 36.2761 70.9244 39.005C71.0052 39.5513 71.4477 40 72 40H74.5C75.0523 40 75.5 39.5523 75.5 39V24.3234C75.5 24.1131 75.4338 23.9083 75.3107 23.7379L69.2994 15.4145C69.1114 15.1542 68.8098 15 68.4887 15Z" stroke="#5D5D5D" stroke-width="2"/>
<path d="M60 8H32.5H23C22.4477 8 22 8.44772 22 9V39.5C22 40.0523 22.4477 40.5 23 40.5H26.6245C27.1257 40.5 27.5448 40.1252 27.647 39.6345C28.7468 34.3539 32.9415 33 35 33C39.6573 33 42.122 37.0108 42.8253 39.6441C42.9546 40.1284 43.3743 40.5 43.8755 40.5H55.5C56.0523 40.5 56.4948 40.0498 56.5853 39.505C56.9796 37.1322 58.674 34.6887 60.2799 33.7944C60.6808 33.5712 61 33.1781 61 32.7192V9C61 8.44772 60.5523 8 60 8Z" stroke="#5D5D5D" stroke-width="2"/>
<circle cx="35" cy="40.5" r="4.5" stroke="#5D5D5D" stroke-width="2"/>
<circle cx="64" cy="40.5" r="4.5" stroke="#5D5D5D" stroke-width="2"/>
<path d="M63.5 23V18.375C63.5 18.1679 63.6679 18 63.875 18H67.2786C67.5846 18 67.8738 18.1401 68.0634 18.3804L71.2213 22.3804C71.7391 23.0361 71.272 24 70.4365 24H64.5C63.9477 24 63.5 23.5523 63.5 23Z" stroke="#5D5D5D"/>
<circle cx="24.5" cy="10" r="8" fill="white" stroke="#5D5D5D" stroke-width="2"/>
<path d="M18 20.5H5" stroke="#5D5D5D"/>
<path d="M18 26H5" stroke="#5D5D5D"/>
<path d="M18 23H9.5" stroke="#5D5D5D"/>
<path d="M19.8896 9.78405L21.6651 11.8824C21.9836 12.2588 22.5289 12.3469 22.9497 12.0899L29.1648 8.29387" stroke="#5D5D5D"/>
</svg>
