<svg width="40" height="40" viewBox="0 0 40 40" fill="none" xmlns="http://www.w3.org/2000/svg">
<path fill-rule="evenodd" clip-rule="evenodd" d="M37.5709 16.4385C37.5692 16.4964 37.5672 16.5544 37.5648 16.6126L37.4899 16.5926C37.4742 16.617 37.4573 16.641 37.4391 16.6646L36.0647 18.45C35.8183 18.77 35.4036 18.9104 35.0135 18.8059L28.9522 17.1818C28.535 17.07 28.2367 16.7029 28.2126 16.2716L28.1318 14.8253L27.1496 16.1012C26.9032 16.4213 26.4885 16.5617 26.0983 16.4572L23.414 15.7379L19.9887 28.5215H24.7485L28.721 24.4775C30.8439 22.3164 34.3168 22.2854 36.478 24.4084L28.4388 32.5921L28.3845 32.5388V33.0335L30.0333 36.5921C30.3816 37.344 30.0545 38.2359 29.3026 38.5842C28.5508 38.9326 27.6589 38.6054 27.3105 37.8536L25.5281 34.0064H25.189V34.0067H18.5189L17.4337 38.0568L16.2193 37.7314L17.2174 34.0067H8.06514L6.3094 37.7962C5.96105 38.5481 5.06915 38.8752 4.31727 38.5269C3.5654 38.1785 3.23828 37.2866 3.58663 36.5348L4.7579 34.0067H2.35352C2.35352 30.9773 4.80932 28.5215 7.83871 28.5215H18.6871L22.1997 15.4125L20.0371 14.833C19.6198 14.7213 19.3216 14.3542 19.2975 13.9229L19.1793 11.8075C19.1471 11.8811 19.1053 11.9524 19.0532 12.0201L17.6788 13.8054C17.4324 14.1255 17.0177 14.2659 16.6276 14.1613L10.5663 12.5372C10.1491 12.4254 9.85081 12.0584 9.82672 11.6271L9.6993 9.34638C9.69603 9.28786 9.69776 9.23055 9.70408 9.17478L9.62192 9.15291C15.7854 -4.3795 37.317 0.650606 37.5757 15.6843C37.6696 15.9206 37.6745 16.1914 37.5709 16.4385ZM27.1474 31.3236L27.2609 31.4351H27.1474V31.3236Z" fill="white"/>
</svg>
