<svg width="30" height="30" viewBox="0 0 30 30" fill="none" xmlns="http://www.w3.org/2000/svg">
<circle cx="13" cy="9" r="5" fill="#7A7A7A"/>
<path d="M5 18.75V24H22V18.75C21.7418 16.05 19.4536 15.125 18.3418 15H8.98101C5.96835 15.3 5.07173 17.625 5 18.75Z" fill="#7A7A7A"/>
<path d="M23.7222 14V17.1429H19V21.1429H23.7222V24L29 19.1429L23.7222 14Z" fill="#727272" stroke="white"/>
<path d="M6.19297 11.1707C6.31853 9.3741 4.78044 7.64165 3.9957 7C1.35901 7.38499 0.909048 10.4756 1.01365 11.9728C1.26477 15.951 4.36187 19.5121 5.87904 20.7954C9.26911 22.977 11.3722 21.7044 12 20.7954C11.6233 18.6138 10.0643 17.106 9.33189 16.6247C8.57854 16.4964 7.65778 17.8545 7.29157 18.5497C4.27817 17.2664 3.52482 13.7373 3.52482 12.1332C5.65931 12.6465 6.19296 11.7054 6.19297 11.1707Z" fill="#7A7A7A" stroke="white" stroke-linecap="round"/>
</svg>
