<svg width="35" height="35" viewBox="0 0 35 35" fill="none" xmlns="http://www.w3.org/2000/svg">
<path d="M28.5 11.5C30.6667 13.5 33.7 18.9 28.5 24.5" stroke="black" stroke-linecap="round"/>
<path d="M26 14C27.5 15.3333 29.6 18.8 26 22" stroke="black" stroke-linecap="round"/>
<path d="M4.87119 11.5C2.70452 13.5 -0.328811 18.9 4.87119 24.5" stroke="black" stroke-linecap="round"/>
<path d="M7.3712 14C5.8712 15.3333 3.7712 18.8 7.3712 22" stroke="black" stroke-linecap="round"/>
<path d="M10.5 15.5C11.3 10.7 15.1667 9.5 17 9.5C21.8 9.9 23.3333 13.6667 23.5 15.5V23L25.5 25V27H8.5V25L10.5 23V15.5Z" stroke="black"/>
<path d="M17 9.5V7" stroke="black"/>
<circle r="4.5" transform="matrix(1 0 0 -1 17.5 27.5)" fill="#FF0000"/>
</svg>
