<svg width="129" height="130" viewBox="0 0 129 130" fill="none" xmlns="http://www.w3.org/2000/svg"><g clip-path="url(#clip0_1385_13119)"><path d="M66.799 0C10.6577 0 -7.40371 27.3043 2.64089 60.2204C13.9587 97.3807 -8.15823 103.841 14.6661 122.634C33.7178 138.314 67.2942 119.71 89.5998 128.128C104.855 133.881 127.279 118.46 128.906 96.1546C130.415 75.7118 113.532 75.2166 117.942 52.4866C123.2 25.2766 122.964 0 66.799 0Z" fill="#EBEFF3"></path><path d="M109.925 37.3017V117.352C109.925 120.229 107.59 122.563 104.714 122.563H26.2433C23.3667 122.563 21.0323 120.229 21.0323 117.352V28.2239H35.9106L46.4504 16.293H90.4957" fill="white"></path><rect x="43" y="57.0002" width="13" height="5" rx="1" fill="#EBEFF3"></rect><rect x="58" y="57.0002" width="13" height="5" rx="1" fill="#EBEFF3"></rect><rect x="58" y="92.0002" width="13" height="5" rx="1" fill="#CFD7DF"></rect><rect x="73" y="57.0002" width="13" height="5" rx="1" fill="#EBEFF3"></rect><g clip-path="url(#clip1_1385_13119)"><path d="M54.87 82.7003H62.23C62.5987 82.7003 62.9522 82.8468 63.2129 83.1075C63.4736 83.3681 63.62 83.7217 63.62 84.0903V87.6003L62.85 86.8303C62.7144 86.7032 62.5359 86.6318 62.35 86.6303C62.1668 86.6303 61.9909 86.7021 61.86 86.8303C61.7923 86.8948 61.7383 86.9724 61.7014 87.0583C61.6646 87.1443 61.6455 87.2368 61.6455 87.3303C61.6455 87.4239 61.6646 87.5164 61.7014 87.6024C61.7383 87.6883 61.7923 87.7659 61.86 87.8303L63.86 89.8303C63.9187 89.8824 63.9865 89.9231 64.06 89.9503C64.2299 90.0198 64.4202 90.0198 64.59 89.9503C64.6778 89.9149 64.7564 89.8603 64.82 89.7903L66.82 87.7903C66.8878 87.7259 66.9418 87.6483 66.9787 87.5624C67.0155 87.4764 67.0345 87.3839 67.0345 87.2903C67.0345 87.1968 67.0155 87.1043 66.9787 87.0183C66.9418 86.9324 66.8878 86.8548 66.82 86.7903C66.6871 86.6584 66.5073 86.5844 66.32 86.5844C66.1327 86.5844 65.953 86.6584 65.82 86.7903L65 87.6103V64.7003C64.9795 64.5278 64.8963 64.3688 64.7664 64.2535C64.6365 64.1382 64.4688 64.0745 64.295 64.0745C64.1213 64.0745 63.9536 64.1382 63.8237 64.2535C63.6938 64.3688 63.6106 64.5278 63.59 64.7003V81.7003C63.1699 81.4484 62.6899 81.3137 62.2 81.3103H54.87C53.9506 81.3077 53.0695 80.9413 52.4193 80.2911C51.7691 79.6409 51.4027 78.7598 51.4 77.8403V64.7003C51.4 64.5147 51.3263 64.3366 51.195 64.2054C51.0637 64.0741 50.8857 64.0003 50.7 64.0003C50.5144 64.0003 50.3363 64.0741 50.2051 64.2054C50.0738 64.3366 50 64.5147 50 64.7003V77.8303C50.0027 79.1211 50.5166 80.3583 51.4294 81.271C52.3421 82.1838 53.5793 82.6977 54.87 82.7003Z" fill="#91A2B2"></path></g><g clip-path="url(#clip2_1385_13119)"><path d="M73.63 82.7003H66.27C65.9013 82.7003 65.5478 82.8468 65.2871 83.1075C65.0264 83.3681 64.88 83.7217 64.88 84.0903V87.6003L65.65 86.8303C65.7856 86.7032 65.9641 86.6318 66.15 86.6303C66.3332 86.6303 66.5091 86.7021 66.64 86.8303C66.7077 86.8948 66.7617 86.9724 66.7986 87.0583C66.8354 87.1443 66.8545 87.2368 66.8545 87.3303C66.8545 87.4239 66.8354 87.5164 66.7986 87.6024C66.7617 87.6883 66.7077 87.7659 66.64 87.8303L64.64 89.8303C64.5813 89.8824 64.5135 89.9231 64.44 89.9503C64.2701 90.0198 64.0798 90.0198 63.91 89.9503C63.8222 89.9149 63.7436 89.8603 63.68 89.7903L61.68 87.7903C61.6122 87.7259 61.5582 87.6483 61.5213 87.5624C61.4845 87.4764 61.4655 87.3839 61.4655 87.2903C61.4655 87.1968 61.4845 87.1043 61.5213 87.0183C61.5582 86.9324 61.6122 86.8548 61.68 86.7903C61.8129 86.6584 61.9927 86.5844 62.18 86.5844C62.3673 86.5844 62.547 86.6584 62.68 86.7903L63.5 87.6103V64.7003C63.5205 64.5278 63.6037 64.3688 63.7336 64.2535C63.8635 64.1382 64.0312 64.0745 64.205 64.0745C64.3787 64.0745 64.5464 64.1382 64.6763 64.2535C64.8062 64.3688 64.8894 64.5278 64.91 64.7003V81.7003C65.3301 81.4484 65.8101 81.3137 66.3 81.3103H73.63C74.5494 81.3077 75.4305 80.9413 76.0807 80.2911C76.7309 79.6409 77.0973 78.7598 77.1 77.8403V64.7003C77.1 64.5147 77.1737 64.3366 77.305 64.2054C77.4363 64.0741 77.6143 64.0003 77.8 64.0003C77.9856 64.0003 78.1637 64.0741 78.2949 64.2054C78.4262 64.3366 78.5 64.5147 78.5 64.7003V77.8303C78.4973 79.1211 77.9834 80.3583 77.0706 81.271C76.1579 82.1838 74.9207 82.6977 73.63 82.7003Z" fill="#91A2B2"></path></g><path d="M109.076 37.3014C109.076 43.4083 109.076 49.4916 109.076 55.5986C109.076 67.5531 109.076 79.484 109.076 91.4384C109.076 99.7146 109.076 107.967 109.076 116.243C109.076 116.974 109.123 117.729 108.958 118.436C108.416 120.676 106.388 121.737 104.266 121.737C101.602 121.737 98.9371 121.737 96.2963 121.737C85.2849 121.737 74.2972 121.737 63.2858 121.737C52.8876 121.737 42.4657 121.737 32.0674 121.737C30.1575 121.737 28.2241 121.808 26.3142 121.737C23.7676 121.667 21.9757 119.686 21.9521 117.187C21.9521 116.479 21.9521 115.748 21.9521 115.041C21.9521 106.387 21.9521 97.7576 21.9521 89.1041C21.9521 77.0082 21.9521 64.9358 21.9521 52.8398C21.9521 45.0352 21.9521 37.207 21.9521 29.4024C21.9521 29.0252 21.9521 28.6479 21.9521 28.2471C21.6691 28.53 21.3626 28.8365 21.0797 29.1195C25.6304 29.1195 30.1575 29.1195 34.7082 29.1195C35.2506 29.1195 36.0051 29.2374 36.5002 28.9309C36.9011 28.6715 37.2312 28.1292 37.5377 27.7755C39.3297 25.7477 41.1217 23.6964 42.9137 21.6686C44.3048 20.0888 45.696 18.4854 47.1107 16.9056C46.8985 16.9999 46.7099 17.0707 46.4977 17.165C51.4492 17.165 56.4008 17.165 61.3524 17.165C69.2513 17.165 77.1502 17.165 85.0491 17.165C86.8883 17.165 88.7039 17.165 90.543 17.165C91.6512 17.165 91.6512 15.4202 90.543 15.4202C82.3847 15.4202 74.2264 15.4202 66.0681 15.4202C61.0223 15.4202 55.9764 15.4202 50.9069 15.4202C49.6101 15.4202 48.2897 15.4202 46.9928 15.4202C46.0497 15.4202 45.7196 15.8682 45.1065 16.552C41.8526 20.2538 38.5988 23.9321 35.3449 27.634C35.5571 27.5397 35.7457 27.469 35.9579 27.3747C31.0064 27.3747 26.0312 27.3747 21.0797 27.3747C20.6081 27.3747 20.2072 27.7755 20.2072 28.2471C20.2072 34.0475 20.2072 39.8243 20.2072 45.6247C20.2072 57.6028 20.2072 69.6044 20.2072 81.5825C20.2072 91.6742 20.2072 101.742 20.2072 111.834C20.2072 113.673 20.1601 115.512 20.2072 117.328C20.3016 120.723 22.8952 123.341 26.2906 123.435C26.8093 123.459 27.3281 123.435 27.8468 123.435C36.6889 123.435 45.5074 123.435 54.3494 123.435C66.2804 123.435 78.1877 123.435 90.1186 123.435C94.0327 123.435 97.9468 123.435 101.884 123.435C102.757 123.435 103.606 123.435 104.478 123.435C106.86 123.411 109.076 122.28 110.184 120.11C111.198 118.106 110.844 115.324 110.844 113.131C110.844 108.91 110.844 104.69 110.844 100.446C110.844 88.4204 110.844 76.3715 110.844 64.3463C110.844 55.7636 110.844 47.2045 110.844 38.6218C110.844 38.1738 110.844 37.7258 110.844 37.2778C110.797 36.1932 109.076 36.1932 109.076 37.3014Z" fill="#97A8AF"></path><path d="M6.93195 39.9663C8.72394 39.5183 10.5395 39.0703 12.3315 38.5988C13.4161 38.3158 12.9446 36.6417 11.8599 36.9247C10.0679 37.3727 8.25236 37.8207 6.46037 38.2922C5.39932 38.5516 5.84732 40.2257 6.93195 39.9663Z" fill="#B1BDC7"></path><path d="M32.2794 12.7327C31.7842 14.454 31.2655 16.1752 30.7703 17.8965C30.4638 18.9811 32.1379 19.4291 32.4444 18.3681C32.9396 16.6468 33.4583 14.9255 33.9535 13.2043C34.26 12.1197 32.5859 11.6717 32.2794 12.7327Z" fill="#B1BDC7"></path><path d="M11.6482 18.9802C12.9214 20.2535 14.1711 21.5503 15.4443 22.8236C16.2225 23.6252 17.4486 22.3991 16.6704 21.5975C15.3972 20.3242 14.1475 19.0274 12.8743 17.7541C12.0726 16.9524 10.8465 18.1785 11.6482 18.9802Z" fill="#B1BDC7"></path><path d="M21.7162 15.2326C21.9991 16.3172 22.2821 17.4254 22.5414 18.5101C22.8244 19.5947 24.4985 19.1231 24.2155 18.0385C23.9326 16.9539 23.6496 15.8457 23.3903 14.761C23.1309 13.7 21.4568 14.148 21.7162 15.2326Z" fill="#F2797B"></path><path d="M8.91272 29.4493C9.90304 29.6851 10.8933 29.9445 11.8837 30.1803C12.9683 30.4632 13.4399 28.7891 12.3552 28.5062C11.3649 28.2704 10.3746 28.011 9.3843 27.7752C8.29967 27.4923 7.82809 29.1664 8.91272 29.4493Z" fill="#F2797B"></path><path d="M29.5678 37.2075C33.0575 37.2075 36.5472 37.2075 40.0604 37.2075C41.1687 37.2075 41.1687 35.4626 40.0604 35.4626C36.5708 35.4626 33.0811 35.4626 29.5678 35.4626C28.4596 35.4626 28.4596 37.2075 29.5678 37.2075Z" fill="#CFD7DF"></path><path d="M103.606 36.8772H90.8966V16.3164C90.8966 16.3164 108.769 35.769 109.878 36.8772" fill="white"></path><path d="M103.606 35.9576C99.3614 35.9576 95.1408 35.9576 90.8966 35.9576C91.2032 36.2641 91.4861 36.547 91.7926 36.8536C91.7926 30.8645 91.7926 24.8519 91.7926 18.8629C91.7926 18.014 91.7926 17.1416 91.7926 16.2928C91.2739 16.505 90.7551 16.7172 90.26 16.9294C95.6596 22.8005 101.059 28.6717 106.459 34.5192C107.378 35.5096 108.274 36.5235 109.217 37.4902C110.043 38.3154 111.316 37.0422 110.491 36.2169C104.69 30.3694 99.2907 24.121 93.7261 18.0612C92.9951 17.2595 92.2642 16.4578 91.5097 15.6562C90.9674 15.0667 89.9771 15.5383 89.9771 16.2928C89.9771 22.2818 89.9771 28.2944 89.9771 34.2835C89.9771 35.1323 89.9771 36.0047 89.9771 36.8536C89.9771 37.3487 90.4015 37.7496 90.873 37.7496C95.1172 37.7496 99.3379 37.7496 103.582 37.7496C104.761 37.7731 104.761 35.9576 103.606 35.9576Z" fill="#97A8AF"></path><path d="M35.2032 91.7143C42.0882 86.8334 48.9733 81.9526 55.8347 77.0718C66.7989 69.2908 77.7866 61.5097 88.7508 53.7287C91.2738 51.9367 93.7967 50.1447 96.3432 48.3527C97.2392 47.7161 96.3904 46.207 95.4708 46.8437C88.5858 51.7245 81.7007 56.6053 74.8393 61.4862C63.8751 69.2672 52.8874 77.0482 41.9232 84.8292C39.4002 86.6212 36.8773 88.4132 34.3308 90.2052C33.4348 90.8419 34.3072 92.3509 35.2032 91.7143Z" fill="#91A2B2"></path><path d="M36.0991 93.7434C43.102 88.7683 50.0814 83.7931 57.0843 78.818C68.1428 70.9427 79.2248 63.0673 90.2833 55.2156C92.8299 53.4 95.3764 51.608 97.8993 49.7924C98.9368 49.0379 97.9465 47.2931 96.8854 48.0476C89.8825 53.0227 82.9032 57.9979 75.9002 62.973C64.8417 70.8483 53.7597 78.7001 42.7012 86.5755C40.1547 88.391 37.6081 90.183 35.0852 91.9986C34.0242 92.7531 35.038 94.498 36.0991 93.7434Z" fill="white"></path></g><defs><clipPath id="clip0_1385_13119"><rect width="129" height="129.33" fill="white"></rect></clipPath><clipPath id="clip1_1385_13119"><rect width="24" height="28" fill="white" transform="translate(69 90.0002) rotate(-180)"></rect></clipPath><clipPath id="clip2_1385_13119"><rect width="24" height="28" fill="white" transform="matrix(1 0 0 -1 59.5 90.0002)"></rect></clipPath></defs></svg>