<svg width="18" height="18" viewBox="0 0 18 18" fill="none" xmlns="http://www.w3.org/2000/svg">
<path d="M12.5041 6.75214C12.1845 7.17822 11.6093 8.28604 11.865 9.30864" stroke="#3A7638"/>
<path d="M8.03054 1C7.39141 1.5326 6.04925 2.85346 5.7936 3.87606M5.7936 3.87606C5.15447 3.87606 3.81231 4.32345 3.55666 6.113C3.55666 6.85865 3.30101 8.60559 2.27841 9.6282C1.31972 10.9064 0.29712 14.0382 3.87622 16.339C4.72837 16.7651 6.94396 17.2977 8.98916 16.0194C9.0623 15.9463 9.13892 15.8556 9.21618 15.7472M5.7936 3.87606C7.58315 3.62041 8.45658 5.26084 8.6696 6.113C8.98916 7.39138 9.09568 8.1369 9.30873 8.34994C9.35402 8.47826 9.397 8.60504 9.43776 8.73028" stroke="#3A7638"/>
<path d="M7.07193 10.2673C7.83888 7.96641 10.5871 8.66945 11.8654 9.30858C15.4445 7.77467 16.7653 9.30857 16.9783 10.2673C17.234 12.8238 15.1675 15.5933 14.1023 16.6585C13.0797 17.4255 12.1849 16.7651 11.8654 16.339C11.3541 17.3616 10.3741 16.9781 9.94799 16.6585C6.88019 13.0794 6.75236 10.9064 7.07193 10.2673Z" stroke="#3A7638"/>
<path d="M1 2.91741C3.5565 -0.150392 5.47388 1.21308 6.113 2.27829L5.47388 3.55654C2.91738 4.3235 1.42608 3.45002 1 2.91741Z" stroke="#3A7638"/>
</svg>
