<svg width="40" height="40" viewBox="0 0 40 40" fill="none" xmlns="http://www.w3.org/2000/svg">
<path d="M18 27.3457H11.931C11.6559 27.3457 11.3929 27.4591 11.204 27.6591L4.59292 34.6591C3.99062 35.2968 4.44274 36.3457 5.31993 36.3457H34.5011C35.4036 36.3457 35.8443 35.2444 35.1909 34.6218L27.8453 27.6218C27.6593 27.4446 27.4123 27.3457 27.1554 27.3457H22" stroke="white"/>
<path d="M7.5 31.8457H18.5C19.0523 31.8457 19.5 32.2934 19.5 32.8457V36.3457" stroke="white"/>
<path d="M11.9964 16.2285L19.0905 29.6285C19.4711 30.3474 20.505 30.3354 20.8687 29.6079L27.8547 15.636C28.2321 14.8812 28.5418 14.084 28.6653 13.2492C29.7688 5.7902 23.7651 3 19.4227 3C12.8401 3.28742 11.0362 8.39807 10.901 12.2218C10.8512 13.6301 11.3371 14.9832 11.9964 16.2285Z" stroke="white" stroke-width="2"/>
<circle cx="20" cy="12.3457" r="4.5" stroke="white"/>
<path d="M24.5 27.3457V30.9033C24.5 31.1851 24.6189 31.4538 24.8273 31.6433L30 36.3457" stroke="white"/>
</svg>
