<svg width="28" height="28" viewBox="0 0 28 28" fill="none" xmlns="http://www.w3.org/2000/svg">
<g clip-path="url(#clip0_4017_2264)">
<path d="M27.0419 17.6925L25.4472 18.0447C24.9019 17.541 24.2498 17.1671 23.5397 16.9509L23.0475 15.3934C22.4131 15.2975 21.7679 15.2975 21.1334 15.3934L20.6413 16.9509C19.9311 17.1671 19.279 17.541 18.7337 18.0447L17.1391 17.6925C16.7399 18.194 16.4191 18.753 16.1875 19.3506L17.2812 20.5625C17.1169 21.2824 17.1169 22.0301 17.2812 22.75L16.1875 23.9553C16.4211 24.5533 16.7442 25.1124 17.1456 25.6134L18.7403 25.2612C19.2856 25.7649 19.9377 26.1388 20.6478 26.355L21.14 27.9125C21.7744 28.0084 22.4196 28.0084 23.0541 27.9125L23.5462 26.355C24.2564 26.1388 24.9085 25.7649 25.4538 25.2612L27.0484 25.6134C27.4499 25.1124 27.7729 24.5533 28.0066 23.9553L26.9062 22.75C27.0706 22.0301 27.0706 21.2824 26.9062 20.5625L28 19.3572C27.767 18.7569 27.4439 18.1955 27.0419 17.6925ZM22.0916 23.8175C21.6624 23.8179 21.2428 23.691 20.8859 23.4528C20.529 23.2145 20.2508 22.8757 20.0866 22.4793C19.9224 22.0828 19.8795 21.6465 19.9634 21.2257C20.0474 20.8048 20.2543 20.4184 20.5581 20.1153C20.8618 19.8121 21.2487 19.606 21.6697 19.5229C22.0907 19.4398 22.5269 19.4835 22.923 19.6486C23.3191 19.8136 23.6574 20.0925 23.8949 20.4499C24.1324 20.8073 24.2585 21.2271 24.2572 21.6562C24.2572 22.2304 24.0294 22.7812 23.6238 23.1876C23.2182 23.594 22.6679 23.8229 22.0938 23.8241L22.0916 23.8175Z" fill="white"/>
<path d="M0.030625 13.5341C0.030625 13.6894 0.0503125 13.8447 0.065625 13.9978C0.065625 14.0656 0.083125 14.1312 0.091875 14.1969C0.109375 14.3456 0.126875 14.4944 0.14875 14.6344C0.14875 14.6978 0.170625 14.7591 0.181563 14.8203C0.207813 14.9691 0.231875 15.12 0.2625 15.2578C0.273438 15.3147 0.28875 15.3694 0.301875 15.4241C0.336875 15.5772 0.369688 15.7303 0.409063 15.8812C0.422188 15.9294 0.4375 15.9775 0.450625 16.0256C0.494375 16.1831 0.538125 16.3384 0.58625 16.4937C0.599375 16.5331 0.614687 16.5725 0.627812 16.6141C0.680312 16.7759 0.735 16.9356 0.794063 17.0953L0.83125 17.1894C0.894687 17.3556 0.960313 17.5197 1.03031 17.6816L1.06313 17.7516C1.1375 17.92 1.21406 18.0884 1.295 18.2525L1.32125 18.3028C1.40583 18.4734 1.49406 18.6426 1.58594 18.8103L1.60344 18.8431C1.70115 19.0254 1.8025 19.2004 1.9075 19.3681L1.91844 19.3856C2.0249 19.5577 2.13573 19.7261 2.25094 19.8909C2.72236 20.5705 3.25862 21.2028 3.85219 21.7787C5.39022 23.2767 7.28401 24.3588 9.35542 24.9232C11.4268 25.4877 13.6078 25.5159 15.6931 25.0053C15.5663 24.7392 15.4588 24.4644 15.3716 24.1828C13.3503 24.6569 11.2397 24.5885 9.25333 23.9846C7.26698 23.3808 5.47542 22.2629 4.06 20.7441C4.55167 18.8293 5.6662 17.1324 7.22811 15.9206C8.79002 14.7088 10.7106 14.0508 12.6875 14.0503C11.8079 14.0503 10.9481 13.7895 10.2168 13.3008C9.48544 12.8122 8.91543 12.1176 8.57883 11.305C8.24224 10.4924 8.15417 9.59819 8.32576 8.73552C8.49736 7.87285 8.92091 7.08044 9.54286 6.45849C10.1648 5.83654 10.9572 5.41298 11.8199 5.24139C12.6826 5.06979 13.5767 5.15786 14.3894 5.49446C15.202 5.83105 15.8965 6.40106 16.3852 7.1324C16.8739 7.86373 17.1347 8.72355 17.1347 9.60312C17.1347 10.7826 16.6661 11.9138 15.8321 12.7478C14.9981 13.5818 13.867 14.0503 12.6875 14.0503C13.8693 14.0503 15.0392 14.2864 16.1286 14.7447C17.218 15.203 18.2048 15.8742 19.0312 16.7191C19.3158 16.5412 19.6151 16.3882 19.9259 16.2619L20.2869 15.12L20.4509 14.5994L21 14.5184C21.725 14.4082 22.4625 14.4082 23.1875 14.5184L23.7256 14.5994L23.8897 15.12L24.0953 15.7762C24.0472 15.9578 23.9947 16.1372 23.9378 16.3144C24.2151 16.4061 24.4855 16.5172 24.7472 16.6469C24.7603 16.6053 24.7734 16.5616 24.7866 16.5178C25.0208 15.7792 25.1863 15.0206 25.2809 14.2516V14.2144C25.2984 14.07 25.3116 13.9278 25.3247 13.7769C25.3247 13.7528 25.3247 13.7266 25.3247 13.7025C25.3247 13.5669 25.3422 13.4312 25.3487 13.2934C25.3487 13.2606 25.3487 13.2256 25.3487 13.1928C25.3487 13.0236 25.3487 12.8537 25.3487 12.6831C25.3502 10.9884 25.0102 9.31076 24.3491 7.75031C24.1886 7.37114 24.01 7.00146 23.8131 6.64125C23.7154 6.46187 23.6133 6.28469 23.5069 6.10969C22.1209 3.82965 20.0554 2.0411 17.6006 0.995311C17.2215 0.834894 16.8328 0.689061 16.4347 0.557811C15.8397 0.375977 15.2321 0.238517 14.6169 0.146561C14.4069 0.114477 14.1954 0.087498 13.9825 0.065623C12.2163 -0.115593 10.4318 0.0758842 8.74432 0.627672C7.05682 1.17946 5.50392 2.07927 4.18602 3.26893C2.86812 4.45858 1.81458 5.91159 1.09351 7.53399C0.372444 9.1564 -8.92192e-05 10.9121 1.60275e-08 12.6875C1.60275e-08 12.9077 0.00583335 13.1265 0.0175 13.3437C0.0196875 13.4094 0.02625 13.4706 0.030625 13.5341Z" fill="white"/>
</g>
<defs>
<clipPath id="clip0_4017_2264">
<rect width="28" height="28" fill="white"/>
</clipPath>
</defs>
</svg>
