<svg width="40" height="40" viewBox="0 0 40 40" fill="none" xmlns="http://www.w3.org/2000/svg">
<path d="M9.49966 17.4999L12.3357 12.471L6.56253 12.5294L9.49966 17.4999ZM9.94912 13.0712C10.2751 10.7996 11.195 8.50962 13.095 6.92755C14.9857 5.35326 17.9266 4.41401 22.4357 4.99583L22.5636 4.00405C17.8605 3.3972 14.6157 4.36008 12.4551 6.15908C10.3039 7.9503 9.30717 10.5047 8.95926 12.9291L9.94912 13.0712Z" fill="white"/>
<path d="M34.0003 23.0001L31.1643 28.029L36.9375 27.9706L34.0003 23.0001ZM33.5509 27.4288C33.2249 29.7004 32.305 31.9904 30.405 33.5724C28.5143 35.1467 25.5734 36.086 21.0643 35.5042L20.9364 36.496C25.6395 37.1028 28.8843 36.1399 31.0449 34.3409C33.1961 32.5497 34.1928 29.9953 34.5407 27.5709L33.5509 27.4288Z" fill="white"/>
<circle cx="29" cy="7" r="4" fill="white"/>
<path d="M35.7635 20.5H22.4996C21.2996 20.5 21.1663 18.8333 21.4996 18C22.9996 14.25 26.4996 13 28.9996 13C33.9996 13 35.9996 16.5 36.4996 18C36.8301 19.3219 36.5007 20.0522 36.1882 20.3602C36.0777 20.4691 35.9188 20.5 35.7635 20.5Z" fill="white" stroke="white"/>
<circle cx="10.6582" cy="23" r="4" fill="white"/>
<path d="M17.4217 36.5H4.1578C2.9578 36.5 2.82447 34.8333 3.1578 34C4.65781 30.25 8.15781 29 10.6578 29C15.6578 29 17.6578 32.5 18.1578 34C18.4883 35.3219 18.1589 36.0522 17.8465 36.3602C17.7359 36.4691 17.577 36.5 17.4217 36.5Z" fill="white" stroke="white"/>
</svg>
