<svg width="28" height="28" viewBox="0 0 28 28" fill="none" xmlns="http://www.w3.org/2000/svg">
<g clip-path="url(#clip0_4022_2325)">
<path d="M27.2451 12.1786C27.2444 12.178 27.2438 12.1774 27.2432 12.1767L15.8214 0.755371C15.3345 0.268311 14.6873 0 13.9987 0C13.3102 0 12.663 0.268097 12.1759 0.755157L0.760099 12.1707C0.756254 12.1746 0.752409 12.1786 0.748564 12.1825C-0.251192 13.188 -0.249483 14.8195 0.753477 15.8224C1.2117 16.2809 1.81689 16.5464 2.46396 16.5742C2.49023 16.5767 2.51672 16.578 2.54342 16.578H2.99865V24.9834C2.99865 26.6467 4.35196 28 6.01565 28H10.4842C10.9371 28 11.3045 27.6328 11.3045 27.1797V20.5898C11.3045 19.8308 11.9219 19.2135 12.6809 19.2135H15.3166C16.0756 19.2135 16.693 19.8308 16.693 20.5898V27.1797C16.693 27.6328 17.0602 28 17.5133 28H21.9818C23.6455 28 24.9988 26.6467 24.9988 24.9834V16.578H25.421C26.1092 16.578 26.7565 16.3099 27.2438 15.8228C28.2478 14.8182 28.2483 13.184 27.2451 12.1786Z" fill="white"/>
</g>
<defs>
<clipPath id="clip0_4022_2325">
<rect width="28" height="28" fill="white"/>
</clipPath>
</defs>
</svg>
