<svg width="40" height="40" viewBox="0 0 40 40" fill="none" xmlns="http://www.w3.org/2000/svg">
<g clip-path="url(#clip0_253_635)">
<path d="M10.8835 10.1089C10.6882 10.6255 10.9486 11.2027 11.4651 11.398L19.8833 14.5816C20.3998 14.777 20.977 14.5166 21.1723 14C21.3677 13.4834 21.1073 12.9063 20.5907 12.7109L13.1079 9.88107L15.9378 2.39829C16.1332 1.88172 15.8728 1.30458 15.3562 1.10922C14.8396 0.913855 14.2625 1.17425 14.0671 1.69083L10.8835 10.1089ZM30.7857 26.6069C29.1207 33.8168 21.9261 38.3118 14.7162 36.6468L14.2661 38.5955C22.5523 40.5091 30.8208 35.3431 32.7344 27.0569L30.7857 26.6069ZM20.7458 10.5373C27.9557 12.2024 32.4507 19.3969 30.7857 26.6069L32.7344 27.0569C34.648 18.7707 29.482 10.5022 21.1958 8.58864L20.7458 10.5373ZM12.2301 11.3742C14.8093 10.2105 17.7749 9.85126 20.7458 10.5373L21.1958 8.58864C17.7837 7.80067 14.3719 8.21372 11.4076 9.55117L12.2301 11.3742Z" fill="white"/>
<circle cx="16.6162" cy="19.3603" r="3.25583" fill="white"/>
<path d="M22.0775 30.3488H11.3252C10.3485 30.3488 10.2399 28.9922 10.5113 28.3139C11.7322 25.2616 14.581 24.2441 16.6159 24.2441C20.6857 24.2441 22.3136 27.093 22.7206 28.3139C22.9789 29.347 22.742 29.9362 22.4976 30.2033C22.3929 30.3179 22.2328 30.3488 22.0775 30.3488Z" fill="white" stroke="white"/>
</g>
<defs>
<clipPath id="clip0_253_635">
<rect width="40" height="40" fill="white"/>
</clipPath>
</defs>
</svg>
