<svg width="40" height="40" viewBox="0 0 40 40" fill="none" xmlns="http://www.w3.org/2000/svg">
<circle cx="15" cy="33" r="2" fill="white" stroke="white" stroke-width="2"/>
<circle cx="27" cy="33" r="2" fill="white" stroke="white" stroke-width="2"/>
<path d="M5 5H9.09281C9.60749 5 10.0381 5.39066 10.0881 5.9029L10.3902 9M10.3902 9L11.9119 24.5971C11.9619 25.1093 12.3925 25.5 12.9072 25.5H30.1139C30.6196 25.5 31.0458 25.1224 31.1066 24.6203L32.8642 10.1203C32.9364 9.52469 32.4715 9 31.8715 9H10.3902Z" stroke="white" stroke-width="2"/>
<circle cx="29.5" cy="9.5" r="6" fill="white" stroke="white"/>
<path d="M29.0001 25.5H11.8206C11.6122 25.5 11.4072 25.5624 11.2467 25.6953C10.1585 26.5957 8.97356 28.3987 11.272 29.8625C11.4188 29.9559 11.5917 30 11.7657 30H31.0001" stroke="white" stroke-width="2"/>
<path d="M25.48 9.96704L27.1267 11.9723C27.5043 12.4321 28.1974 12.4625 28.6138 12.0376L33.12 7.43892" stroke="#7A7A7A"/>
<rect x="15.5" y="22" width="2" height="2" fill="white"/>
<rect x="20.5" y="22" width="2" height="2" fill="white"/>
<rect x="25.5" y="22" width="2" height="2" fill="white"/>
</svg>
