<svg width="28" height="28" viewBox="0 0 28 28" fill="none" xmlns="http://www.w3.org/2000/svg">
<g clip-path="url(#clip0_4017_2292)">
<path fill-rule="evenodd" clip-rule="evenodd" d="M13.9999 0.000457774C14.7208 0.000403702 15.4256 0.214139 16.025 0.614632C16.6244 1.01513 17.0916 1.58439 17.3675 2.25042C17.6434 2.91646 17.7156 3.64935 17.5749 4.35641C17.4343 5.06347 17.0871 5.71294 16.5773 6.22268C16.0675 6.73242 15.418 7.07953 14.7109 7.22011C14.0039 7.36069 13.271 7.28844 12.605 7.01248C11.939 6.73652 11.3698 6.26925 10.9693 5.66977C10.5689 5.07029 10.3552 4.36553 10.3554 3.64461C10.3565 2.67841 10.7409 1.75212 11.4241 1.06895C12.1074 0.385778 13.0337 0.00151429 13.9999 0.000457774ZM6.7781 9.24423V12.4626C6.77828 12.6635 6.85816 12.8562 7.00021 12.9984C7.14227 13.1405 7.33489 13.2205 7.53585 13.2208H20.464C20.6649 13.2205 20.8575 13.1405 20.9995 12.9983C21.1415 12.8562 21.2214 12.6635 21.2216 12.4626V9.24423C21.2239 9.10478 21.1866 8.96753 21.114 8.84845C21.0414 8.72937 20.9364 8.63336 20.8114 8.57158L17.1079 6.65948C16.7047 7.07642 16.2217 7.40798 15.6877 7.63442C15.1537 7.86086 14.5796 7.97755 13.9996 7.97755C13.4196 7.97755 12.8455 7.86086 12.3116 7.63442C11.7776 7.40798 11.2946 7.07642 10.8914 6.65948L7.18792 8.57158C7.06288 8.63335 6.95795 8.72937 6.88534 8.84845C6.81273 8.96753 6.77543 9.10478 6.77777 9.24423H6.7781ZM13.9999 21.1649C14.3586 21.1649 14.7092 21.2712 15.0075 21.4705C15.3057 21.6698 15.5382 21.953 15.6754 22.2844C15.8127 22.6158 15.8486 22.9804 15.7787 23.3322C15.7087 23.684 15.536 24.0072 15.2824 24.2608C15.0287 24.5144 14.7056 24.6872 14.3538 24.7571C14.002 24.8271 13.6373 24.7912 13.306 24.654C12.9746 24.5167 12.6913 24.2842 12.4921 23.986C12.2928 23.6878 12.1864 23.3371 12.1864 22.9785C12.187 22.4976 12.3782 22.0367 12.7182 21.6967C13.0582 21.3567 13.5191 21.1655 13.9999 21.1649ZM17.7486 27.7488C17.7484 27.8154 17.7218 27.8792 17.6746 27.9262C17.6275 27.9733 17.5637 27.9997 17.4971 27.9998H10.503C10.4364 27.9997 10.3726 27.9732 10.3254 27.9262C10.2783 27.8792 10.2517 27.8154 10.2514 27.7488V26.0076C10.2497 25.9611 10.2617 25.9151 10.286 25.8754C10.3102 25.8357 10.3455 25.8039 10.3876 25.7841L12.2896 24.8012C12.7523 25.2375 13.3642 25.4806 14.0002 25.4806C14.6361 25.4806 15.248 25.2375 15.7107 24.8012L17.6125 25.7841C17.6546 25.8039 17.69 25.8356 17.7142 25.8754C17.7385 25.9151 17.7505 25.9611 17.7488 26.0076V27.7488H17.7486ZM24.251 21.1649C24.6097 21.1649 24.9603 21.2713 25.2585 21.4705C25.5568 21.6698 25.7892 21.9531 25.9265 22.2844C26.0637 22.6158 26.0996 22.9805 26.0297 23.3323C25.9597 23.6841 25.787 24.0072 25.5333 24.2608C25.2797 24.5145 24.9566 24.6872 24.6048 24.7572C24.253 24.8271 23.8883 24.7912 23.557 24.6539C23.2256 24.5167 22.9423 24.2842 22.7431 23.986C22.5438 23.6878 22.4374 23.3371 22.4374 22.9785C22.438 22.4976 22.6292 22.0367 22.9692 21.6967C23.3092 21.3567 23.7702 21.1655 24.251 21.1649ZM27.9999 27.7488C27.9996 27.8154 27.973 27.8792 27.9259 27.9262C27.8788 27.9732 27.8149 27.9997 27.7483 27.9998H20.7542C20.6876 27.9997 20.6238 27.9732 20.5766 27.9262C20.5295 27.8792 20.5029 27.8154 20.5026 27.7488V26.0076C20.501 25.9611 20.513 25.9151 20.5372 25.8754C20.5614 25.8357 20.5968 25.8039 20.6389 25.7841L22.5408 24.8012C23.0035 25.2375 23.6154 25.4806 24.2514 25.4806C24.8873 25.4806 25.4992 25.2375 25.9619 24.8012L27.8638 25.7841C27.9059 25.804 27.9412 25.8357 27.9654 25.8754C27.9896 25.9152 28.0016 25.9611 27.9999 26.0076V27.7488ZM3.74863 21.1649C4.10731 21.1649 4.45794 21.2713 4.75618 21.4705C5.05442 21.6698 5.28686 21.9531 5.42413 22.2844C5.56139 22.6158 5.5973 22.9805 5.52733 23.3323C5.45735 23.6841 5.28463 24.0072 5.031 24.2608C4.77737 24.5145 4.45423 24.6872 4.10243 24.7572C3.75064 24.8271 3.386 24.7912 3.05461 24.6539C2.72323 24.5167 2.43999 24.2842 2.24072 23.986C2.04144 23.6878 1.93508 23.3371 1.93508 22.9785C1.93563 22.4976 2.12688 22.0367 2.46686 21.6967C2.80685 21.3567 3.26781 21.1655 3.74863 21.1649ZM-9.06954e-05 26.0076C-0.00176322 25.9611 0.0102675 25.9151 0.0345063 25.8754C0.0587452 25.8357 0.0941237 25.8039 0.136245 25.7841L2.03817 24.8012C2.5008 25.2375 3.11271 25.4806 3.74866 25.4806C4.3846 25.4806 4.99651 25.2375 5.45914 24.8012L7.36085 25.7841C7.40296 25.8039 7.43833 25.8357 7.46256 25.8754C7.48679 25.9151 7.49881 25.9611 7.49713 26.0076V27.7488C7.49688 27.8154 7.47028 27.8792 7.42314 27.9262C7.376 27.9733 7.31215 27.9997 7.24557 27.9998H0.251745C0.18511 27.9998 0.121195 27.9734 0.0739949 27.9263C0.0267947 27.8793 0.000155243 27.8155 -9.06954e-05 27.7488V26.0076ZM3.40437 18.9912V16.4326C3.40446 16.3413 3.44074 16.2538 3.50526 16.1892C3.56978 16.1246 3.65728 16.0883 3.74857 16.0881H13.6557V14.4837C13.6551 14.4382 13.6636 14.3929 13.6806 14.3507C13.6976 14.3084 13.7229 14.2699 13.7549 14.2375C13.7869 14.2051 13.8251 14.1793 13.8671 14.1618C13.9092 14.1442 13.9543 14.1351 13.9999 14.1351C14.0455 14.1351 14.0906 14.1442 14.1326 14.1618C14.1747 14.1793 14.2128 14.2051 14.2448 14.2375C14.2769 14.2699 14.3021 14.3084 14.3192 14.3507C14.3362 14.3929 14.3447 14.4382 14.3441 14.4837V16.0883H24.2511C24.3425 16.0884 24.43 16.1248 24.4946 16.1894C24.5592 16.2539 24.5956 16.3415 24.5957 16.4328V18.9915C24.5975 19.0379 24.59 19.0841 24.5735 19.1275C24.557 19.1709 24.532 19.2105 24.4998 19.244C24.4677 19.2774 24.4291 19.304 24.3864 19.3222C24.3437 19.3404 24.2978 19.3498 24.2514 19.3498C24.205 19.3498 24.1591 19.3404 24.1164 19.3222C24.0737 19.304 24.0351 19.2774 24.003 19.244C23.9708 19.2105 23.9458 19.1709 23.9293 19.1275C23.9128 19.0841 23.9053 19.0379 23.9072 18.9915V16.7769H14.3441V18.9913C14.3447 19.0369 14.3362 19.0821 14.3192 19.1244C14.3021 19.1666 14.2769 19.2051 14.2448 19.2375C14.2128 19.2699 14.1747 19.2957 14.1326 19.3133C14.0906 19.3308 14.0455 19.3399 13.9999 19.3399C13.9543 19.3399 13.9092 19.3308 13.8671 19.3133C13.8251 19.2957 13.7869 19.2699 13.7549 19.2375C13.7229 19.2051 13.6976 19.1666 13.6806 19.1244C13.6636 19.0821 13.6551 19.0369 13.6557 18.9913V16.7769H4.09283V18.9913C4.09341 19.0369 4.08493 19.0821 4.06788 19.1244C4.05084 19.1666 4.02558 19.2051 3.99356 19.2375C3.96154 19.2699 3.92339 19.2957 3.88134 19.3133C3.83929 19.3308 3.79417 19.3399 3.7486 19.3399C3.70303 19.3399 3.65791 19.3308 3.61586 19.3133C3.57381 19.2957 3.53567 19.2699 3.50364 19.2375C3.47162 19.2051 3.44636 19.1666 3.42932 19.1244C3.41228 19.0821 3.4038 19.0369 3.40437 18.9913V18.9912Z" fill="white"/>
</g>
<defs>
<clipPath id="clip0_4017_2292">
<rect width="28" height="28" fill="white"/>
</clipPath>
</defs>
</svg>
