<svg width="28" height="23" viewBox="0 0 28 23" fill="none" xmlns="http://www.w3.org/2000/svg">
<path d="M22.9038 12.0778C22.7073 11.0163 21.9701 9.24376 21.6261 8.4902C22.2158 7.82182 22.0028 7.45815 21.8226 7.35985C20.7611 6.45558 20.4957 7.27795 20.4957 7.80216L17.9402 8.4902C20.5744 6.20985 19.2999 5.47595 18.3333 5.39404C9.99829 7.55644 9.51994 10.2594 10.3226 11.3406H5.16239C5.12308 12.3235 5.86681 13.0935 6.24359 13.3556C3.76667 14.5744 3.04915 16.55 3 17.3855H19.6603L21.6261 15.3214L26 15.1248C25.4496 12.8445 23.7066 12.1433 22.9038 12.0778Z" fill="#7A7A7A" stroke="#F4F4F4"/>
<path d="M22.0184 4.95166C22.002 5.80351 21.4385 7.38927 19.3154 6.91747" stroke="#7A7A7A"/>
<path d="M17.5469 4.95166C17.5796 5.06633 17.7435 5.37431 17.94 5.49226" stroke="#F4F4F4"/>
<path d="M23.0422 17.2869C23.0422 17.4542 22.9284 17.7318 22.6916 17.9891C22.4516 18.2499 22.2066 18.3596 22.0679 18.3596C21.8835 18.3596 21.7907 18.2946 21.727 18.2066C21.6478 18.0972 21.585 17.9051 21.585 17.631C21.585 17.5226 21.6848 17.3075 21.9731 17.083C22.2497 16.8677 22.5621 16.7549 22.7559 16.7549C22.8865 16.7549 22.9493 16.7725 22.9736 16.7826C22.9785 16.7846 22.9815 16.7862 22.9832 16.7872C22.9832 16.7873 22.9833 16.7874 22.9834 16.7876C22.9885 16.7955 23.0067 16.8294 23.0211 16.9189C23.0356 17.0084 23.0422 17.1266 23.0422 17.2869Z" fill="#7A7A7A" stroke="#7A7A7A"/>
<path d="M4.27756 17.3853C4.08097 18.6958 4.67071 21.366 7.52115 19.99C7.85452 19.829 8.98567 19.0365 9.92926 17.3853" stroke="#7A7A7A"/>
<path d="M5.91368 17.3853C5.83213 17.9457 6.07679 19.0875 7.25934 18.499C7.39765 18.4302 7.86692 18.0914 8.25839 17.3853" stroke="#7A7A7A"/>
<path d="M19.4974 17.3854C19.0207 18.614 19.9545 21.2187 22.8049 19.8426C23.1383 19.6817 24.4758 19.1055 25.1639 17.3854C25.3277 16.7301 25.4194 15.3704 24.4758 15.1738" stroke="#7A7A7A"/>
<path d="M23.5014 4.95179H18.292C18.292 2.47487 20.1267 1.95393 21.0441 2.00307C23.2458 2.04239 23.5997 3.98527 23.5014 4.95179Z" fill="#7A7A7A" stroke="#F4F4F4"/>
<path d="M6.29199 13.3066H14.4501" stroke="#F4F4F4"/>
<path d="M20.3969 9.03076V11.144L16.3669 16.0585H11.1084L13.0742 13.4047" stroke="#F4F4F4"/>
<path d="M17.3982 7.06494C16.7921 7.31067 15.3341 8.20511 14.3512 9.81708C15.5307 10.2594 17.8897 11.3013 17.8897 11.9303C17.988 12.1105 18.0273 12.579 17.3982 13.0115L14.3512 14.879C15.0229 15.0265 16.2482 15.4688 15.7764 16.0585H11.9922C12.0414 15.6326 12.7491 14.3876 15.1867 12.8149C14.0236 12.7003 11.4221 12.2449 10.3213 11.3406" stroke="#F4F4F4"/>
<path d="M21.6249 8.49015C17.939 10.0628 11.9138 11.9795 17.3001 7.06494" stroke="#F4F4F4"/>
<path d="M15.9735 3.72266H11.5996" stroke="#7A7A7A"/>
<rect x="4.04004" y="4.71484" width="4.99573" height="5.38889" rx="2.49786" fill="#7A7A7A" stroke="#F4F4F4"/>
<path d="M22.9219 9.31713L22.7647 8.98953L23.2868 8.91702V9.31713H22.9219Z" fill="#7A7A7A" stroke="#F4F4F4"/>
</svg>
