<svg width="28" height="23" viewBox="0 0 28 23" fill="none" xmlns="http://www.w3.org/2000/svg">
<circle cx="14.7998" cy="7.25" r="3.25" fill="#7A7A7A"/>
<path d="M9.59961 13.5874V16.9999H20.6496V13.5874C20.4818 11.8324 18.9944 11.2312 18.2718 11.1499H12.1873C10.229 11.3449 9.64623 12.8562 9.59961 13.5874Z" fill="#7A7A7A"/>
<path d="M10.3758 8.66116C10.4574 7.49336 9.45768 6.36727 8.9476 5.9502C7.23375 6.20044 6.94127 8.20933 7.00927 9.1825C7.17249 11.7683 9.18561 14.0831 10.1718 14.9172C12.3753 16.3353 13.7423 15.5081 14.1504 14.9172C13.9056 13.4992 12.8922 12.5191 12.4161 12.2063C11.9264 12.1228 11.3279 13.0056 11.0899 13.4575C9.1312 12.6233 8.64152 10.3294 8.64152 9.28676C10.0289 9.62042 10.3758 9.00872 10.3758 8.66116Z" fill="#7A7A7A" stroke="#F4F4F4" stroke-linecap="round"/>
</svg>
