<svg width="150" height="44" viewBox="0 0 150 44" fill="none" xmlns="http://www.w3.org/2000/svg">
<rect width="150" height="44" rx="22" fill="#84CB3D"/>
<path d="M50 10.6274L53.2883 8.52099L50.9047 7.7671L56.2263 4.20609" stroke="white" stroke-linecap="round"/>
<path d="M50 31.2061L53.2883 33.3125L50.9047 34.0664L56.2263 37.6274" stroke="white" stroke-linecap="round"/>
<path d="M50 20.1133L53.9046 20.0507L52.3351 21.9967L58.7382 22.0222" stroke="white" stroke-linecap="round"/>
<path d="M27.5091 9.5H44.5091V15H27.5088C23.9088 15.8 22.6755 19.6667 22.5088 21.5C22.5088 26.7 25.8423 28.6667 27.5091 29H44.5091V34.5H27.5091C17.9091 33.3 15.8424 25.3333 16.0091 21.5C16.8091 12.7 24.0091 9.83333 27.5091 9.5Z" fill="white" stroke="white" stroke-linecap="round"/>
<path d="M74.104 21L71.864 17.108H70.646V21H69.05V11.27H72.41C73.1567 11.27 73.7867 11.4007 74.3 11.662C74.8227 11.9233 75.21 12.2733 75.462 12.712C75.7233 13.1507 75.854 13.6407 75.854 14.182C75.854 14.8167 75.6673 15.3953 75.294 15.918C74.93 16.4313 74.3653 16.7813 73.6 16.968L76.008 21H74.104ZM70.646 15.834H72.41C73.0073 15.834 73.4553 15.6847 73.754 15.386C74.062 15.0873 74.216 14.686 74.216 14.182C74.216 13.678 74.0667 13.286 73.768 13.006C73.4693 12.7167 73.0167 12.572 72.41 12.572H70.646V15.834ZM79.4917 12.558V15.414H82.8517V16.716H79.4917V19.698H83.2717V21H77.8957V11.256H83.2717V12.558H79.4917ZM91.5235 11.27V12.572H88.9335V21H87.3375V12.572H84.7335V11.27H91.5235ZM99.0058 19.012H94.9318L94.2318 21H92.5658L96.0518 11.256H97.8998L101.386 21H99.7058L99.0058 19.012ZM98.5578 17.71L96.9758 13.188L95.3798 17.71H98.5578ZM104.498 11.27V21H102.902V11.27H104.498ZM114.587 21H112.991L108.189 13.734V21H106.593V11.256H108.189L112.991 18.508V11.256H114.587V21ZM118.279 12.558V15.414H121.639V16.716H118.279V19.698H122.059V21H116.683V11.256H122.059V12.558H118.279ZM127.203 11.27C128.239 11.27 129.144 11.4707 129.919 11.872C130.703 12.264 131.305 12.8333 131.725 13.58C132.154 14.3173 132.369 15.1807 132.369 16.17C132.369 17.1593 132.154 18.018 131.725 18.746C131.305 19.474 130.703 20.034 129.919 20.426C129.144 20.8087 128.239 21 127.203 21H124.025V11.27H127.203ZM127.203 19.698C128.341 19.698 129.214 19.39 129.821 18.774C130.427 18.158 130.731 17.29 130.731 16.17C130.731 15.0407 130.427 14.1587 129.821 13.524C129.214 12.8893 128.341 12.572 127.203 12.572H125.621V19.698H127.203Z" fill="white"/>
<path d="M67.444 28.812C67.444 27.996 67.632 27.264 68.008 26.616C68.392 25.968 68.908 25.464 69.556 25.104C70.212 24.736 70.928 24.552 71.704 24.552C72.592 24.552 73.38 24.772 74.068 25.212C74.764 25.644 75.268 26.26 75.58 27.06H73.936C73.72 26.62 73.42 26.292 73.036 26.076C72.652 25.86 72.208 25.752 71.704 25.752C71.152 25.752 70.66 25.876 70.228 26.124C69.796 26.372 69.456 26.728 69.208 27.192C68.968 27.656 68.848 28.196 68.848 28.812C68.848 29.428 68.968 29.968 69.208 30.432C69.456 30.896 69.796 31.256 70.228 31.512C70.66 31.76 71.152 31.884 71.704 31.884C72.208 31.884 72.652 31.776 73.036 31.56C73.42 31.344 73.72 31.016 73.936 30.576H75.58C75.268 31.376 74.764 31.992 74.068 32.424C73.38 32.856 72.592 33.072 71.704 33.072C70.92 33.072 70.204 32.892 69.556 32.532C68.908 32.164 68.392 31.656 68.008 31.008C67.632 30.36 67.444 29.628 67.444 28.812ZM78.5373 24.66V29.976C78.5373 30.608 78.7013 31.084 79.0293 31.404C79.3653 31.724 79.8293 31.884 80.4213 31.884C81.0213 31.884 81.4853 31.724 81.8133 31.404C82.1493 31.084 82.3173 30.608 82.3173 29.976V24.66H83.6853V29.952C83.6853 30.632 83.5373 31.208 83.2413 31.68C82.9453 32.152 82.5493 32.504 82.0533 32.736C81.5573 32.968 81.0093 33.084 80.4093 33.084C79.8093 33.084 79.2613 32.968 78.7653 32.736C78.2773 32.504 77.8893 32.152 77.6013 31.68C77.3133 31.208 77.1693 30.632 77.1693 29.952V24.66H78.5373ZM88.2144 33.084C87.6544 33.084 87.1504 32.988 86.7024 32.796C86.2544 32.596 85.9024 32.316 85.6464 31.956C85.3904 31.596 85.2624 31.176 85.2624 30.696H86.7264C86.7584 31.056 86.8984 31.352 87.1464 31.584C87.4024 31.816 87.7584 31.932 88.2144 31.932C88.6864 31.932 89.0544 31.82 89.3184 31.596C89.5824 31.364 89.7144 31.068 89.7144 30.708C89.7144 30.428 89.6304 30.2 89.4624 30.024C89.3024 29.848 89.0984 29.712 88.8504 29.616C88.6104 29.52 88.2744 29.416 87.8424 29.304C87.2984 29.16 86.8544 29.016 86.5104 28.872C86.1744 28.72 85.8864 28.488 85.6464 28.176C85.4064 27.864 85.2864 27.448 85.2864 26.928C85.2864 26.448 85.4064 26.028 85.6464 25.668C85.8864 25.308 86.2224 25.032 86.6544 24.84C87.0864 24.648 87.5864 24.552 88.1544 24.552C88.9624 24.552 89.6224 24.756 90.1344 25.164C90.6544 25.564 90.9424 26.116 90.9984 26.82H89.4864C89.4624 26.516 89.3184 26.256 89.0544 26.04C88.7904 25.824 88.4424 25.716 88.0104 25.716C87.6184 25.716 87.2984 25.816 87.0504 26.016C86.8024 26.216 86.6784 26.504 86.6784 26.88C86.6784 27.136 86.7544 27.348 86.9064 27.516C87.0664 27.676 87.2664 27.804 87.5064 27.9C87.7464 27.996 88.0744 28.1 88.4904 28.212C89.0424 28.364 89.4904 28.516 89.8344 28.668C90.1864 28.82 90.4824 29.056 90.7224 29.376C90.9704 29.688 91.0944 30.108 91.0944 30.636C91.0944 31.06 90.9784 31.46 90.7464 31.836C90.5224 32.212 90.1904 32.516 89.7504 32.748C89.3184 32.972 88.8064 33.084 88.2144 33.084ZM98.0966 24.66V25.776H95.8766V33H94.5086V25.776H92.2766V24.66H98.0966ZM103.286 33.084C102.51 33.084 101.794 32.904 101.138 32.544C100.49 32.176 99.974 31.668 99.59 31.02C99.214 30.364 99.026 29.628 99.026 28.812C99.026 27.996 99.214 27.264 99.59 26.616C99.974 25.968 100.49 25.464 101.138 25.104C101.794 24.736 102.51 24.552 103.286 24.552C104.07 24.552 104.786 24.736 105.434 25.104C106.09 25.464 106.606 25.968 106.982 26.616C107.358 27.264 107.546 27.996 107.546 28.812C107.546 29.628 107.358 30.364 106.982 31.02C106.606 31.668 106.09 32.176 105.434 32.544C104.786 32.904 104.07 33.084 103.286 33.084ZM103.286 31.896C103.838 31.896 104.33 31.772 104.762 31.524C105.194 31.268 105.53 30.908 105.77 30.444C106.018 29.972 106.142 29.428 106.142 28.812C106.142 28.196 106.018 27.656 105.77 27.192C105.53 26.728 105.194 26.372 104.762 26.124C104.33 25.876 103.838 25.752 103.286 25.752C102.734 25.752 102.242 25.876 101.81 26.124C101.378 26.372 101.038 26.728 100.79 27.192C100.55 27.656 100.43 28.196 100.43 28.812C100.43 29.428 100.55 29.972 100.79 30.444C101.038 30.908 101.378 31.268 101.81 31.524C102.242 31.772 102.734 31.896 103.286 31.896ZM117.676 24.66V33H116.308V27.288L113.764 33H112.816L110.26 27.288V33H108.892V24.66H110.368L113.296 31.2L116.212 24.66H117.676ZM120.842 25.764V28.212H123.722V29.328H120.842V31.884H124.082V33H119.474V24.648H124.082V25.764H120.842ZM130.099 33L128.179 29.664H127.135V33H125.767V24.66H128.647C129.287 24.66 129.827 24.772 130.267 24.996C130.715 25.22 131.047 25.52 131.263 25.896C131.487 26.272 131.599 26.692 131.599 27.156C131.599 27.7 131.439 28.196 131.119 28.644C130.807 29.084 130.323 29.384 129.667 29.544L131.731 33H130.099ZM127.135 28.572H128.647C129.159 28.572 129.543 28.444 129.799 28.188C130.063 27.932 130.195 27.588 130.195 27.156C130.195 26.724 130.067 26.388 129.811 26.148C129.555 25.9 129.167 25.776 128.647 25.776H127.135V28.572Z" fill="white"/>
</svg>
