<svg width="40" height="40" viewBox="0 0 40 40" fill="none" xmlns="http://www.w3.org/2000/svg">
<path d="M22.8925 31.25L15.5813 38.5613C15.0925 39.05 14.4537 39.2938 13.8137 39.2938C13.1737 39.2938 12.5338 39.05 12.0463 38.5613L4.73375 31.25H22.8925ZM35.2662 8.75005L27.955 1.4388C27.4663 0.950049 26.8275 0.706299 26.1875 0.706299C25.5475 0.706299 24.9075 0.950049 24.42 1.4388L17.1075 8.75005H35.2662ZM20 13.75C16.3138 13.75 15 16.9788 15 20C15 23.0213 16.3138 26.25 20 26.25C23.6862 26.25 25 23.0213 25 20C25 16.9788 23.6862 13.75 20 13.75ZM38.75 27.5C38.75 28.8813 37.6313 30 36.25 30C36.25 30 3.5525 29.9813 3.45375 29.97C2.3 29.8325 1.395 28.915 1.27625 27.7563C1.2675 27.67 1.25 12.5 1.25 12.5C1.25 11.1188 2.36875 10 3.75 10C3.75 10 36.4475 10.0188 36.5462 10.03C37.7 10.1675 38.605 11.085 38.7238 12.2438C38.7325 12.33 38.75 27.5 38.75 27.5ZM6.25 26.25C6.25 25.56 5.69 25 5 25C4.31 25 3.75 25.56 3.75 26.25C3.75 26.94 4.31 27.5 5 27.5C5.69 27.5 6.25 26.94 6.25 26.25ZM6.25 13.75C6.25 13.06 5.69 12.5 5 12.5C4.31 12.5 3.75 13.06 3.75 13.75C3.75 14.44 4.31 15 5 15C5.69 15 6.25 14.44 6.25 13.75ZM26.25 20C26.25 15.8575 24.1425 12.5 20 12.5C15.8575 12.5 13.75 15.8575 13.75 20C13.75 24.1425 15.8575 27.5 20 27.5C24.1425 27.5 26.25 24.1425 26.25 20ZM36.25 26.25C36.25 25.56 35.69 25 35 25C34.31 25 33.75 25.56 33.75 26.25C33.75 26.94 34.31 27.5 35 27.5C35.69 27.5 36.25 26.94 36.25 26.25ZM36.25 13.75C36.25 13.06 35.69 12.5 35 12.5C34.31 12.5 33.75 13.06 33.75 13.75C33.75 14.44 34.31 15 35 15C35.69 15 36.25 14.44 36.25 13.75Z" fill="white"/>
</svg>
