<svg width="40" height="40" viewBox="0 0 40 40" fill="none" xmlns="http://www.w3.org/2000/svg">
<g clip-path="url(#clip0_1979_4619)">
<path d="M24.7171 9.66828H19.3379V4.28906L24.7171 9.66828Z" fill="#AFB6BB"/>
<path d="M24.7161 9.66828V32.3806H2.60156V4.28906H19.3369V9.66828H24.7161Z" fill="white"/>
<path d="M25.3085 9.66856C25.3085 9.51304 25.2492 9.36021 25.1349 9.24594L19.7557 3.86671C19.6413 3.75244 19.4885 3.69314 19.333 3.69308V3.69165H2.59769C2.26759 3.69165 2 3.95924 2 4.28934V32.3808C2 32.7109 2.26759 32.9785 2.59769 32.9785H24.7123C25.0424 32.9785 25.31 32.7109 25.31 32.3808V9.66856H25.3085ZM19.9307 5.73229L23.2693 9.07087H19.9307V5.73229ZM3.19538 31.7831V4.88703H18.7354V9.66856C18.7354 9.99867 19.0029 10.2663 19.333 10.2663H24.1146V31.7831H3.19538Z" fill="#7A7A7A"/>
<path d="M22.3212 13.2549H6.78125V14.4503H22.3212V13.2549Z" fill="#7A7A7A"/>
<path d="M22.3233 16.8411H4.99023V18.0364H22.3233V16.8411Z" fill="#7A7A7A"/>
<path d="M22.3233 20.4265H4.99023V21.6219H22.3233V20.4265Z" fill="#7A7A7A"/>
<path d="M22.3233 24.0129H4.99023V25.2083H22.3233V24.0129Z" fill="#7A7A7A"/>
<path d="M18.7371 27.5994H4.99023V28.7947H18.7371V27.5994Z" fill="#7A7A7A"/>
<path d="M22.3204 27.5994H20.2285V28.7947H22.3204V27.5994Z" fill="#7A7A7A"/>
<path d="M8.57638 6.3811H4.99023V7.57649H8.57638V6.3811Z" fill="#7A7A7A"/>
<path d="M12.1625 8.47314H4.99023V9.66853H12.1625V8.47314Z" fill="#7A7A7A"/>
<path d="M38.6278 26.4814C38.6322 26.2529 38.5355 26.0243 38.3759 25.8647L33.2707 20.7595C32.948 20.4368 32.3965 20.4192 32.0737 20.7421L31.6289 21.1869C31.3058 21.5099 31.3236 22.0612 31.6463 22.3839L34.6247 25.3623L17.9556 25.3604C17.4984 25.3604 17.1279 25.731 17.1279 26.1881L17.1284 26.8168C17.1282 27.0374 17.2146 27.2452 17.3715 27.4021C17.5285 27.5591 17.7454 27.6543 17.9664 27.6541L34.5745 27.6633L31.6662 30.5715C31.3435 30.8942 31.2838 31.4434 31.6067 31.7663L32.0515 32.2111C32.2075 32.3671 32.4495 32.4454 32.6713 32.4454C32.8931 32.4454 33.135 32.3516 33.2907 32.1959L38.3977 27.0888C38.5575 26.9294 38.6321 26.7007 38.6278 26.4814Z" fill="white"/>
<path d="M10.3858 34.3169C10.3815 34.5455 10.4781 34.774 10.6377 34.9336L15.743 40.0389C16.0657 40.3616 16.6171 40.3792 16.94 40.0563L17.3848 39.6115C17.7079 39.2884 17.6901 38.7371 17.3674 38.4144L14.389 35.4361L31.0581 35.4379C31.5152 35.4379 31.8858 35.0674 31.8858 34.6102L31.8853 33.9815C31.8855 33.7609 31.7991 33.5532 31.6422 33.3963C31.4851 33.2392 31.2682 33.144 31.0473 33.1442L14.4392 33.1351L17.3474 30.2269C17.6702 29.9041 17.7298 29.3549 17.4069 29.032L16.9622 28.5872C16.8061 28.4312 16.5642 28.3529 16.3424 28.3529C16.1206 28.3529 15.8787 28.4467 15.723 28.6024L10.6159 33.7095C10.4562 33.8689 10.3816 34.0977 10.3858 34.3169Z" fill="white"/>
</g>
<defs>
<clipPath id="clip0_1979_4619">
<rect width="40" height="40" fill="white"/>
</clipPath>
</defs>
</svg>
