<svg width="40" height="40" viewBox="0 0 40 40" fill="none" xmlns="http://www.w3.org/2000/svg">
<path d="M2.5 26.3506V5.44234C3.00318 3.6407 3.44146 2.93299 5.77717 2.36182H34.2556C36.4911 2.79896 37.1088 3.58817 37.5 5.6062V26.7766C36.8873 28.8441 36.2216 29.6181 34.1901 30.0046H25.0468L22.1302 35.8215C20.5916 38.0984 19.6723 38.3848 17.8699 35.8215L15.0187 30.0046H6.15403C3.97085 29.7324 2.84522 28.866 2.5 26.3506Z" fill="white"/>
<path d="M4.48828 26.1449V6.24843C4.78671 5.02049 5.18763 4.6511 6.24722 4.4895H33.6592C34.9424 4.5615 35.2923 5.08533 35.5095 6.5454V26.5561C35.2849 27.5345 35.0088 27.9517 33.8647 28.1323H24.3391L23.4482 28.7262L20.0217 35.5107L16.481 28.7262L15.4302 28.1323H6.17869C4.90762 27.8132 4.51415 27.4007 4.48828 26.1449Z" fill="#7A7A7A"/>
<path d="M21.3205 8.94405L21.0435 19.1287H18.4441L18.16 8.94405H21.3205ZM19.7438 23.6742C19.275 23.6742 18.8726 23.5084 18.5364 23.177C18.2002 22.8408 18.0345 22.4384 18.0392 21.9696C18.0345 21.5056 18.2002 21.1079 18.5364 20.7764C18.8726 20.445 19.275 20.2793 19.7438 20.2793C20.1936 20.2793 20.589 20.445 20.9299 20.7764C21.2708 21.1079 21.4436 21.5056 21.4483 21.9696C21.4436 22.2821 21.3607 22.5686 21.1998 22.829C21.0435 23.0847 20.8375 23.2906 20.5819 23.4469C20.3262 23.5984 20.0468 23.6742 19.7438 23.6742Z" fill="white"/>
</svg>
