<svg xmlns="http://www.w3.org/2000/svg" width="18" height="18" viewBox="0 0 18 18" fill="none">
  <path d="M14.58 9.74999C14.415 9.74999 14.2425 9.69749 14.0775 9.65999C13.7433 9.58636 13.415 9.48861 13.095 9.36749C12.747 9.24091 12.3646 9.24749 12.0212 9.38595C11.6778 9.52441 11.3978 9.78497 11.235 10.1175L11.07 10.455C10.3395 10.0486 9.66819 9.54392 9.07495 8.95499C8.48603 8.36176 7.98132 7.69049 7.57495 6.95999L7.88995 6.74999C8.22248 6.58718 8.48304 6.30714 8.6215 5.96376C8.75996 5.62038 8.76653 5.23793 8.63995 4.88999C8.52087 4.56931 8.42316 4.24109 8.34745 3.90749C8.30995 3.74249 8.27995 3.56999 8.25745 3.39749C8.16638 2.86921 7.88967 2.3908 7.47717 2.04842C7.06467 1.70605 6.54348 1.5222 6.00745 1.52999H3.75745C3.43423 1.52696 3.11414 1.5936 2.81899 1.72539C2.52383 1.85718 2.26054 2.05101 2.04703 2.2937C1.83352 2.53639 1.6748 2.82224 1.58169 3.13178C1.48858 3.44132 1.46326 3.76729 1.50745 4.08749C1.90701 7.22953 3.34197 10.1489 5.58569 12.3845C7.82941 14.62 10.754 16.0444 13.8975 16.4325H14.1825C14.7355 16.4333 15.2695 16.2304 15.6825 15.8625C15.9197 15.6503 16.1093 15.3901 16.2386 15.0992C16.3678 14.8083 16.4339 14.4933 16.4325 14.175V11.925C16.4233 11.404 16.2336 10.9024 15.8957 10.5057C15.5579 10.1091 15.0928 9.84196 14.58 9.74999ZM14.955 14.25C14.9548 14.3565 14.932 14.4617 14.888 14.5587C14.8441 14.6557 14.78 14.7422 14.7 14.8125C14.6164 14.8852 14.5184 14.9396 14.4125 14.9719C14.3065 15.0042 14.1949 15.0138 14.085 15C11.2761 14.6398 8.66713 13.3549 6.66949 11.3477C4.67185 9.34056 3.39926 6.7255 3.05245 3.91499C3.04052 3.80513 3.05098 3.69399 3.0832 3.58829C3.11543 3.48258 3.16876 3.38451 3.23995 3.29999C3.31024 3.21999 3.39675 3.15587 3.49374 3.11191C3.59073 3.06794 3.69596 3.04513 3.80245 3.04499H6.05245C6.22686 3.04111 6.39717 3.09815 6.53406 3.2063C6.67095 3.31444 6.76586 3.46692 6.80245 3.63749C6.83245 3.84249 6.86995 4.04499 6.91495 4.24499C7.00159 4.64035 7.1169 5.02888 7.25995 5.40749L6.20995 5.89499C6.12018 5.93618 6.03942 5.9947 5.97232 6.06719C5.90522 6.13968 5.8531 6.2247 5.81896 6.31739C5.78481 6.41007 5.76931 6.50859 5.77334 6.60728C5.77737 6.70598 5.80086 6.8029 5.84245 6.89249C6.92185 9.20456 8.78039 11.0631 11.0925 12.1425C11.275 12.2175 11.4799 12.2175 11.6625 12.1425C11.756 12.109 11.8419 12.0573 11.9153 11.9904C11.9887 11.9234 12.0481 11.8426 12.09 11.7525L12.555 10.7025C12.9427 10.8412 13.3384 10.9564 13.74 11.0475C13.94 11.0925 14.1425 11.13 14.3475 11.16C14.518 11.1966 14.6705 11.2915 14.7786 11.4284C14.8868 11.5653 14.9438 11.7356 14.94 11.91L14.955 14.25Z" fill="#62BB09"/>
</svg>