<svg xmlns="http://www.w3.org/2000/svg" width="18" height="18" viewBox="0 0 18 18" fill="none">
  <path d="M9.00002 1.5C8.01511 1.5 7.03984 1.69399 6.1299 2.0709C5.21995 2.44781 4.39316 3.00026 3.69672 3.6967C2.2902 5.10322 1.50002 7.01088 1.50002 9C1.49346 10.7319 2.09312 12.4114 3.19502 13.7475L1.69502 15.2475C1.59095 15.353 1.52046 15.4869 1.49243 15.6324C1.4644 15.7779 1.48009 15.9284 1.53752 16.065C1.59981 16.1999 1.7008 16.3133 1.82766 16.3908C1.95451 16.4682 2.10152 16.5063 2.25002 16.5H9.00002C10.9891 16.5 12.8968 15.7098 14.3033 14.3033C15.7098 12.8968 16.5 10.9891 16.5 9C16.5 7.01088 15.7098 5.10322 14.3033 3.6967C12.8968 2.29018 10.9891 1.5 9.00002 1.5ZM9.00002 15H4.05752L4.75502 14.3025C4.89471 14.162 4.97312 13.9719 4.97312 13.7738C4.97312 13.5756 4.89471 13.3855 4.75502 13.245C3.77296 12.264 3.1614 10.9729 3.02454 9.59159C2.88768 8.21029 3.23398 6.82425 4.00444 5.66964C4.77491 4.51503 5.92186 3.66327 7.24991 3.25948C8.57795 2.85569 10.0049 2.92485 11.2877 3.45519C12.5705 3.98552 13.6297 4.94421 14.2849 6.16792C14.94 7.39163 15.1507 8.80466 14.8809 10.1663C14.6111 11.5279 13.8775 12.7538 12.8052 13.6352C11.7328 14.5166 10.3881 14.9989 9.00002 15Z" fill="#62BB09"/>
</svg>