<svg xmlns="http://www.w3.org/2000/svg" width="18" height="18" viewBox="0 0 18 18" fill="none">
  <path d="M15.7501 8.24999C15.5512 8.24999 15.3605 8.329 15.2198 8.46966C15.0792 8.61031 15.0001 8.80107 15.0001 8.99999V10.9425L10.2826 6.21749C10.2129 6.14719 10.13 6.09139 10.0386 6.05332C9.94718 6.01524 9.84915 5.99564 9.75014 5.99564C9.65113 5.99564 9.5531 6.01524 9.46171 6.05332C9.37031 6.09139 9.28736 6.14719 9.21764 6.21749L6.75014 8.69249L2.78264 4.71749C2.64141 4.57626 2.44987 4.49692 2.25014 4.49692C2.05041 4.49692 1.85887 4.57626 1.71764 4.71749C1.57641 4.85871 1.49707 5.05026 1.49707 5.24999C1.49707 5.44971 1.57641 5.64126 1.71764 5.78249L6.21764 10.2825C6.28736 10.3528 6.37031 10.4086 6.46171 10.4467C6.5531 10.4847 6.65113 10.5043 6.75014 10.5043C6.84915 10.5043 6.94718 10.4847 7.03857 10.4467C7.12997 10.4086 7.21292 10.3528 7.28264 10.2825L9.75014 7.80749L13.9426 12H12.0001C11.8012 12 11.6105 12.079 11.4698 12.2197C11.3292 12.3603 11.2501 12.5511 11.2501 12.75C11.2501 12.9489 11.3292 13.1397 11.4698 13.2803C11.6105 13.421 11.8012 13.5 12.0001 13.5H15.7501C15.8481 13.4988 15.945 13.4784 16.0351 13.44C16.2184 13.3639 16.364 13.2182 16.4401 13.035C16.4786 12.9448 16.499 12.848 16.5001 12.75V8.99999C16.5001 8.80107 16.4211 8.61031 16.2805 8.46966C16.1398 8.329 15.9491 8.24999 15.7501 8.24999Z" fill="#FF5D02"/>
</svg>