<svg xmlns="http://www.w3.org/2000/svg" width="18" height="18" viewBox="0 0 18 18" fill="none">
  <path d="M16.44 4.965C16.3638 4.78174 16.2182 4.63611 16.035 4.56C15.9448 4.52157 15.848 4.50118 15.75 4.5H12C11.801 4.5 11.6103 4.57902 11.4696 4.71967C11.329 4.86032 11.25 5.05109 11.25 5.25C11.25 5.44891 11.329 5.63968 11.4696 5.78033C11.6103 5.92098 11.801 6 12 6H13.9425L9.74995 10.1925L7.28245 7.7175C7.21273 7.6472 7.12978 7.59141 7.03839 7.55333C6.94699 7.51526 6.84896 7.49565 6.74995 7.49565C6.65095 7.49565 6.55292 7.51526 6.46152 7.55333C6.37013 7.59141 6.28718 7.6472 6.21745 7.7175L1.71745 12.2175C1.64716 12.2872 1.59136 12.3702 1.55329 12.4616C1.51521 12.553 1.49561 12.651 1.49561 12.75C1.49561 12.849 1.51521 12.947 1.55329 13.0384C1.59136 13.1298 1.64716 13.2128 1.71745 13.2825C1.78718 13.3528 1.87013 13.4086 1.96152 13.4467C2.05292 13.4847 2.15095 13.5043 2.24995 13.5043C2.34896 13.5043 2.44699 13.4847 2.53839 13.4467C2.62978 13.4086 2.71273 13.3528 2.78245 13.2825L6.74995 9.3075L9.21745 11.7825C9.28718 11.8528 9.37013 11.9086 9.46152 11.9467C9.55292 11.9847 9.65095 12.0043 9.74995 12.0043C9.84896 12.0043 9.94699 11.9847 10.0384 11.9467C10.1298 11.9086 10.2127 11.8528 10.2825 11.7825L15 7.0575V9C15 9.19891 15.079 9.38968 15.2196 9.53033C15.3603 9.67098 15.551 9.75 15.75 9.75C15.9489 9.75 16.1396 9.67098 16.2803 9.53033C16.4209 9.38968 16.5 9.19891 16.5 9V5.25C16.4988 5.15199 16.4784 5.05517 16.44 4.965Z" fill="#31BF37"/>
</svg>