<svg width="82" height="38" viewBox="0 0 79 34" fill="none" xmlns="http://www.w3.org/2000/svg">
<path d="M32.9227 6.01985C32.9227 4.92231 32.143 4.45301 31.2044 4.45301C30.0691 4.45301 28.7822 5.24021 28.7822 6.41345V8.7675H28.6233C27.488 8.7675 26.7461 10.024 26.7461 11.1594C26.7461 12.0223 27.1776 12.7641 28.154 12.7641H28.7822V20.7649C28.7822 24.0953 30.4627 25.5864 33.3162 25.5864C35.2691 25.5864 36.0942 24.451 36.0942 23.2703C36.0942 22.4074 35.7006 21.6201 34.6106 21.6201H33.8612C33.1573 21.6201 32.9227 21.3098 32.9227 20.6361V12.7641H34.6031C35.9352 12.7641 36.7906 11.394 36.7906 10.2511C36.7906 9.46387 36.3591 8.75993 35.3827 8.75993H34.6788C34.1716 8.75993 33.4298 8.83562 32.9227 8.88103V6.01985ZM39.3338 24.1028C39.3338 25.1626 40.1514 25.5939 41.052 25.5939C42.2632 25.5939 43.4742 24.8068 43.4742 23.6336V12.098C43.4742 9.70609 42.301 8.7675 39.9924 8.7675H39.3263C38.1151 8.7675 37.4112 10.024 37.4112 11.1215C37.4112 12.1055 37.8427 12.7262 38.8948 12.7262H39.1294C39.2885 12.7262 39.3263 12.7641 39.3263 12.923V24.1028H39.3338ZM38.3952 4.05941C38.3952 5.47487 39.6821 6.76921 41.0899 6.76921C42.6113 6.76921 43.7846 5.47487 43.7846 4.05941C43.7846 2.53042 42.6113 1.34961 41.0899 1.34961C39.6821 1.35718 38.3952 2.53042 38.3952 4.05941ZM50.0822 23.906C51.4523 25.2004 52.5877 25.5939 53.8365 25.5939C58.3706 25.5939 60.2099 21.2795 60.2099 17.0407C60.2099 12.7262 58.2192 8.53285 53.7987 8.53285C52.3529 8.53285 51.2554 9.00215 50.0822 9.90289V9.74393C50.0822 8.91888 49.3025 8.52529 48.364 8.52529C47.1529 8.52529 45.9418 9.19138 45.9418 10.4857V30.726C45.9418 31.8235 46.7593 32.255 47.66 32.255C48.8712 32.255 50.0822 31.4299 50.0822 30.2945V23.906ZM50.0822 13.8237C51.1344 12.9609 52.3529 12.5294 53.2462 12.5294C55.1234 12.5294 56.062 14.7245 56.062 17.0407C56.062 19.2737 55.1234 21.6277 53.2083 21.6277C52.3076 21.6277 51.0587 21.1205 50.0822 19.9776V13.8237ZM67.3629 26.4947C67.0147 27.7134 66.4243 28.2584 65.2889 28.2584C64.426 28.2584 63.5706 27.8648 62.8289 27.8648C61.8524 27.8648 61.3831 28.6065 61.3831 29.6663C61.3831 31.3542 63.1847 32.255 65.0996 32.255C67.9911 32.255 69.944 31.0363 71.0415 27.5847L76.4385 10.4857C76.8698 9.15354 75.9692 8.52529 74.8337 8.52529C73.4637 8.52529 72.5251 9.07784 72.2147 10.2132L68.7708 21.6655L64.7818 9.74393C64.4714 8.88104 63.5706 8.52529 62.5942 8.52529C61.1864 8.52529 60.2478 9.38818 60.7549 10.8036L64.9785 22.9977C65.4857 24.451 66.2275 25.314 67.6732 25.3518L67.3629 26.4947Z" fill="white"/>
<path d="M13.497 25.3222C8.84194 25.3222 6.61658 21.6738 6.61658 16.3829C6.61658 10.933 9.19769 6.53525 13.5349 6.53525C18.2278 6.53525 20.8847 10.5772 20.8847 15.8303C20.8847 21.2803 17.8721 25.3222 13.497 25.3222ZM13.5349 1.70605C5.87478 1.70605 1.61328 8.68492 1.61328 16.3753C1.61328 23.9446 5.44333 30.1439 13.497 30.1439C21.1571 30.1439 25.8879 23.5585 25.8879 15.8303C25.8879 8.26105 21.5886 1.70605 13.5349 1.70605Z" fill="white"/>
<path fill-rule="evenodd" clip-rule="evenodd" d="M13.4593 16.4949C13.4214 15.9045 12.4071 13.7093 11.7789 13.2402C11.8924 13.8305 12.2481 13.7472 12.2481 15.5184C11.9757 15.3595 10.8781 15.1626 10.4467 15.1626C10.212 15.1626 9.54591 15.2005 9.39453 15.3595C10.8025 15.3595 12.0135 15.9877 12.6796 17.0852C13.4593 18.3796 12.8764 19.4015 12.566 20.9683L11.9378 23.5192H15.4954L15.0261 21.203C14.9504 20.8094 14.8672 20.3779 14.8292 19.9843C14.7535 19.3182 14.4811 18.4932 14.905 17.9482C14.9807 17.8725 15.0639 17.7893 15.1396 17.7136C15.4122 17.5167 16.275 16.7296 16.5475 16.7296C16.7821 16.7296 17.1303 17.1231 17.9933 16.9263C17.9554 16.7296 17.7207 16.2981 17.645 16.1391C17.9176 16.1391 18.3489 16.018 18.6215 15.9802C18.9318 15.9045 19.2875 15.8591 19.5979 15.7834C19.4844 15.7076 19.2043 15.6622 19.0529 15.6622C18.0765 15.5033 17.1379 15.5866 16.1993 15.7834C15.5332 15.9045 15.0261 16.2148 15.0261 15.9423C15.0261 14.6101 15.2607 13.7093 15.8435 12.6875C15.9192 12.5286 16.0404 12.415 16.0782 12.2939C15.1396 12.9222 14.201 14.7615 13.7317 15.9045L13.5728 16.336C13.5349 16.336 13.5349 16.3738 13.5349 16.3738L13.4593 16.4949Z" fill="white"/>
<path fill-rule="evenodd" clip-rule="evenodd" d="M16.4234 15.3509C17.6344 15.3509 18.028 13.7461 16.7715 13.7461C15.5151 13.7461 15.25 15.3509 16.4234 15.3509Z" fill="white"/>
<path fill-rule="evenodd" clip-rule="evenodd" d="M10.3281 19.5166C10.3281 19.6755 10.366 20.1448 10.525 20.1448C10.9186 20.1448 11.3424 19.7891 11.5393 19.5545C11.736 19.3198 11.9329 18.8883 11.9329 18.419C11.9329 18.2601 11.9329 18.3433 11.8951 18.1466C11.6225 18.3433 11.2289 19.1305 10.9943 19.3198C10.8808 19.123 11.2289 18.578 11.3424 18.2601C11.4181 18.139 11.4561 18.0255 11.5014 17.9043C10.8808 18.0633 10.3281 18.6915 10.3281 19.5166Z" fill="white"/>
<path fill-rule="evenodd" clip-rule="evenodd" d="M10.3281 9.39705C10.3281 10.2221 10.8731 10.9639 11.4636 11.0017C11.4258 10.646 10.8808 9.86634 10.9943 9.6317C11.1532 9.75281 11.3046 10.0631 11.4636 10.2599C11.5393 10.3811 11.5771 10.4568 11.6604 10.5703L11.8951 10.8428C12.1297 9.82093 11.3122 8.88234 10.4493 8.80664C10.4115 9.00345 10.3281 9.1624 10.3281 9.39705Z" fill="white"/>
<path fill-rule="evenodd" clip-rule="evenodd" d="M7.16016 14.4893C7.6673 15.1933 9.15089 15.3522 9.62018 14.6862L8.28798 14.5272C8.12903 14.4893 8.21229 14.565 8.12903 14.4061C8.28798 14.3683 9.34012 14.285 9.61261 14.285C9.57476 14.126 9.53692 14.126 9.45365 14.0882C8.64374 13.5507 7.59161 13.8687 7.16016 14.4893Z" fill="white"/>
<path fill-rule="evenodd" clip-rule="evenodd" d="M16.539 19.3198C16.4254 19.2819 16.4633 19.2819 16.38 19.1987C16.2211 19.0397 15.714 18.2147 15.5625 18.1012C15.5625 18.8051 15.5625 19.0852 15.9107 19.4711C16.1833 19.8647 16.4936 20.0238 17.0083 20.1373C17.1218 19.9026 17.0839 19.6301 17.0839 19.3501C17.0839 18.9186 16.925 18.6462 16.7358 18.4114C16.539 18.139 16.3044 17.98 15.9561 17.9043C16.0696 18.1844 16.4936 18.964 16.539 19.3198Z" fill="white"/>
<path fill-rule="evenodd" clip-rule="evenodd" d="M15.5586 10.8025C15.7175 10.7646 15.9522 10.371 16.0279 10.2121L16.3761 9.74278C16.4897 9.58384 16.3003 9.66709 16.5729 9.62168C16.4594 9.85632 16.414 10.091 16.3003 10.3256C16.1868 10.5224 16.0279 10.7949 15.9901 10.9917C16.4215 10.9539 16.7696 10.5603 16.9287 10.2045C17.1633 9.77307 17.2011 9.2205 17.0043 8.78906C16.535 8.8269 16.1868 9.14482 15.9068 9.41731C15.604 9.78821 15.5586 10.1364 15.5586 10.8025Z" fill="white"/>
<path fill-rule="evenodd" clip-rule="evenodd" d="M17.8699 14.2997C18.2635 14.2997 19.0052 14.3755 19.3155 14.4209V14.542C19.0809 14.542 18.4149 14.701 17.832 14.701C18.1423 15.1323 19.6334 15.4881 20.3375 14.4284C19.6334 13.997 19.1641 13.5277 18.1499 14.0348C17.9909 14.1029 17.9531 14.1029 17.8699 14.2997Z" fill="white"/>
<path fill-rule="evenodd" clip-rule="evenodd" d="M13.0977 13.3927C13.0977 14.5659 14.3844 14.4524 14.3844 13.3927C14.392 12.3784 13.0977 12.2194 13.0977 13.3927Z" fill="white"/>
<path fill-rule="evenodd" clip-rule="evenodd" d="M13.2656 10.4183C13.2656 10.7287 13.2656 11.0087 13.4625 11.2812C13.5382 11.3569 13.5003 11.4402 13.576 11.2812C13.6139 11.2434 13.6895 10.494 13.6895 10.3805H13.8031C13.8031 10.7362 13.8788 11.0087 13.8788 11.3645C14.4616 10.9709 14.227 9.79763 13.682 9.63867C13.576 9.74465 13.2656 10.1761 13.2656 10.4183Z" fill="white"/>
<path fill-rule="evenodd" clip-rule="evenodd" d="M9.5 12.0209C9.65896 12.687 10.045 13.1185 10.7867 13.1185C10.9458 13.1185 10.7867 13.1185 10.9003 13.0428C10.8246 12.9671 10.6278 12.846 10.5068 12.7324C10.4311 12.6946 10.3931 12.6567 10.3099 12.6113C10.151 12.4902 10.1964 12.5735 10.1131 12.3767L11.0896 12.7703C11.0139 12.4599 10.7792 12.2177 10.5068 12.1042C10.1661 11.8998 9.93147 11.9452 9.5 12.0209Z" fill="white"/>
<path fill-rule="evenodd" clip-rule="evenodd" d="M16.3867 12.7635C16.5002 12.6878 16.6971 12.6046 16.856 12.5667C17.0528 12.491 17.2043 12.3699 17.3632 12.4078C17.2043 12.6046 16.6971 12.8392 16.5456 13.1117C17.2875 13.1117 17.9157 12.7181 17.9535 12.0142C17.84 12.0142 17.6433 11.9385 17.4842 11.9385C16.9695 11.946 16.4246 12.2942 16.3867 12.7635Z" fill="white"/>
<path fill-rule="evenodd" clip-rule="evenodd" d="M9.5 16.9259C10.2039 17.0848 10.9458 16.8881 11.1047 16.1841C10.9458 16.222 10.7564 16.3431 10.6354 16.3809C10.4765 16.4566 10.2873 16.5398 10.1282 16.5777C10.2039 16.2674 10.7111 16.1841 10.9079 15.8359C10.3629 15.8359 10.2796 15.8738 9.96932 16.1084C9.77249 16.2599 9.57569 16.6458 9.5 16.9259Z" fill="white"/>
<path fill-rule="evenodd" clip-rule="evenodd" d="M10.6445 14.3764C10.6445 14.7322 10.8791 14.8835 11.1517 14.9669C11.3863 15.0426 11.8177 14.9669 11.8177 14.6943C11.8177 14.225 11.5453 13.9904 11.076 13.9904C10.8791 13.9829 10.6445 14.1797 10.6445 14.3764Z" fill="white"/>
<path fill-rule="evenodd" clip-rule="evenodd" d="M14.7876 12.491C14.9465 12.3699 14.8254 12.3321 15.0222 12.2185V12.5289C15.219 12.4532 15.1358 12.5289 15.1812 12.2942C15.219 12.1731 15.219 12.0596 15.1812 11.9385C15.0222 11.9763 15.0677 12.0142 14.9086 12.1731C14.7497 12.2942 14.7119 12.2942 14.7876 12.491Z" fill="white"/>
<path fill-rule="evenodd" clip-rule="evenodd" d="M12.2383 11.9832C12.2383 12.18 12.314 12.2935 12.314 12.5357C12.6244 12.46 12.314 12.4979 12.473 12.18C12.6697 12.3011 12.5487 12.3389 12.7076 12.4903C12.7454 12.3692 12.8211 12.4146 12.5487 12.1345C12.4352 11.9832 12.3973 11.8999 12.2383 11.9832Z" fill="white"/>
</svg>
