<svg width="28" height="28" viewBox="0 0 28 28" fill="none" xmlns="http://www.w3.org/2000/svg">
<path fill-rule="evenodd" clip-rule="evenodd" d="M9.33329 1.16666C9.97767 1.16666 10.5 1.68899 10.5 2.33332V3.49999H12.8333V2.33332C12.8333 1.68899 13.3556 1.16666 14 1.16666C14.6443 1.16666 15.1666 1.68899 15.1666 2.33332V3.49999H17.5V2.33332C17.5 1.68899 18.0223 1.16666 18.6666 1.16666C19.311 1.16666 19.8333 1.68899 19.8333 2.33332V3.49999H21C22.933 3.49999 24.5 5.06699 24.5 6.99999V8.16666H25.6669C26.3113 8.16666 26.8336 8.68899 26.8336 9.33332C26.8336 9.9777 26.3113 10.5 25.6669 10.5H24.5V12.8333H25.6666C26.311 12.8333 26.8333 13.3556 26.8333 14C26.8333 14.6444 26.311 15.1667 25.6666 15.1667H24.5V17.5H25.6669C26.3113 17.5 26.8336 18.0223 26.8336 18.6667C26.8336 19.311 26.3113 19.8333 25.6669 19.8333H24.5V21C24.5 22.933 22.933 24.5 21 24.5H19.8333V25.6667C19.8333 26.311 19.311 26.8333 18.6666 26.8333C18.0223 26.8333 17.5 26.311 17.5 25.6667V24.5H15.1666V25.6667C15.1666 26.311 14.6443 26.8333 14 26.8333C13.3556 26.8333 12.8333 26.311 12.8333 25.6667V24.5H10.5V25.6667C10.5 26.311 9.97767 26.8333 9.33329 26.8333C8.68896 26.8333 8.16663 26.311 8.16663 25.6667V24.5H6.99996C5.06696 24.5 3.49996 22.933 3.49996 21V19.8333H2.33329C1.68896 19.8333 1.16663 19.311 1.16663 18.6667C1.16663 18.0223 1.68896 17.5 2.33329 17.5H3.49996V15.1667H2.33358C1.68925 15.1667 1.16692 14.6444 1.16692 14C1.16692 13.3556 1.68925 12.8333 2.33358 12.8333H3.49996V10.5H2.33329C1.68896 10.5 1.16663 9.9777 1.16663 9.33332C1.16663 8.68899 1.68896 8.16666 2.33329 8.16666H3.49996V6.99999C3.49996 5.06699 5.06696 3.49999 6.99996 3.49999H8.16663V2.33332C8.16663 1.68899 8.68896 1.16666 9.33329 1.16666ZM5.83329 21C5.83329 21.6444 6.35562 22.1667 6.99996 22.1667H21C21.6443 22.1667 22.1666 21.6444 22.1666 21V6.99999C22.1666 6.35565 21.6443 5.83332 21 5.83332H6.99996C6.35562 5.83332 5.83329 6.35565 5.83329 6.99999V21ZM10.1192 17.5H8.16663L10.7028 10.5H13.1214L15.6576 17.5H13.7049L13.2094 16.0303H10.6136L10.1192 17.5ZM11.9396 12.2636L12.7762 14.7451H11.0461L11.8809 12.2636H11.9396ZM16.8499 10.5H18.6666V17.5H16.8499V10.5Z" fill="white"/>
</svg>
