<svg width="28" height="28" viewBox="0 0 28 28" fill="none" xmlns="http://www.w3.org/2000/svg">
<g clip-path="url(#clip0_4017_2267)">
<path d="M27.9125 3.98387L26.1625 0.483874C26.0817 0.348269 25.967 0.235982 25.8297 0.158005C25.6924 0.0800273 25.5373 0.039032 25.3794 0.039032C25.2215 0.039032 25.0663 0.0800273 24.9291 0.158005C24.7918 0.235982 24.6771 0.348269 24.5963 0.483874L22.8463 3.98387C22.7842 4.10499 22.7512 4.23891 22.75 4.375V25.375C22.75 26.0712 23.0266 26.7389 23.5188 27.2312C24.0111 27.7234 24.6788 28 25.375 28C26.0712 28 26.7389 27.7234 27.2312 27.2312C27.7234 26.7389 28 26.0712 28 25.375V4.375C28.0015 4.23961 27.9715 4.10572 27.9125 3.98387Z" fill="white"/>
<path d="M19.4224 4.18513L15.75 0.512756V5.25001H20.3665L19.4224 4.18513Z" fill="white"/>
<path d="M14 6.125V0H3.5C2.57174 0 1.6815 0.368749 1.02513 1.02513C0.368749 1.6815 0 2.57174 0 3.5L0 24.5C0 25.4283 0.368749 26.3185 1.02513 26.9749C1.6815 27.6313 2.57174 28 3.5 28H17.5C18.4283 28 19.3185 27.6313 19.9749 26.9749C20.6313 26.3185 21 25.4283 21 24.5V7H14.875C14.6429 7 14.4204 6.90781 14.2563 6.74372C14.0922 6.57962 14 6.35706 14 6.125ZM4.375 5.25H11.375C11.6071 5.25 11.8296 5.34219 11.9937 5.50628C12.1578 5.67038 12.25 5.89294 12.25 6.125C12.25 6.35706 12.1578 6.57962 11.9937 6.74372C11.8296 6.90781 11.6071 7 11.375 7H4.375C4.14294 7 3.92038 6.90781 3.75628 6.74372C3.59219 6.57962 3.5 6.35706 3.5 6.125C3.5 5.89294 3.59219 5.67038 3.75628 5.50628C3.92038 5.34219 4.14294 5.25 4.375 5.25ZM16.625 22.75H4.375C4.14294 22.75 3.92038 22.6578 3.75628 22.4937C3.59219 22.3296 3.5 22.1071 3.5 21.875C3.5 21.6429 3.59219 21.4204 3.75628 21.2563C3.92038 21.0922 4.14294 21 4.375 21H16.625C16.8571 21 17.0796 21.0922 17.2437 21.2563C17.4078 21.4204 17.5 21.6429 17.5 21.875C17.5 22.1071 17.4078 22.3296 17.2437 22.4937C17.0796 22.6578 16.8571 22.75 16.625 22.75ZM16.625 17.5H4.375C4.14294 17.5 3.92038 17.4078 3.75628 17.2437C3.59219 17.0796 3.5 16.8571 3.5 16.625C3.5 16.3929 3.59219 16.1704 3.75628 16.0063C3.92038 15.8422 4.14294 15.75 4.375 15.75H16.625C16.8571 15.75 17.0796 15.8422 17.2437 16.0063C17.4078 16.1704 17.5 16.3929 17.5 16.625C17.5 16.8571 17.4078 17.0796 17.2437 17.2437C17.0796 17.4078 16.8571 17.5 16.625 17.5ZM17.5 11.375C17.5 11.6071 17.4078 11.8296 17.2437 11.9937C17.0796 12.1578 16.8571 12.25 16.625 12.25H4.375C4.14294 12.25 3.92038 12.1578 3.75628 11.9937C3.59219 11.8296 3.5 11.6071 3.5 11.375C3.5 11.1429 3.59219 10.9204 3.75628 10.7563C3.92038 10.5922 4.14294 10.5 4.375 10.5H16.625C16.8571 10.5 17.0796 10.5922 17.2437 10.7563C17.4078 10.9204 17.5 11.1429 17.5 11.375Z" fill="white"/>
</g>
<defs>
<clipPath id="clip0_4017_2267">
<rect width="28" height="28" fill="white"/>
</clipPath>
</defs>
</svg>
