<svg width="26" height="26" viewBox="0 0 28 28" fill="none" xmlns="http://www.w3.org/2000/svg">
<path d="M18.1562 2.10547C12.7284 2.10547 8.3125 6.52138 8.3125 11.9492C8.3125 12.7917 8.41684 13.614 8.62198 14.4102H15.5859V21.4506C16.4213 21.6759 17.2872 21.793 18.1562 21.793C23.5841 21.793 28 17.3771 28 11.9492C28 6.52138 23.5841 2.10547 18.1562 2.10547ZM25.5391 11.1289V12.7695H23.8984V11.1289H25.5391ZM18.9766 8.66797V11.1289H21.4375V12.7695H17.3359V8.66797H18.9766ZM17.3359 6.20703V4.56641H18.9766V6.20703H17.3359ZM17.3359 17.6914H18.9766V19.332H17.3359V17.6914ZM12.4141 12.7695H10.7734V11.1289H12.4141V12.7695Z" fill="white"/>
<path d="M5.74216 13.5898C5.74216 12.2329 4.63818 11.1289 3.28122 11.1289H2.46091C2.23756 11.1289 2.02871 11.0407 1.87291 10.8805C1.71716 10.7204 1.6348 10.509 1.64092 10.2849C1.65296 9.84566 2.03615 9.48828 2.49503 9.48828H4.92185C6.27881 9.48828 7.38278 8.3843 7.38278 7.02734V4.56641H5.74216V7.02734C5.74216 7.47966 5.37417 7.84766 4.92185 7.84766H2.49503C1.1559 7.84766 0.0370492 8.9209 0.000955455 10.24C-0.0174195 10.9106 0.229768 11.5444 0.697018 12.0246C1.16438 12.505 1.79082 12.7695 2.46091 12.7695H3.28122C3.73354 12.7695 4.10153 13.1375 4.10153 13.5898V14.4102H5.74216V13.5898Z" fill="white"/>
<path d="M12.8332 24.2539C13.5148 23.6527 13.9453 22.7733 13.9453 21.793V16.0508H4.10156V17.6914H2.46094C1.10398 17.6914 0 18.7954 0 20.1523C0 21.5093 1.10398 22.6133 2.46094 22.6133H2.52968H4.20492C4.37101 23.2585 4.72894 23.8264 5.21363 24.2539H0V25.8945H18.0469V24.2539H12.8332ZM1.64062 20.1523C1.64062 19.7 2.00862 19.332 2.46094 19.332H4.10156V20.9727H2.46094C2.00862 20.9727 1.64062 20.6047 1.64062 20.1523Z" fill="white"/>
</svg>
