<svg width="26" height="26" viewBox="0 0 28 28" fill="none" xmlns="http://www.w3.org/2000/svg">
<path fill-rule="evenodd" clip-rule="evenodd" d="M2.20442 1.91257H21.0122C22.2123 1.91257 23.194 2.89425 23.194 4.09282V11.1892C22.3122 11.3546 21.5069 11.8322 20.9419 12.5408C19.7464 12.4596 18.6602 13.2072 18.306 14.3528C16.1491 15.3922 15.9758 18.4152 17.9829 19.7043L13.7628 25.7738C13.3555 26.359 12.4346 26.0703 12.4346 25.3571V18.9193H2.20442C1.00585 18.9193 0.0241699 17.9376 0.0241699 16.7374V4.09282C0.0241699 2.89425 1.00578 1.91257 2.20442 1.91257ZM4.65626 9.55366C5.36169 9.55366 5.93446 10.1248 5.93446 10.8303C5.93446 11.5372 5.36169 12.1085 4.65626 12.1085C3.95083 12.1085 3.37966 11.5373 3.37966 10.8303C3.37958 10.1248 3.95083 9.55366 4.65626 9.55366ZM9.28521 9.55366C9.99217 9.55366 10.5634 10.1248 10.5634 10.8303C10.5634 11.5372 9.99217 12.1085 9.28521 12.1085C8.58131 12.1085 8.00861 11.5373 8.00861 10.8303C8.00853 10.1248 8.58131 9.55366 9.28521 9.55366ZM13.922 9.55366C14.6274 9.55366 15.1986 10.1248 15.1986 10.8303C15.1986 11.5372 14.6273 12.1085 13.922 12.1085C13.2165 12.1085 12.6438 11.5373 12.6438 10.8303C12.6438 10.1248 13.2165 9.55366 13.922 9.55366ZM18.5603 9.55366C19.2658 9.55366 19.8385 10.1248 19.8385 10.8303C19.8385 11.5372 19.2658 12.1085 18.5603 12.1085C17.8549 12.1085 17.2837 11.5373 17.2837 10.8303C17.2836 10.1248 17.8549 9.55366 18.5603 9.55366Z" fill="white"/>
<path fill-rule="evenodd" clip-rule="evenodd" d="M26.1967 18.9193C21.6972 18.9193 19.4499 18.9193 19.4499 18.9193C18.5244 18.8241 17.8252 18.039 17.8315 17.1073C17.8361 16.1819 18.5416 15.4031 19.467 15.3172C19.2392 13.9017 21.1541 13.2384 21.8018 14.3543C22.2232 15.0846 23.3329 14.4401 22.9099 13.7113C22.7631 13.4584 22.4885 13.1806 22.2762 12.9668C24.4845 11.1268 27.4482 13.9734 26.0593 15.9868C25.5817 16.6797 26.6383 17.4086 27.1158 16.7141C27.2672 16.4956 27.3889 16.1757 27.4826 15.9197C28.5532 17.0355 27.7683 18.9193 26.1967 18.9193ZM24.3379 17.8736C23.9648 18.4042 23.1455 17.8408 23.531 17.293L23.5856 17.2134H21.897C21.2384 17.2134 21.2384 16.2193 21.897 16.2193H23.6184L23.531 16.0929C23.1455 15.545 23.9648 14.9817 24.3379 15.5123C25.2977 16.8779 25.293 16.5143 24.3379 17.8736Z" fill="white"/>
</svg>
