<svg width="26" height="26" viewBox="0 0 28 28" fill="none" xmlns="http://www.w3.org/2000/svg">
<path d="M21.3569 3H6.64487C6.20892 3.00097 5.79109 3.17782 5.48282 3.49186C5.17455 3.8059 5.00095 4.23155 5 4.67567V23.3243C5.00095 23.7681 5.1743 24.1935 5.48218 24.5075C5.79006 24.8215 6.20743 24.9985 6.64307 25H21.3551C21.7911 24.999 22.2089 24.8222 22.5172 24.5081C22.8254 24.1941 22.999 23.7685 23 23.3243V4.67567C22.9991 4.23187 22.8257 3.80649 22.5178 3.49251C22.2099 3.17852 21.7926 3.00145 21.3569 3ZM9.006 17.9802C8.69189 17.9802 8.38483 17.8853 8.12365 17.7075C7.86248 17.5297 7.65891 17.277 7.53871 16.9814C7.4185 16.6858 7.38705 16.3605 7.44833 16.0466C7.50961 15.7328 7.66087 15.4445 7.88298 15.2182C8.1051 14.9919 8.38808 14.8378 8.69616 14.7754C9.00424 14.713 9.32357 14.745 9.61377 14.8675C9.90397 14.9899 10.152 15.1973 10.3265 15.4634C10.501 15.7294 10.5942 16.0423 10.5942 16.3622C10.5946 16.5748 10.5538 16.7854 10.4741 16.9819C10.3945 17.1784 10.2775 17.3569 10.1299 17.5072C9.98238 17.6576 9.80713 17.7767 9.61426 17.8579C9.42139 17.939 9.21468 17.9806 9.006 17.9802ZM9.006 13.2511C8.69189 13.2511 8.38483 13.1562 8.12365 12.9784C7.86248 12.8006 7.65891 12.548 7.53871 12.2523C7.4185 11.9567 7.38705 11.6314 7.44833 11.3175C7.50961 11.0037 7.66087 10.7154 7.88298 10.4891C8.1051 10.2629 8.38808 10.1088 8.69616 10.0463C9.00424 9.98391 9.32357 10.016 9.61377 10.1384C9.90397 10.2609 10.152 10.4682 10.3265 10.7343C10.501 11.0004 10.5942 11.3132 10.5942 11.6332C10.5946 11.8458 10.5538 12.0563 10.4741 12.2528C10.3945 12.4493 10.2775 12.6278 10.1299 12.7781C9.98238 12.9285 9.80713 13.0476 9.61426 13.1288C9.42139 13.2099 9.21468 13.2515 9.006 13.2511ZM9.006 8.52246C8.69189 8.52246 8.38483 8.42757 8.12365 8.24979C7.86248 8.07201 7.65891 7.81933 7.53871 7.52369C7.4185 7.22806 7.38705 6.90275 7.44833 6.5889C7.50961 6.27506 7.66087 5.98677 7.88298 5.7605C8.1051 5.53423 8.38808 5.38014 8.69616 5.31771C9.00424 5.25529 9.32357 5.28733 9.61377 5.40978C9.90397 5.53224 10.152 5.73961 10.3265 6.00568C10.501 6.27174 10.5942 6.58455 10.5942 6.90454C10.5945 7.11711 10.5537 7.32766 10.474 7.52412C10.3943 7.72058 10.2774 7.89908 10.1298 8.04939C9.98226 8.1997 9.80704 8.31886 9.61419 8.40004C9.42134 8.48122 9.21466 8.52282 9.006 8.52246ZM14.0022 22.7083C13.6881 22.7083 13.3811 22.6134 13.1199 22.4357C12.8587 22.2579 12.6552 22.0052 12.535 21.7096C12.4148 21.4139 12.3833 21.0886 12.4446 20.7748C12.5059 20.4609 12.6571 20.1726 12.8792 19.9464C13.1013 19.7201 13.3843 19.566 13.6924 19.5036C14.0005 19.4412 14.3198 19.4732 14.61 19.5957C14.9002 19.7181 15.1483 19.9255 15.3228 20.1916C15.4973 20.4576 15.5904 20.7704 15.5904 21.0904C15.5908 21.303 15.55 21.5135 15.4703 21.71C15.3906 21.9065 15.2736 22.085 15.1261 22.2353C14.9785 22.3856 14.8033 22.5047 14.6104 22.5859C14.4176 22.6671 14.2109 22.7087 14.0022 22.7083ZM14.0022 17.9792C13.6881 17.9792 13.3811 17.8844 13.1199 17.7066C12.8587 17.5288 12.6552 17.2761 12.535 16.9805C12.4148 16.6848 12.3833 16.3595 12.4446 16.0457C12.5059 15.7318 12.6571 15.4436 12.8792 15.2173C13.1013 14.991 13.3843 14.8369 13.6924 14.7745C14.0005 14.7121 14.3198 14.7441 14.61 14.8666C14.9002 14.989 15.1483 15.1964 15.3228 15.4625C15.4973 15.7285 15.5904 16.0413 15.5904 16.3613C15.591 16.574 15.5503 16.7847 15.4706 16.9813C15.391 17.1779 15.2741 17.3565 15.1265 17.5069C14.9789 17.6573 14.8037 17.7766 14.6107 17.8578C14.4178 17.939 14.211 17.9806 14.0022 17.9802V17.9792ZM14.0022 13.2502C13.6881 13.2502 13.3811 13.1553 13.1199 12.9775C12.8587 12.7997 12.6552 12.547 12.535 12.2514C12.4148 11.9558 12.3833 11.6305 12.4446 11.3166C12.5059 11.0028 12.6571 10.7145 12.8792 10.4882C13.1013 10.2619 13.3843 10.1078 13.6924 10.0454C14.0005 9.98299 14.3198 10.015 14.61 10.1375C14.9002 10.2599 15.1483 10.4673 15.3228 10.7334C15.4973 10.9994 15.5904 11.3123 15.5904 11.6323C15.591 11.8449 15.5503 12.0556 15.4706 12.2522C15.391 12.4488 15.2741 12.6274 15.1265 12.7778C14.9789 12.9282 14.8037 13.0475 14.6107 13.1287C14.4178 13.2099 14.211 13.2515 14.0022 13.2511V13.2502ZM14.0022 8.52154C13.6881 8.52154 13.3811 8.42665 13.1199 8.24887C12.8587 8.07109 12.6552 7.81841 12.535 7.52277C12.4148 7.22714 12.3833 6.90183 12.4446 6.58799C12.5059 6.27414 12.6571 5.98585 12.8792 5.75958C13.1013 5.53332 13.3843 5.37922 13.6924 5.3168C14.0005 5.25437 14.3198 5.28641 14.61 5.40886C14.9002 5.53132 15.1483 5.73869 15.3228 6.00476C15.4973 6.27082 15.5904 6.58363 15.5904 6.90363C15.5909 7.11627 15.5502 7.32692 15.4705 7.52348C15.3909 7.72005 15.2739 7.89866 15.1264 8.04907C14.9788 8.19947 14.8036 8.31872 14.6106 8.39995C14.4177 8.48119 14.211 8.52282 14.0022 8.52246V8.52154ZM18.994 17.9802C18.6799 17.9802 18.3728 17.8853 18.1117 17.7075C17.8505 17.5297 17.6469 17.277 17.5267 16.9814C17.4065 16.6858 17.3751 16.3605 17.4363 16.0466C17.4976 15.7328 17.6489 15.4445 17.871 15.2182C18.0931 14.9919 18.3761 14.8378 18.6842 14.7754C18.9922 14.713 19.3116 14.745 19.6018 14.8675C19.892 14.9899 20.14 15.1973 20.3145 15.4634C20.489 15.7294 20.5822 16.0423 20.5822 16.3622C20.5822 16.7913 20.4149 17.2029 20.117 17.5063C19.8192 17.8097 19.4152 17.9802 18.994 17.9802ZM18.994 13.2511C18.6799 13.2511 18.3728 13.1562 18.1117 12.9784C17.8505 12.8006 17.6469 12.548 17.5267 12.2523C17.4065 11.9567 17.3751 11.6314 17.4363 11.3175C17.4976 11.0037 17.6489 10.7154 17.871 10.4891C18.0931 10.2629 18.3761 10.1088 18.6842 10.0463C18.9922 9.98391 19.3116 10.016 19.6018 10.1384C19.892 10.2609 20.14 10.4682 20.3145 10.7343C20.489 11.0004 20.5822 11.3132 20.5822 11.6332C20.5822 12.0623 20.4149 12.4738 20.117 12.7772C19.8192 13.0806 19.4152 13.2511 18.994 13.2511ZM18.994 8.52246C18.6799 8.52246 18.3728 8.42757 18.1117 8.24979C17.8505 8.07201 17.6469 7.81933 17.5267 7.52369C17.4065 7.22806 17.3751 6.90275 17.4363 6.5889C17.4976 6.27506 17.6489 5.98677 17.871 5.7605C18.0931 5.53423 18.3761 5.38014 18.6842 5.31771C18.9922 5.25529 19.3116 5.28733 19.6018 5.40978C19.892 5.53224 20.14 5.73961 20.3145 6.00568C20.489 6.27174 20.5822 6.58455 20.5822 6.90454C20.5821 7.3336 20.4147 7.74506 20.1169 8.04845C19.8191 8.35184 19.4152 8.52234 18.994 8.52246Z" fill="white"/>
</svg>
