<svg width="28" height="28" viewBox="0 0 28 28" fill="none" xmlns="http://www.w3.org/2000/svg">
<path d="M16.8968 6.26253C18.1914 7.07426 19.0993 8.44788 19.2645 10.0423C19.7925 10.289 20.3785 10.4309 20.9998 10.4309C23.268 10.4309 25.1064 8.59254 25.1064 6.32473C25.1064 4.05656 23.268 2.2182 20.9998 2.2182C18.7533 2.2189 16.931 4.02442 16.8968 6.26253ZM14.2065 14.6706C16.4747 14.6706 18.313 12.8319 18.313 10.564C18.313 8.29622 16.4743 6.45786 14.2065 6.45786C11.9387 6.45786 10.0993 8.29657 10.0993 10.5644C10.0993 12.8322 11.9387 14.6706 14.2065 14.6706ZM15.9484 14.9505H12.4639C9.56466 14.9505 7.20599 17.3095 7.20599 20.2087V24.47L7.21682 24.5368L7.51035 24.6287C10.2771 25.4932 12.6809 25.7815 14.6594 25.7815C18.5237 25.7815 20.7636 24.6797 20.9016 24.6095L21.1759 24.4707H21.2053V20.2087C21.2063 17.3095 18.8477 14.9505 15.9484 14.9505ZM22.7424 10.7111H19.2848C19.2474 12.0946 18.6569 13.3403 17.7229 14.2362C20.2999 15.0025 22.1854 17.3923 22.1854 20.215V21.5282C25.5994 21.4031 27.5667 20.4355 27.6963 20.3705L27.9706 20.2314H28V15.9687C28 13.0698 25.6413 10.7111 22.7424 10.7111ZM7.00087 10.4316C7.80422 10.4316 8.55165 10.1971 9.18482 9.79773C9.3861 8.48492 10.0899 7.33773 11.0952 6.5564C11.0994 6.47953 11.1067 6.40335 11.1067 6.32578C11.1067 4.05761 9.26799 2.21925 7.00087 2.21925C4.73236 2.21925 2.89435 4.05761 2.89435 6.32578C2.89435 8.59289 4.73236 10.4316 7.00087 10.4316ZM10.6888 14.2362C9.75929 13.3448 9.17085 12.1057 9.12787 10.7307C8.99963 10.7213 8.87278 10.7111 8.74209 10.7111H5.25791C2.35867 10.7111 0 13.0698 0 15.9687V20.2307L0.0108324 20.2964L0.304355 20.389C2.52395 21.0819 4.50488 21.4013 6.22548 21.502V20.215C6.22618 17.3923 8.11102 15.0032 10.6888 14.2362Z" fill="white"/>
</svg>
