<svg width="40" height="40" viewBox="0 0 40 40" fill="none" xmlns="http://www.w3.org/2000/svg">
<path d="M19.2139 6.0523L5.2004 17.5179C4.55769 18.0437 4.50952 19.0095 5.09671 19.5967C5.60875 20.1088 6.42627 20.1472 6.98413 19.6855L19.2023 9.57399C19.9521 8.9534 21.0399 8.9628 21.779 9.59627L33.5128 19.6538C34.0698 20.1313 34.9006 20.0994 35.4194 19.5806C36.0009 18.9991 35.9605 18.0448 35.332 17.5145L21.7701 6.07163C21.0338 5.45043 19.9594 5.44231 19.2139 6.0523Z" fill="#7A7A7A"/>
<path d="M9 29V20.942C9 20.3454 9.26631 19.78 9.72624 19.4001L19.1931 11.5796C19.9471 10.9567 21.0411 10.9705 21.7792 11.6123L31.3124 19.9021C31.7492 20.2819 32 20.8324 32 21.4113V29C32 30.1046 31.1046 31 30 31H25C23.8954 31 23 30.1046 23 29V25C23 23.8954 22.1046 23 21 23H20C18.8954 23 18 23.8954 18 25V29C18 30.1046 17.1046 31 16 31H11C9.89543 31 9 30.1046 9 29Z" fill="#7A7A7A"/>
<path d="M27 9.55464V6.5C27 5.94772 27.4477 5.5 28 5.5H31C31.5523 5.5 32 5.94772 32 6.5V12.2546C32 13.1204 30.9746 13.5771 30.331 12.9979L27.331 10.2979C27.1203 10.1083 27 9.83812 27 9.55464Z" fill="#7A7A7A"/>
</svg>
