<svg width="24" height="24" viewBox="0 0 28 28" fill="black" xmlns="http://www.w3.org/2000/svg">
<g clip-path="url(#clip0_4022_2322)">
<path d="M17.4998 15.1668C16.8547 15.1668 16.3332 15.6895 16.3332 16.3334V21.0001C16.3332 21.6429 15.8105 22.1667 15.1664 22.1667H11.6665V4.66691C11.6665 3.67059 11.0318 2.78043 10.0776 2.4491L9.73214 2.33353H15.1664C15.8105 2.33353 16.3332 2.85733 16.3332 3.50033V7.00029C16.3332 7.64415 16.8547 8.16688 17.4998 8.16688C18.145 8.16688 18.6664 7.64415 18.6664 7.00029V3.50033C18.6664 1.57069 17.0961 0.000366211 15.1664 0.000366211H2.62497C2.58054 0.000366211 2.54337 0.020233 2.50022 0.0260007C2.44404 0.0213011 2.39042 0.000366211 2.33338 0.000366211C1.04653 0.000366211 0 1.04668 0 2.33353V23.3333C0 24.3296 0.634667 25.2198 1.58891 25.5511L8.60999 27.8916C8.84796 27.965 9.08465 28.0001 9.33331 28.0001C10.6202 28.0001 11.6665 26.9535 11.6665 25.6667V24.5001H15.1664C17.0961 24.5001 18.6664 22.9298 18.6664 21.0001V16.3334C18.6664 15.6895 18.145 15.1668 17.4998 15.1668Z" fill="black"/>
<path d="M27.6579 10.842L22.9911 6.17549C22.6576 5.84181 22.1558 5.74141 21.7196 5.92214C21.2845 6.10307 20.9997 6.52882 20.9997 7.00028V10.5002H16.3332C15.6891 10.5002 15.1664 11.0228 15.1664 11.6668C15.1664 12.3109 15.6891 12.8334 16.3332 12.8334H20.9997V16.3334C20.9997 16.8048 21.2845 17.2306 21.7196 17.4115C22.1558 17.5922 22.6576 17.4918 22.9911 17.1584L27.6579 12.4916C28.1139 12.0355 28.1139 11.2981 27.6579 10.842Z" fill="black"/>
</g>
<defs>
<clipPath id="clip0_4022_2322">
<rect width="24" height="24" fill="black"/>
</clipPath>
</defs>
</svg>
