<svg width="32" height="32" viewBox="0 0 32 32" fill="none" xmlns="http://www.w3.org/2000/svg">
<rect x="0.5" width="9" height="9" fill="#727272"/>
<rect x="1.5" y="12" width="7" height="7" stroke="#727272" stroke-width="2"/>
<rect x="1.5" y="23" width="7" height="7" stroke="#727272" stroke-width="2"/>
<path d="M20.3209 12.1866L21.5181 10.2711C21.7913 9.83388 22.3568 9.67121 22.7938 9.94479C26.821 12.4661 26.9708 16.9597 26.5 19C24.9925 23.8992 21.2955 26.5201 19.3396 27.3645C19.1223 27.4583 18.9317 27.6129 18.8261 27.8247C17.6303 30.2236 19.1668 31.2161 20.2864 31.4613C20.4263 31.4919 20.5729 31.4791 20.7097 31.4366C27.3556 29.3728 30.0052 23.304 30.5 20.5C31.9727 13.1366 27.628 8.03232 24.7179 5.96701C24.3149 5.68103 24.1356 5.16106 24.3191 4.70229L25.4086 1.97859C25.6823 1.29416 25.1467 0.558849 24.4113 0.609566L13.2191 1.38144C12.4531 1.43427 12.0299 2.2949 12.4558 2.93377L18.6408 12.2113C19.0437 12.8155 19.936 12.8024 20.3209 12.1866Z" fill="#727272" stroke="#727272"/>
</svg>
