<svg width="40" height="40" viewBox="0 0 40 40" fill="none" xmlns="http://www.w3.org/2000/svg">
<circle cx="14.0597" cy="16.34" r="1.38" fill="#7A7A7A"/>
<circle cx="14.0597" cy="22.7799" r="1.38" fill="#7A7A7A"/>
<circle cx="14.0597" cy="28.2999" r="1.38" fill="#7A7A7A"/>
<path d="M9 30.443C9 43.6569 9 17.4057 9 6.99642C9 4.78728 10.7909 3 13 3H23.7329C24.8167 3 25.8541 3.43978 26.6076 4.21868L30.8748 8.62919C31.5965 9.37518 32 10.3725 32 11.4105V30.28C32 32.4891 30.2091 34.28 28 34.28H9" stroke="#727272" stroke-width="1.5" stroke-linecap="round"/>
<path d="M28.3202 28.7598H22.7445H18.2002" stroke="#727272" stroke-width="1.5" stroke-linecap="round"/>
<path d="M28.3202 22.3198H22.7445H18.2002" stroke="#727272" stroke-width="1.5" stroke-linecap="round"/>
<path d="M28.3202 16.7998H22.7445H18.2002" stroke="#727272" stroke-width="1.5" stroke-linecap="round"/>
<circle cx="14.0597" cy="10.38" r="1.38" fill="#7A7A7A"/>
<path d="M28.3202 10.8398H22.7445H18.2002" stroke="#727272" stroke-width="1.5" stroke-linecap="round"/>
</svg>
