<svg width="28" height="28" viewBox="0 0 28 28" fill="none" xmlns="http://www.w3.org/2000/svg">
<path d="M21.3325 4.70311H18.8519C18.624 4.70435 18.4033 4.62377 18.2299 4.47604C18.0565 4.3283 17.9419 4.12323 17.9069 3.89811L17.7362 2.85686C17.6879 2.5474 17.5303 2.26553 17.2918 2.06243C17.0534 1.85933 16.7501 1.74847 16.4369 1.74998H11.5631C11.2499 1.74847 10.9465 1.85933 10.7081 2.06243C10.4697 2.26553 10.312 2.5474 10.2637 2.85686L10.0931 3.89811C10.0581 4.12323 9.94347 4.3283 9.77004 4.47604C9.59662 4.62377 9.37592 4.70435 9.14811 4.70311H6.66748C6.43494 4.70404 6.21226 4.79712 6.04824 4.96196C5.88422 5.1268 5.79225 5.34995 5.79248 5.58249V25.375C5.79316 25.6068 5.88557 25.829 6.04952 25.9929C6.21346 26.1569 6.43563 26.2493 6.66748 26.25H21.3325C21.5643 26.2493 21.7865 26.1569 21.9504 25.9929C22.1144 25.829 22.2068 25.6068 22.2075 25.375V5.58249C22.2077 5.34995 22.1157 5.1268 21.9517 4.96196C21.7877 4.79712 21.565 4.70404 21.3325 4.70311ZM14.6562 4.12123C14.6538 4.29368 14.5836 4.45823 14.4608 4.5793C14.338 4.70038 14.1724 4.76826 14 4.76826C13.8275 4.76825 13.662 4.70037 13.5392 4.57929C13.4164 4.4582 13.3462 4.29365 13.3437 4.12121C13.3462 3.94877 13.4164 3.78422 13.5392 3.66314C13.662 3.54206 13.8275 3.47418 14 3.47419C14.1725 3.47419 14.338 3.54207 14.4608 3.66316C14.5836 3.78424 14.6538 3.94879 14.6562 4.12123ZM13.8162 6.78123C14.104 6.74692 14.3958 6.78679 14.6638 6.89706C14.9318 7.00734 15.1672 7.18434 15.3475 7.41124L18.1037 12.0356C18.2353 12.2486 18.3188 12.4878 18.3483 12.7364C18.3778 12.9851 18.3525 13.2371 18.2744 13.475C18.1595 13.8315 17.9355 14.1428 17.634 14.365C17.3326 14.5872 16.9688 14.709 16.5944 14.7131L11.4231 14.7394C11.146 14.7414 10.8722 14.68 10.6225 14.56C10.406 14.4497 10.2144 14.2965 10.0591 14.1097C9.90387 13.9229 9.78833 13.7064 9.71954 13.4734C9.65076 13.2404 9.63018 12.9959 9.65905 12.7547C9.68793 12.5135 9.76565 12.2808 9.88748 12.0706L12.4731 7.64748C12.6117 7.40647 12.8059 7.2021 13.0396 7.05141C13.2732 6.90072 13.5395 6.80809 13.8162 6.78123ZM19.2894 20.7287H11.7556C11.6406 20.7271 11.5309 20.6803 11.4502 20.5984C11.3695 20.5166 11.3243 20.4062 11.3243 20.2912C11.3243 20.1763 11.3695 20.0659 11.4502 19.984C11.5309 19.9022 11.6406 19.8554 11.7556 19.8537H19.2894C19.4043 19.8554 19.5139 19.9023 19.5945 19.9841C19.6752 20.066 19.7204 20.1763 19.7204 20.2912C19.7204 20.4062 19.6752 20.5165 19.5945 20.5983C19.5139 20.6802 19.4043 20.727 19.2894 20.7287ZM19.7269 23.0694C19.7265 23.1853 19.6803 23.2964 19.5983 23.3783C19.5164 23.4603 19.4053 23.5065 19.2894 23.5069H11.7556C11.6396 23.5069 11.5283 23.4608 11.4462 23.3787C11.3642 23.2967 11.3181 23.1854 11.3181 23.0694C11.3181 22.9533 11.3642 22.842 11.4462 22.76C11.5283 22.678 11.6396 22.6319 11.7556 22.6319H19.2894C19.3469 22.6317 19.4038 22.6428 19.457 22.6648C19.5102 22.6867 19.5585 22.7189 19.5992 22.7596C19.6398 22.8002 19.672 22.8485 19.694 22.9017C19.7159 22.9549 19.7271 23.0119 19.7269 23.0694ZM9.58561 17.5131C9.58398 17.6281 9.53717 17.7378 9.45529 17.8185C9.37342 17.8992 9.26307 17.9445 9.1481 17.9445C9.03312 17.9445 8.92277 17.8992 8.8409 17.8185C8.75904 17.7378 8.71223 17.628 8.71061 17.5131C8.71223 17.3981 8.75905 17.2884 8.84092 17.2077C8.92279 17.127 9.03314 17.0817 9.14812 17.0817C9.26309 17.0817 9.37344 17.127 9.45531 17.2077C9.53718 17.2884 9.58398 17.3981 9.58561 17.5131ZM9.58561 20.2912C9.58398 20.4062 9.53717 20.5159 9.4553 20.5966C9.37343 20.6773 9.26308 20.7226 9.14811 20.7226C9.03313 20.7226 8.92278 20.6773 8.84091 20.5966C8.75904 20.5159 8.71223 20.4062 8.71061 20.2912C8.71223 20.1763 8.75904 20.0666 8.84091 19.9859C8.92278 19.9051 9.03313 19.8599 9.14811 19.8599C9.26308 19.8599 9.37343 19.9051 9.4553 19.9859C9.53717 20.0666 9.58398 20.1763 9.58561 20.2912ZM9.14811 22.6319C9.26318 22.6333 9.37305 22.6801 9.45391 22.7619C9.53477 22.8438 9.58011 22.9543 9.58011 23.0694C9.58011 23.1844 9.53477 23.2949 9.45391 23.3768C9.37305 23.4587 9.26318 23.5054 9.14811 23.5069C9.03303 23.5054 8.92317 23.4587 8.84231 23.3768C8.76145 23.2949 8.71611 23.1844 8.71611 23.0694C8.71611 22.9543 8.76145 22.8438 8.84231 22.7619C8.92317 22.6801 9.03303 22.6333 9.14811 22.6319ZM19.2894 17.9506H11.7556C11.6407 17.9489 11.5311 17.9021 11.4504 17.8202C11.3698 17.7383 11.3245 17.628 11.3245 17.5131C11.3245 17.3982 11.3698 17.2879 11.4504 17.206C11.5311 17.1242 11.6407 17.0773 11.7556 17.0756H19.2894C19.4043 17.0773 19.5139 17.1242 19.5945 17.206C19.6752 17.2879 19.7204 17.3982 19.7204 17.5131C19.7204 17.628 19.6752 17.7383 19.5945 17.8202C19.5139 17.9021 19.4043 17.9489 19.2894 17.9506Z" fill="white"/>
<path d="M11.0119 13.7769C11.1396 13.8351 11.2784 13.865 11.4188 13.8644L16.59 13.8381C16.7465 13.8356 16.8996 13.7923 17.0342 13.7125C17.1689 13.6326 17.2803 13.5191 17.3576 13.383C17.435 13.2469 17.4754 13.0931 17.4751 12.9365C17.4747 12.78 17.4335 12.6263 17.3556 12.4906L14.6213 7.89687C14.5287 7.80473 14.4164 7.7348 14.2929 7.69237C14.1693 7.64993 14.0378 7.63608 13.9081 7.65187C13.7685 7.66578 13.6342 7.71271 13.5163 7.78878C13.3984 7.86485 13.3002 7.96788 13.23 8.08937L10.6444 12.5169C10.5825 12.6229 10.5428 12.7405 10.5279 12.8624C10.5129 12.9843 10.5229 13.108 10.5573 13.2259C10.5917 13.3438 10.6497 13.4534 10.7279 13.5482C10.806 13.6429 10.9027 13.7207 11.0119 13.7769ZM13.5625 9.47187C13.5642 9.35696 13.6111 9.24733 13.6929 9.16668C13.7748 9.08602 13.8851 9.04081 14 9.04081C14.1149 9.04081 14.2252 9.08602 14.3071 9.16668C14.389 9.24733 14.4358 9.35696 14.4375 9.47187V11.6287C14.4358 11.7436 14.389 11.8533 14.3071 11.9339C14.2252 12.0146 14.1149 12.0598 14 12.0598C13.8851 12.0598 13.7748 12.0146 13.6929 11.9339C13.6111 11.8533 13.5642 11.7436 13.5625 11.6287V9.47187ZM14 12.5869C14.1149 12.5886 14.2245 12.6354 14.3052 12.7173C14.3859 12.7991 14.4311 12.9094 14.4311 13.0244C14.4311 13.1393 14.3859 13.2496 14.3052 13.3315C14.2245 13.4133 14.1149 13.4602 14 13.4619C13.8851 13.4602 13.7755 13.4133 13.6948 13.3315C13.6142 13.2496 13.5689 13.1393 13.5689 13.0244C13.5689 12.9094 13.6142 12.7991 13.6948 12.7173C13.7755 12.6354 13.8851 12.5886 14 12.5869Z" fill="white"/>
</svg>
