<svg width="26" height="26" viewBox="0 0 28 28" fill="none" xmlns="http://www.w3.org/2000/svg">
<path d="M16.7125 4.56177C16.5864 0.972176 11.4139 0.971935 11.2875 4.56171C11.4075 8.14351 16.5917 8.14497 16.7125 4.56177Z" fill="white"/>
<path d="M10.1763 11.4743H17.8238C18.0847 11.4739 18.3349 11.37 18.5194 11.1855C18.7039 11.001 18.8078 10.7508 18.8081 10.4899V9.50113C18.808 9.00781 18.6523 8.52711 18.3633 8.12733C18.0742 7.72756 17.6665 7.42906 17.1981 7.27425L16.5638 7.05988C16.4269 7.19964 16.2791 7.32836 16.1219 7.44482C15.4264 7.95734 14.569 8.20111 13.7079 8.13117C12.8468 8.06123 12.04 7.6823 11.4363 7.06425L10.8019 7.27425C10.3335 7.42906 9.92581 7.72756 9.63678 8.12734C9.34775 8.52711 9.19208 9.00782 9.19189 9.50113V10.4899C9.19229 10.7508 9.29613 11.001 9.48065 11.1855C9.66517 11.37 9.91532 11.4739 10.1763 11.4743Z" fill="white"/>
<path d="M9.03437 19.4499C8.9114 15.967 3.89549 15.9622 3.77124 19.4498C3.88643 22.9297 8.91964 22.9297 9.03437 19.4499Z" fill="white"/>
<path d="M9.49375 22.0486L8.9425 21.8649C8.81008 22.0031 8.6667 22.1304 8.51375 22.2455C7.82635 22.7623 6.97326 23.0089 6.11613 22.9388C5.259 22.8687 4.45737 22.4866 3.86313 21.8649L3.31188 22.0486C2.85666 22.1992 2.46058 22.4896 2.18011 22.8784C1.89965 23.2673 1.74913 23.7348 1.75 24.2143V25.168C1.75001 25.4233 1.85142 25.6681 2.03192 25.8486C2.21242 26.0291 2.45723 26.1305 2.7125 26.1305H10.0888C10.2155 26.131 10.3411 26.1064 10.4583 26.0583C10.5755 26.0101 10.6821 25.9393 10.7719 25.8499C10.8617 25.7605 10.933 25.6542 10.9817 25.5372C11.0304 25.4202 11.0555 25.2948 11.0556 25.168V24.2143C11.0565 23.7348 10.906 23.2673 10.6255 22.8784C10.3451 22.4896 9.94898 22.1992 9.49375 22.0486Z" fill="white"/>
<path d="M18.9656 19.4498C19.0796 22.9283 24.1128 22.9312 24.2287 19.4499C24.1047 15.9625 19.0888 15.9667 18.9656 19.4498Z" fill="white"/>
<path d="M24.6881 22.0486L24.1368 21.8649C24.0044 22.0031 23.861 22.1304 23.7081 22.2455C23.0208 22.7626 22.1677 23.0095 21.3104 22.9394C20.4532 22.8692 19.6515 22.4869 19.0575 21.8649L18.5062 22.0486C18.051 22.1992 17.6549 22.4896 17.3744 22.8784C17.094 23.2673 16.9435 23.7348 16.9443 24.2143V25.168C16.9445 25.2948 16.9696 25.4202 17.0183 25.5372C17.067 25.6542 17.1383 25.7605 17.2281 25.8499C17.3179 25.9393 17.4245 26.0101 17.5417 26.0583C17.6589 26.1064 17.7845 26.131 17.9112 26.1305H25.2875C25.5427 26.1305 25.7875 26.0291 25.968 25.8486C26.1486 25.6681 26.25 25.4233 26.25 25.168V24.2143C26.2508 23.7348 26.1003 23.2673 25.8199 22.8784C25.5394 22.4896 25.1433 22.1992 24.6881 22.0486Z" fill="white"/>
<path d="M18.375 16.5055C18.375 15.3452 17.9141 14.2324 17.0936 13.4119C16.2731 12.5914 15.1603 12.1305 14 12.1305C12.8397 12.1305 11.7269 12.5914 10.9064 13.4119C10.0859 14.2324 9.625 15.3452 9.625 16.5055C9.87075 22.3102 18.1301 22.3085 18.375 16.5055ZM16.2094 15.8842L13.2562 17.853C13.1725 17.9094 13.0718 17.9349 12.9712 17.9254C12.8707 17.9158 12.7766 17.8717 12.705 17.8005L11.7206 16.8161C11.6388 16.7336 11.593 16.622 11.5932 16.5059C11.5935 16.3897 11.6397 16.2783 11.7219 16.1961C11.8041 16.114 11.9154 16.0677 12.0316 16.0675C12.1478 16.0672 12.2594 16.113 12.3419 16.1949L13.0725 16.9255L15.7281 15.158C15.8244 15.0965 15.941 15.0754 16.0528 15.0991C16.1645 15.1228 16.2625 15.1894 16.3256 15.2846C16.3887 15.3799 16.4119 15.4961 16.3901 15.6082C16.3684 15.7204 16.3035 15.8195 16.2094 15.8842Z" fill="white"/>
<path d="M19.25 4.99927H20.7244C20.8403 4.9996 20.9514 5.04581 21.0334 5.12778C21.1153 5.20975 21.1615 5.32084 21.1619 5.43677V12.8261C20.974 12.5864 20.6611 12.4519 20.4137 12.6949C20.3318 12.7775 20.2858 12.8891 20.2858 13.0055C20.2858 13.1219 20.3318 13.2335 20.4137 13.3161L21.2887 14.1911C21.371 14.2721 21.4818 14.3175 21.5972 14.3175C21.7126 14.3175 21.8234 14.2721 21.9056 14.1911L22.7806 13.3161C22.8603 13.2338 22.9044 13.1235 22.9037 13.0089C22.9029 12.8943 22.8573 12.7846 22.7765 12.7033C22.6958 12.622 22.5864 12.5756 22.4719 12.574C22.3573 12.5724 22.2467 12.6158 22.1637 12.6949L22.0369 12.8218V5.43677C22.0359 5.08898 21.8973 4.75573 21.6513 4.50981C21.4054 4.26389 21.0722 4.12528 20.7244 4.12427H19.25C19.134 4.12427 19.0227 4.17036 18.9406 4.25241C18.8586 4.33446 18.8125 4.44574 18.8125 4.56177C18.8125 4.6778 18.8586 4.78908 18.9406 4.87113C19.0227 4.95317 19.134 4.99927 19.25 4.99927Z" fill="white"/>
<path d="M6.0944 14.1911C6.17664 14.2721 6.28742 14.3175 6.40284 14.3175C6.51826 14.3175 6.62904 14.2721 6.71128 14.1911L7.58628 13.3161C7.66824 13.2335 7.71424 13.1219 7.71424 13.0055C7.71424 12.8891 7.66824 12.7775 7.58628 12.6949C7.33953 12.4534 7.02642 12.5848 6.83815 12.8261V5.43677C6.83849 5.32084 6.88469 5.20975 6.96666 5.12778C7.04864 5.04581 7.15972 4.9996 7.27565 4.99927H8.75003C8.86606 4.99927 8.97734 4.95317 9.05939 4.87113C9.14143 4.78908 9.18753 4.6778 9.18753 4.56177C9.18753 4.44574 9.14143 4.33446 9.05939 4.25241C8.97734 4.17036 8.86606 4.12427 8.75003 4.12427H7.27565C6.92787 4.12528 6.59462 4.26389 6.34869 4.50981C6.10277 4.75573 5.96417 5.08898 5.96315 5.43677V12.8217L5.83632 12.6949C5.75342 12.6156 5.64274 12.5721 5.52808 12.5736C5.41341 12.5751 5.30391 12.6215 5.22311 12.7029C5.1423 12.7842 5.09665 12.8941 5.09596 13.0087C5.09526 13.1234 5.13958 13.2338 5.2194 13.3161L6.0944 14.1911Z" fill="white"/>
</svg>
