<svg width="30" height="30" viewBox="0 0 30 30" fill="none" xmlns="http://www.w3.org/2000/svg">
<circle cx="10.751" cy="23.9746" r="1.5254" fill="#F4F4F4" stroke="#7A7A7A"/>
<circle cx="18.8535" cy="23.9746" r="1.5254" fill="#F4F4F4" stroke="#7A7A7A"/>
<path d="M4 5.0708H6.46848C6.98315 5.0708 7.41377 5.46146 7.46375 5.9737L7.63913 7.77133M7.63913 7.77133L8.63784 18.0081C8.68781 18.5204 9.11844 18.911 9.63311 18.911H20.6673C21.1731 18.911 21.5992 18.5334 21.6601 18.0313L22.7679 8.89166C22.8401 8.29602 22.3752 7.77133 21.7752 7.77133H7.63913Z" stroke="#7A7A7A"/>
<circle cx="22.3884" cy="11.1091" r="3.88836" fill="#F4F4F4" stroke="#7A7A7A"/>
<path d="M20.2033 18.9111H8.70896C8.50054 18.9111 8.29442 18.9726 8.13823 19.1106C7.4402 19.7274 6.76135 20.8649 8.1615 21.8086C8.30581 21.9058 8.48004 21.9492 8.65406 21.9492H21.5536" stroke="#7A7A7A"/>
<rect x="11.0898" y="16.5483" width="1.35026" height="1.35026" fill="#7A7A7A"/>
<rect x="14.4648" y="16.5483" width="1.35026" height="1.35026" fill="#7A7A7A"/>
<rect x="17.8398" y="16.5483" width="1.35026" height="1.35026" fill="#7A7A7A"/>
<path d="M23.6373 10.7188L23.4818 11.3111H20.6246L20.778 10.7188H23.6373ZM22.1523 14L20.6949 12.2656L20.697 11.733H21.4172C21.5777 11.733 21.7119 11.7031 21.8199 11.6435C21.9278 11.5838 22.0088 11.5028 22.0628 11.4006C22.1167 11.2983 22.1444 11.1818 22.1459 11.0511C22.1444 10.8551 22.0869 10.6953 21.9733 10.5717C21.8611 10.4467 21.6757 10.3842 21.4172 10.3842H20.6246L20.7993 9.63636H21.4172C21.7794 9.63636 22.0812 9.69105 22.3227 9.80043C22.5656 9.90838 22.7474 10.0625 22.8682 10.2628C22.9903 10.4631 23.0521 10.7017 23.0535 10.9787C23.0521 11.2244 23.0109 11.4389 22.93 11.6222C22.8504 11.8054 22.7247 11.9581 22.5528 12.0803C22.3824 12.2024 22.1601 12.2933 21.8859 12.353L21.8518 12.3658L23.1558 13.9616V14H22.1523ZM23.6416 9.63636L23.4818 10.2372H21.1295L21.2893 9.63636H23.6416Z" fill="#7A7A7A"/>
</svg>
