<svg width="30" height="30" viewBox="0 0 30 30" fill="none" xmlns="http://www.w3.org/2000/svg">
<path d="M24.4974 16.3782C24.295 15.285 23.5358 13.4596 23.1815 12.6836C23.7889 11.9953 23.5696 11.6208 23.384 11.5196C22.2908 10.5883 22.0175 11.4352 22.0175 11.9751L19.3857 12.6836C22.0985 10.3353 20.786 9.57947 19.7906 9.49512C11.207 11.722 10.7144 14.5056 11.541 15.619H6.22688C6.18639 16.6313 6.9523 17.4242 7.34032 17.6941C4.78953 18.9492 4.05061 20.9838 4 21.8442H21.1571L23.1815 19.7185L27.6859 19.5161C27.1191 17.1677 25.3241 16.4457 24.4974 16.3782Z" fill="#7A7A7A" stroke="#F4F4F4"/>
<path d="M23.5863 9.03955C23.5695 9.91681 22.9891 11.5499 20.8027 11.064" stroke="#7A7A7A"/>
<path d="M18.9814 9.03955C19.0152 9.15764 19.1839 9.4748 19.3863 9.59627" stroke="#F4F4F4"/>
<path d="M24.6546 21.743C24.6546 21.9204 24.5348 22.2097 24.2895 22.4762C24.0411 22.7462 23.7851 22.8626 23.6362 22.8626C23.4417 22.8626 23.3417 22.7935 23.2731 22.6988C23.1891 22.5828 23.124 22.3816 23.124 22.0973C23.124 21.9788 23.2312 21.7535 23.5295 21.5212C23.816 21.2982 24.1409 21.1802 24.3448 21.1802C24.4804 21.1802 24.5472 21.1985 24.5747 21.2099C24.5898 21.2161 24.5907 21.2185 24.5913 21.22C24.5914 21.2202 24.5915 21.2205 24.5916 21.2206C24.5984 21.2312 24.6176 21.2683 24.6327 21.3616C24.6477 21.4549 24.6546 21.5777 24.6546 21.743Z" fill="#7A7A7A" stroke="#7A7A7A"/>
<path d="M5.31471 21.8442C5.11227 23.1939 5.7196 25.9437 8.65504 24.5266C8.99835 24.3609 10.1632 23.5448 11.135 21.8442" stroke="#7A7A7A"/>
<path d="M7.00102 21.8442C6.91703 22.4213 7.16899 23.5972 8.38681 22.9912C8.52924 22.9204 9.01251 22.5714 9.41565 21.8442" stroke="#7A7A7A"/>
<path d="M20.9892 21.8444C20.4983 23.1097 21.4599 25.792 24.3953 24.3749C24.7387 24.2092 26.1161 23.6158 26.8247 21.8444C26.9934 21.1696 27.0878 19.7693 26.1161 19.5669" stroke="#7A7A7A"/>
<path d="M25.1128 9.03982H19.748C19.748 6.48903 21.6375 5.95256 22.5823 6.00317C24.8496 6.04365 25.214 8.04447 25.1128 9.03982Z" fill="#7A7A7A" stroke="#F4F4F4"/>
<path d="M7.38965 17.6436H15.7911" stroke="#F4F4F4"/>
<path d="M21.9151 13.2407V15.417L17.765 20.4781H12.3496L14.374 17.7451" stroke="#F4F4F4"/>
<path d="M18.828 11.2158C18.2038 11.4689 16.7024 12.39 15.6901 14.05C16.9048 14.5055 19.3341 15.5785 19.3341 16.2263C19.4353 16.4119 19.4758 16.8944 18.828 17.3397L15.6901 19.263C16.3818 19.4148 17.6437 19.8703 17.1579 20.4776H13.2608C13.3114 20.039 14.0402 18.7568 16.5505 17.1373C15.3527 17.0192 12.6737 16.5502 11.54 15.619" stroke="#F4F4F4"/>
<path d="M23.1811 12.6835C19.3853 14.3031 13.1804 16.2769 18.7273 11.2158" stroke="#F4F4F4"/>
<path d="M17.3598 7.77441H12.8555" stroke="#7A7A7A"/>
<rect x="5.05664" y="8.78076" width="5.17453" height="5.57942" rx="2.58727" fill="#7A7A7A" stroke="#F4F4F4"/>
<path d="M24.5079 13.5506L24.3331 13.1863L24.9079 13.1065V13.5506H24.5079Z" fill="#7A7A7A" stroke="#F4F4F4"/>
</svg>
