<svg width="21" height="21" viewBox="0 0 21 21" fill="none" xmlns="http://www.w3.org/2000/svg">
<path d="M14.6519 7.82593C14.2727 8.33155 13.5901 9.64615 13.8935 10.8596" stroke="white"/>
<path d="M9.34292 1C8.58449 1.63202 6.99179 3.19944 6.68842 4.41292M6.68842 4.41292C5.93 4.41292 4.3373 4.94382 4.03393 7.06741C4.03393 7.95225 3.73056 10.0253 2.51708 11.2388C1.37943 12.7556 0.165952 16.4719 4.41314 19.2022C5.42435 19.7079 8.05352 20.3399 10.4805 18.823C10.5673 18.7362 10.6582 18.6285 10.7499 18.5M6.68842 4.41292C8.81202 4.10955 9.84848 6.05618 10.1013 7.06741C10.4805 8.58442 10.6069 9.4691 10.8597 9.72191C10.9134 9.87418 10.9644 10.0246 11.0128 10.1732" stroke="white"/>
<path d="M8.20518 11.9973C9.11529 9.26692 12.3765 10.1012 13.8934 10.8596C18.1406 9.03938 19.708 10.8596 19.9607 11.9973C20.2641 15.0309 17.8119 18.3175 16.5478 19.5815C15.3343 20.4916 14.2726 19.7079 13.8934 19.2023C13.2867 20.4158 12.1237 19.9608 11.6181 19.5815C7.97765 15.3343 7.82597 12.7557 8.20518 11.9973Z" stroke="white"/>
<path d="M1 3.27529C4.03371 -0.365155 6.30899 1.25282 7.06741 2.51687L6.30899 4.03373C3.27528 4.94384 1.50562 3.90732 1 3.27529Z" stroke="white"/>
</svg>
