<svg width="30" height="30" viewBox="0 0 30 30" fill="none" xmlns="http://www.w3.org/2000/svg">
<circle cx="11.4891" cy="7.52621" r="4.02621" fill="#7A7A7A" stroke="#F4F4F4"/>
<path d="M4 15.3865V19.995H19.1422V15.3865C18.9122 13.0164 16.8741 12.2045 15.8838 12.0947H7.54597C4.86253 12.3581 4.06389 14.399 4 15.3865Z" fill="#7A7A7A" stroke="#F4F4F4"/>
<circle cx="19.9862" cy="11.3499" r="4.02621" fill="#7A7A7A" stroke="#F4F4F4"/>
<path d="M12.498 19.2102V23.8188H27.6403V19.2102C27.4103 16.8402 25.3721 16.0282 24.3818 15.9185H16.044C13.3606 16.1818 12.5619 18.2227 12.498 19.2102Z" fill="#7A7A7A" stroke="#F4F4F4"/>
<path d="M6.39258 16.5587H7.61961C7.61961 21.0251 11.0553 22.6734 12.7731 22.9393C9.04296 21.8758 9.58285 18.2425 10.3191 16.5587H11.5461L9.09204 14.166L6.39258 16.5587Z" fill="#F4F4F4" stroke="#7A7A7A"/>
</svg>
