<svg width="40" height="40" viewBox="0 0 40 40" fill="none" xmlns="http://www.w3.org/2000/svg">
<path d="M27.9609 16.0471C27.9609 14.9426 28.8564 14.0471 29.9609 14.0471H33.3674C34.472 14.0471 35.3674 14.9425 35.3674 16.0471V34.4884H29.9609C28.8564 34.4884 27.9609 33.593 27.9609 32.4884V16.0471Z" fill="#7A7A7A"/>
<path d="M4.26172 15.7368C4.26172 14.6322 5.15715 13.7368 6.26172 13.7368H9.66823C10.7728 13.7368 11.6682 14.6322 11.6682 15.7368V34.8323H6.26172C5.15715 34.8323 4.26172 33.9368 4.26172 32.8323V15.7368Z" fill="#7A7A7A"/>
<path d="M17.3618 13.3955C17.9376 12.8198 18.871 12.8198 19.4468 13.3955V13.3955C20.0225 13.9712 20.0225 14.9047 19.4468 15.4805L5.57251 29.3547L4.90177 28.684C4.12072 27.9029 4.12072 26.6366 4.90177 25.8556L17.3618 13.3955Z" fill="#7A7A7A"/>
<path d="M20.5034 15.7251C19.9277 15.1494 19.9277 14.2159 20.5034 13.6401V13.6401C21.0792 13.0644 22.0126 13.0644 22.5884 13.6401L36.4626 27.5144L35.7919 28.1851C35.0108 28.9662 33.7445 28.9662 32.9635 28.1851L20.5034 15.7251Z" fill="#7A7A7A"/>
<path d="M35.5351 19.8234C36.4177 18.9408 36.7708 17.8816 36.7708 16.6459C36.7708 14.1745 34.8289 12.2327 32.3575 12.2327C29.8861 12.2327 27.9443 14.1745 27.9443 16.6459L24.2372 12.9388C23.7076 12.4092 22.825 12.0562 22.1189 12.0562C21.4128 12.0562 20.7066 12.4092 20.0005 12.7623C19.4709 12.4092 18.7648 12.0562 17.8822 12.0562C17.1761 12.0562 16.2934 12.4092 15.7638 12.9388L12.0567 16.6459C12.0567 14.1745 10.1149 12.2327 7.64352 12.2327C5.17212 12.2327 3.2303 14.1745 3.2303 16.6459C3.2303 17.8816 3.75989 18.9408 4.466 19.8234C3.2303 20.5295 2.34766 21.9418 2.34766 23.5305V35.1814C2.34766 35.711 2.87724 36.2406 3.40683 36.2406H11.7037C12.2333 36.2406 12.7629 35.711 12.7629 35.1814V24.7662L20.0005 17.5285L27.2382 24.7662V35.1814C27.2382 35.711 27.7678 36.2406 28.2974 36.2406H36.5942C37.1238 36.2406 37.6534 35.711 37.6534 35.1814V23.5305C37.6534 21.9418 36.7708 20.5295 35.5351 19.8234ZM32.3575 14.1745C33.7698 14.1745 34.8289 15.2337 34.8289 16.6459C34.8289 18.0581 33.7698 19.1173 32.3575 19.1173C30.9453 19.1173 29.8861 18.0581 29.8861 16.6459C30.0627 15.2337 31.1218 14.1745 32.3575 14.1745ZM7.64352 14.1745C9.05575 14.1745 10.1149 15.2337 10.1149 16.6459C10.1149 18.0581 9.05575 19.1173 7.64352 19.1173C6.23129 19.1173 5.17212 18.0581 5.17212 16.6459C5.17212 15.2337 6.23129 14.1745 7.64352 14.1745ZM18.5883 15.9398L10.9976 23.5305C10.821 23.707 10.6445 24.0601 10.6445 24.2366V34.1222H4.466V23.5305C4.466 22.1183 5.52517 21.0591 6.9374 21.0591H10.1149C10.468 21.0591 10.6445 20.8826 10.821 20.7061L17.1761 14.351C17.3526 14.1745 17.7057 13.998 17.8822 13.998C18.2352 13.998 18.4118 14.1745 18.5883 14.351C19.1179 14.8806 19.1179 15.5867 18.5883 15.9398ZM35.5351 34.1222H29.18V24.2366C29.18 23.8836 29.0035 23.707 28.827 23.5305L21.2362 15.9398C20.8832 15.5867 20.8832 14.8806 21.2362 14.5276C21.4128 14.351 21.7658 14.1745 21.9423 14.1745C22.1189 14.1745 22.4719 14.351 22.6485 14.5276L29.0035 20.8826C29.18 21.0591 29.5331 21.2356 29.7096 21.2356H32.8871C34.2994 21.2356 35.3585 22.2948 35.3585 23.707V34.1222H35.5351Z" fill="#7A7A7A"/>
<path d="M20.0006 8.70208C20.5302 8.70208 21.0598 8.1725 21.0598 7.64291V4.81845C21.0598 4.28886 20.5302 3.75928 20.0006 3.75928C19.471 3.75928 18.9414 4.28886 18.9414 4.81845V7.64291C18.9414 8.1725 19.471 8.70208 20.0006 8.70208Z" fill="#7A7A7A"/>
<path d="M15.2338 9.40787C15.4104 9.76093 15.7634 9.93746 16.1165 9.93746C16.293 9.93746 16.4695 9.93746 16.6461 9.76093C17.1757 9.40787 17.3522 8.87829 16.9991 8.3487L15.7634 6.05383C15.4104 5.52424 14.8808 5.34771 14.3512 5.70077C13.8216 6.05383 13.6451 6.58342 13.9981 7.113L15.2338 9.40787Z" fill="#7A7A7A"/>
<path d="M23.3551 9.93746C23.5316 10.114 23.7082 10.114 23.8847 10.114C24.2377 10.114 24.5908 9.93746 24.7673 9.5844L26.1796 7.113C26.5326 6.58342 26.3561 6.05383 25.8265 5.70077C25.2969 5.34771 24.7673 5.52424 24.4143 6.05383L23.002 8.52523C22.649 8.87829 22.8255 9.5844 23.3551 9.93746Z" fill="#7A7A7A"/>
</svg>
