<svg width="40" height="40" viewBox="0 0 40 40" fill="none" xmlns="http://www.w3.org/2000/svg">
<path d="M29.6646 22.0735C25.0423 22.0735 21.2949 25.8206 21.2949 30.4431C21.2949 35.0656 25.0423 38.8128 29.6646 38.8128C34.287 38.8128 38.0342 35.0656 38.0342 30.4431C38.0342 25.8206 34.287 22.0735 29.6646 22.0735ZM30.8934 36.032C30.8934 36.1762 30.7769 36.2929 30.6326 36.2929H28.6964C28.5522 36.2929 28.4355 36.1762 28.4355 36.032V28.6525C28.4355 28.5083 28.5522 28.3916 28.6964 28.3916H30.6329C30.7769 28.3916 30.8938 28.5083 30.8938 28.6525V36.032H30.8934ZM29.6646 27.6367C28.8254 27.6367 28.1428 26.954 28.1428 26.1149C28.1428 25.2758 28.8254 24.5932 29.6646 24.5932C30.5037 24.5932 31.1863 25.2758 31.1863 26.1149C31.1863 26.954 30.5037 27.6367 29.6646 27.6367Z" fill="#7A7A7A"/>
<path fill-rule="evenodd" clip-rule="evenodd" d="M20.3836 32.9954H3.66002C2.72428 32.9954 1.96484 32.236 1.96484 31.3003V31.029C1.96484 30.0933 2.72428 29.3338 3.66002 29.3338H5.39928V16.7556H9.72538V29.3338H12.0444V16.7556H16.3705V29.3338H18.6895V16.7556H23.0156V23.529C21.1884 25.2808 20.0509 27.7463 20.0509 30.4775C20.0509 31.3487 20.1667 32.1928 20.3836 32.9954ZM29.6641 20.8524V16.7556H25.3346V21.8848C26.6356 21.2261 28.1065 20.8543 29.6641 20.8524Z" fill="#7A7A7A"/>
<path d="M31.7723 12.0328L18.5804 1.55656C18.2753 1.30906 17.9023 1.18701 17.5294 1.18701C17.1565 1.18701 16.7835 1.30906 16.4784 1.55317L3.2594 12.026C2.85256 12.3481 2.61523 12.8363 2.61523 13.355V14.0433C2.61523 14.979 3.37467 15.7384 4.31041 15.7384H5.39872H9.72482H12.0438H16.3699H18.689H23.0151H25.3341H29.6602H30.7281C31.6706 15.7384 32.4334 14.9688 32.4233 14.0229L32.4165 13.3381C32.4063 12.8295 32.1724 12.3481 31.7723 12.0328Z" fill="#7A7A7A"/>
</svg>
