<svg width="22" height="31" viewBox="0 0 22 31" fill="none" xmlns="http://www.w3.org/2000/svg">
<circle cx="7.09681" cy="28.3549" r="1.62903" fill="white" stroke="#5D5D5D"/>
<circle cx="15.6129" cy="28.3549" r="1.62903" fill="white" stroke="#5D5D5D"/>
<path d="M0 8.48389H2.6412C3.15588 8.48389 3.5865 8.87454 3.63647 9.38679L3.82533 11.3226M3.82533 11.3226L4.87965 22.1294C4.92963 22.6416 5.36025 23.0323 5.87493 23.0323H17.5655C18.0712 23.0323 18.4974 22.6547 18.5582 22.1526L19.7352 12.4429C19.8074 11.8473 19.3424 11.3226 18.7424 11.3226H3.82533Z" stroke="#5D5D5D"/>
<circle cx="17.3873" cy="11.6775" r="4.1129" fill="white" stroke="#5D5D5D"/>
<path d="M17.0326 23.0323H4.93376C4.72533 23.0323 4.5193 23.0941 4.36245 23.2313C3.62257 23.8787 2.89098 25.0867 4.38609 26.0857C4.53079 26.1824 4.70483 26.2259 4.87886 26.2259H18.452" stroke="#5D5D5D"/>
<rect x="7.45166" y="20.5485" width="1.41935" height="1.41935" fill="#727272"/>
<rect x="11" y="20.5485" width="1.41935" height="1.41935" fill="#727272"/>
<rect x="14.5483" y="20.5485" width="1.41935" height="1.41935" fill="#727272"/>
<path d="M18.5343 10.7188L18.3788 11.3111H15.5215L15.6749 10.7188H18.5343ZM17.0492 14L15.5918 12.2656L15.594 11.733H16.3141C16.4747 11.733 16.6089 11.7031 16.7168 11.6435C16.8248 11.5838 16.9058 11.5028 16.9597 11.4006C17.0137 11.2983 17.0414 11.1818 17.0428 11.0511C17.0414 10.8551 16.9839 10.6953 16.8703 10.5717C16.758 10.4467 16.5727 10.3842 16.3141 10.3842H15.5215L15.6962 9.63636H16.3141C16.6764 9.63636 16.9782 9.69105 17.2197 9.80043C17.4626 9.90838 17.6444 10.0625 17.7651 10.2628C17.8873 10.4631 17.9491 10.7017 17.9505 10.9787C17.9491 11.2244 17.9079 11.4389 17.8269 11.6222C17.7474 11.8054 17.6217 11.9581 17.4498 12.0803C17.2793 12.2024 17.057 12.2933 16.7829 12.353L16.7488 12.3658L18.0528 13.9616V14H17.0492ZM18.5386 9.63636L18.3788 10.2372H16.0265L16.1863 9.63636H18.5386Z" fill="#5D5D5D"/>
</svg>
