<svg width="34" height="21" viewBox="0 0 34 21" fill="none" xmlns="http://www.w3.org/2000/svg">
<path d="M29.7862 11.4605C29.5822 10.3587 28.817 8.51887 28.4599 7.73669C29.072 7.04293 28.851 6.66544 28.6639 6.56342C27.5621 5.6248 27.2866 6.4784 27.2866 7.02252L24.634 7.73669C27.3682 5.36974 26.0453 4.60797 25.0421 4.52295C16.3905 6.76746 15.894 9.57311 16.7272 10.6954H11.371C11.3302 11.7156 12.1021 12.5148 12.4932 12.7868C9.92225 14.0519 9.17748 16.1026 9.12646 16.9698H26.4194L28.4599 14.8273L32.9999 14.6233C32.4286 12.2563 30.6194 11.5286 29.7862 11.4605Z" fill="#5D5D5D" stroke="white"/>
<path d="M28.8677 4.06384C28.8507 4.94805 28.2657 6.59402 26.062 6.10431" stroke="#5D5D5D"/>
<path d="M24.2261 4.06384C24.2601 4.18287 24.4301 4.50254 24.6342 4.62497" stroke="white"/>
<path d="M29.949 16.8678C29.949 17.0479 29.8276 17.3405 29.5801 17.6095C29.3293 17.882 29.0703 18.0001 28.9187 18.0001C28.7214 18.0001 28.6193 17.9299 28.5495 17.8335C28.4642 17.7156 28.3984 17.5119 28.3984 17.2248C28.3984 17.1036 28.5077 16.8754 28.8087 16.6411C29.0979 16.4159 29.4261 16.2965 29.6328 16.2965C29.7699 16.2965 29.8377 16.315 29.866 16.3267C29.882 16.3334 29.8834 16.3362 29.8845 16.3382C29.8846 16.3386 29.8847 16.3388 29.8849 16.3391C29.8922 16.3503 29.9117 16.3883 29.9269 16.4827C29.9421 16.5771 29.949 16.701 29.949 16.8678Z" fill="#5D5D5D" stroke="#5D5D5D"/>
<path d="M10.4527 16.9697C10.2486 18.33 10.8608 21.1017 13.8195 19.6733C14.1655 19.5063 15.3396 18.6837 16.319 16.9697" stroke="#5D5D5D"/>
<path d="M12.151 16.9697C12.0664 17.5514 12.3203 18.7366 13.5478 18.1258C13.6914 18.0544 14.1785 17.7026 14.5848 16.9697" stroke="#5D5D5D"/>
<path d="M26.2509 16.9698C25.7561 18.2451 26.7253 20.9488 29.684 19.5204C30.0301 19.3534 31.4184 18.7553 32.1326 16.9698C32.3026 16.2897 32.3978 14.8784 31.4184 14.6743" stroke="#5D5D5D"/>
<path d="M30.4072 4.06389H25C25 1.4929 26.9044 0.952179 27.8567 1.00319C30.142 1.044 30.5093 3.06066 30.4072 4.06389Z" fill="#5D5D5D" stroke="white"/>
<path d="M12.5439 12.7357H21.0119" stroke="white"/>
<path d="M27.1842 8.29761V10.4911L23.0012 15.5923H17.543L19.5834 12.8376" stroke="white"/>
<path d="M24.0727 6.25732C23.4436 6.51238 21.9302 7.4408 20.91 9.11398C22.1343 9.57308 24.5829 10.6545 24.5829 11.3075C24.6849 11.4945 24.7257 11.9808 24.0727 12.4297L20.91 14.3682C21.6072 14.5212 22.8791 14.9803 22.3893 15.5925H18.4614C18.5125 15.1504 19.247 13.8581 21.7772 12.2257C20.5699 12.1067 17.8697 11.634 16.7271 10.6953" stroke="white"/>
<path d="M28.4594 7.73666C24.6335 9.36904 18.3795 11.3585 23.9704 6.25732" stroke="white"/>
<path d="M7.39186 9.67517H0" stroke="#5D5D5D"/>
<path d="M8.92188 12.8888H4.38184" stroke="#5D5D5D"/>
<path d="M7.39168 16.2556H0.900391" stroke="#5D5D5D"/>
<path d="M22.5933 2.78833H18.0532" stroke="#5D5D5D"/>
<rect x="10.187" y="3.79871" width="5.22343" height="5.63152" rx="2.61171" fill="#5D5D5D" stroke="white"/>
<path d="M29.7944 8.61385L29.6148 8.23959L30.2041 8.15774V8.61385H29.7944Z" fill="#5D5D5D" stroke="white"/>
</svg>
