<svg width="26" height="22" viewBox="0 0 26 22" fill="none" xmlns="http://www.w3.org/2000/svg">
<circle cx="8.48861" cy="4.52621" r="4.02621" fill="white" stroke="#5D5D5D"/>
<path d="M1 12.3865V16.995H16.1422V12.3865C15.9122 10.0164 13.8741 9.20445 12.8838 9.09473H4.54597C1.86253 9.35807 1.06389 11.399 1 12.3865Z" fill="white" stroke="#5D5D5D"/>
<circle cx="16.9862" cy="8.35006" r="4.02621" fill="white" stroke="#5D5D5D"/>
<path d="M9.49756 16.2102V20.8188H24.6398V16.2102C24.4098 13.8402 22.3716 13.0282 21.3813 12.9185H13.0435C10.3601 13.1818 9.56145 15.2227 9.49756 16.2102Z" fill="white" stroke="#5D5D5D"/>
<path d="M3.39258 13.5587H4.61961C4.61961 18.0251 8.05529 19.6734 9.77313 19.9393C6.04296 18.8758 6.58285 15.2425 7.31907 13.5587H8.5461L6.09204 11.166L3.39258 13.5587Z" fill="white" stroke="#5D5D5D"/>
</svg>
