<svg width="26" height="35" viewBox="0 0 26 35" fill="none" xmlns="http://www.w3.org/2000/svg">
<path d="M1 9.41176L12.5294 2L24.0588 9.41176" stroke="white" stroke-width="2" stroke-linecap="round"/>
<ellipse cx="12.5294" cy="17.2353" rx="10.7059" ry="10.2941" fill="white"/>
<path d="M15.9486 15.3438L15.5856 16.7259H8.91872L9.27668 15.3438H15.9486ZM12.4834 23L9.08279 18.9531L9.08776 17.7102H10.7682C11.1427 17.7102 11.4559 17.6406 11.7078 17.5014C11.9597 17.3622 12.1486 17.1733 12.2745 16.9347C12.4005 16.696 12.4651 16.4242 12.4684 16.1193C12.4651 15.6619 12.3309 15.2891 12.0657 15.0007C11.8039 14.709 11.3714 14.5632 10.7682 14.5632H8.91872L9.32639 12.8182H10.7682C11.6133 12.8182 12.3176 12.9458 12.8811 13.201C13.4478 13.4529 13.8721 13.8125 14.1538 14.2798C14.4388 14.7472 14.583 15.304 14.5863 15.9503C14.583 16.5237 14.4869 17.0241 14.298 17.4517C14.1124 17.8793 13.8191 18.2356 13.418 18.5206C13.0203 18.8056 12.5016 19.0178 11.8619 19.157L11.7824 19.1868L14.825 22.9105V23H12.4834ZM15.9585 12.8182L15.5856 14.2202H10.097L10.4699 12.8182H15.9585Z" fill="#5D5D5D"/>
<path d="M1 30H24.0588" stroke="white" stroke-width="2" stroke-linecap="round"/>
<path d="M1 34H24.0588" stroke="white" stroke-width="2" stroke-linecap="round"/>
</svg>
