<svg width="41" height="40" viewBox="0 0 41 40" fill="none" xmlns="http://www.w3.org/2000/svg">
<path fill-rule="evenodd" clip-rule="evenodd" d="M38.1157 16.4388C38.114 16.4965 38.112 16.5543 38.1097 16.6123L38.0349 16.5924C38.0192 16.6169 38.0023 16.6409 37.9841 16.6646L36.6096 18.4499C36.3633 18.77 35.9485 18.9104 35.5584 18.8059L29.4972 17.1817C29.0799 17.0699 28.7816 16.7029 28.7575 16.2716L28.6767 14.8253L27.6945 16.1012C27.4481 16.4213 27.0334 16.5617 26.6433 16.4571L23.9589 15.7379L20.5336 28.5215H25.2934L29.2659 24.4775C31.3889 22.3164 34.8618 22.2854 37.0229 24.4084L28.9837 32.5921L28.9295 32.5388V33.0334L30.5782 36.5921C30.9266 37.3439 30.5994 38.2359 29.8476 38.5842C29.0957 38.9326 28.2038 38.6054 27.8554 37.8536L26.073 34.0064H25.7339V34.0067H19.0638L17.9786 38.0567L16.7643 37.7314L17.7623 34.0067H8.61006L6.85432 37.7962C6.50598 38.5481 5.61407 38.8752 4.86219 38.5269C4.11032 38.1785 3.7832 37.2866 4.13155 36.5347L5.30283 34.0067H2.89844C2.89844 30.9773 5.35424 28.5215 8.38363 28.5215H19.232L22.7446 15.4125L20.582 14.833C20.1648 14.7212 19.8665 14.3542 19.8424 13.9229L19.7242 11.8075C19.6921 11.881 19.6502 11.9524 19.5982 12.0201L18.2237 13.8054C17.9774 14.1255 17.5627 14.2659 17.1725 14.1613L11.1113 12.5372C10.694 12.4254 10.3957 12.0584 10.3716 11.6271L10.2442 9.34636C10.2409 9.28778 10.2427 9.2304 10.249 9.17457L10.1667 9.15267C16.3302 -4.37973 37.8618 0.650354 38.1205 15.6841C38.2146 15.9205 38.2194 16.1915 38.1157 16.4388ZM27.6923 31.3236L27.8058 31.4351H27.6923V31.3236Z" fill="#7A7A7A"/>
</svg>
