<svg width="72" height="45" viewBox="0 0 72 45" fill="none" xmlns="http://www.w3.org/2000/svg">
<path d="M63.4887 14H57C56.4477 14 56 14.4477 56 15V31.2802C56 31.9112 56.5817 32.3807 57.208 32.3038C63.4039 31.5431 65.5212 35.2761 65.9244 38.005C66.0052 38.5513 66.4477 39 67 39H69.5C70.0523 39 70.5 38.5523 70.5 38V23.3234C70.5 23.1131 70.4338 22.9083 70.3107 22.7379L64.2994 14.4145C64.1114 14.1542 63.8098 14 63.4887 14Z" stroke="#5D5D5D" stroke-width="2"/>
<path d="M55 7H27.5H18C17.4477 7 17 7.44772 17 8V38.5C17 39.0523 17.4477 39.5 18 39.5H21.6245C22.1257 39.5 22.5448 39.1252 22.647 38.6345C23.7468 33.3539 27.9415 32 30 32C34.6573 32 37.122 36.0108 37.8253 38.6441C37.9546 39.1284 38.3743 39.5 38.8755 39.5H50.5C51.0523 39.5 51.4948 39.0498 51.5853 38.505C51.9796 36.1322 53.674 33.6887 55.2799 32.7944C55.6808 32.5712 56 32.1781 56 31.7192V8C56 7.44772 55.5523 7 55 7Z" stroke="#5D5D5D" stroke-width="2"/>
<circle cx="30" cy="39.5" r="4.5" stroke="#5D5D5D" stroke-width="2"/>
<circle cx="59" cy="39.5" r="4.5" stroke="#5D5D5D" stroke-width="2"/>
<path d="M58.5 22V17.375C58.5 17.1679 58.6679 17 58.875 17H62.2786C62.5846 17 62.8738 17.1401 63.0634 17.3804L66.2213 21.3804C66.7391 22.0361 66.272 23 65.4365 23H59.5C58.9477 23 58.5 22.5523 58.5 22Z" stroke="#5D5D5D"/>
<circle cx="19.5" cy="9" r="8" fill="white" stroke="#5D5D5D" stroke-width="2"/>
<path d="M13 19.5H0" stroke="#5D5D5D"/>
<path d="M13 25H0" stroke="#5D5D5D"/>
<path d="M13 22H4.5" stroke="#5D5D5D"/>
<path d="M14.8886 8.78405L16.6641 10.8824C16.9826 11.2588 17.528 11.3469 17.9488 11.0899L24.1638 7.29387" stroke="#5D5D5D"/>
</svg>
