<svg width="14" height="14" viewBox="0 0 14 14" fill="none" xmlns="http://www.w3.org/2000/svg">
<g id="Arrows / down growth">
<path id="Vector" d="M12.2498 6.41667C12.0951 6.41667 11.9467 6.47813 11.8373 6.58752C11.7279 6.69692 11.6664 6.84529 11.6664 7V8.51083L7.99728 4.83583C7.94305 4.78116 7.87854 4.73776 7.80745 4.70815C7.73637 4.67853 7.66012 4.66328 7.58312 4.66328C7.50611 4.66328 7.42986 4.67853 7.35878 4.70815C7.28769 4.73776 7.22318 4.78116 7.16895 4.83583L5.24978 6.76083L2.16395 3.66917C2.05411 3.55932 1.90513 3.49761 1.74978 3.49761C1.59444 3.49761 1.44546 3.55932 1.33562 3.66917C1.22577 3.77901 1.16406 3.92799 1.16406 4.08333C1.16406 4.23868 1.22577 4.38766 1.33562 4.4975L4.83562 7.9975C4.88984 8.05218 4.95436 8.09557 5.02545 8.12519C5.09653 8.1548 5.17278 8.17005 5.24978 8.17005C5.32679 8.17005 5.40303 8.1548 5.47412 8.12519C5.5452 8.09557 5.60972 8.05218 5.66395 7.9975L7.58312 6.0725L10.8439 9.33333H9.33312C9.17841 9.33333 9.03003 9.39479 8.92064 9.50419C8.81124 9.61358 8.74978 9.76196 8.74978 9.91667C8.74978 10.0714 8.81124 10.2198 8.92064 10.3291C9.03003 10.4385 9.17841 10.5 9.33312 10.5H12.2498C12.326 10.4991 12.4013 10.4832 12.4714 10.4533C12.614 10.3941 12.7273 10.2809 12.7864 10.1383C12.8163 10.0682 12.8322 9.9929 12.8331 9.91667V7C12.8331 6.84529 12.7717 6.69692 12.6623 6.58752C12.5529 6.47813 12.4045 6.41667 12.2498 6.41667Z" fill="#FF5D02"/>
</g>
</svg>
