<svg width="30" height="30" viewBox="0 0 30 30" fill="none" xmlns="http://www.w3.org/2000/svg">
<path d="M10 10C9.66848 10 9.35054 10.1317 9.11612 10.3661C8.8817 10.6005 8.75 10.9185 8.75 11.25C8.75 11.5815 8.8817 11.8995 9.11612 12.1339C9.35054 12.3683 9.66848 12.5 10 12.5H11.25C11.5815 12.5 11.8995 12.3683 12.1339 12.1339C12.3683 11.8995 12.5 11.5815 12.5 11.25C12.5 10.9185 12.3683 10.6005 12.1339 10.3661C11.8995 10.1317 11.5815 10 11.25 10H10ZM16.25 25H7.5C7.16848 25 6.85054 24.8683 6.61612 24.6339C6.3817 24.3995 6.25 24.0815 6.25 23.75V6.25C6.25 5.91848 6.3817 5.60054 6.61612 5.36612C6.85054 5.1317 7.16848 5 7.5 5H13.75V8.75C13.75 9.74456 14.1451 10.6984 14.8483 11.4017C15.5516 12.1049 16.5054 12.5 17.5 12.5H21.25V15C21.25 15.3315 21.3817 15.6495 21.6161 15.8839C21.8505 16.1183 22.1685 16.25 22.5 16.25C22.8315 16.25 23.1495 16.1183 23.3839 15.8839C23.6183 15.6495 23.75 15.3315 23.75 15V11.25C23.75 11.25 23.75 11.25 23.75 11.175C23.737 11.0602 23.7118 10.947 23.675 10.8375V10.725C23.6149 10.5965 23.5347 10.4783 23.4375 10.375L15.9375 2.875C15.8342 2.77777 15.716 2.6976 15.5875 2.6375C15.5461 2.63026 15.5039 2.63026 15.4625 2.6375C15.341 2.5725 15.2103 2.52615 15.075 2.5H7.5C6.50544 2.5 5.55161 2.89509 4.84835 3.59835C4.14509 4.30161 3.75 5.25544 3.75 6.25V23.75C3.75 24.7446 4.14509 25.6984 4.84835 26.4017C5.55161 27.1049 6.50544 27.5 7.5 27.5H16.25C16.5815 27.5 16.8995 27.3683 17.1339 27.1339C17.3683 26.8995 17.5 26.5815 17.5 26.25C17.5 25.9185 17.3683 25.6005 17.1339 25.3661C16.8995 25.1317 16.5815 25 16.25 25ZM16.25 6.7625L19.4875 10H17.5C17.1685 10 16.8505 9.8683 16.6161 9.63388C16.3817 9.39946 16.25 9.08152 16.25 8.75V6.7625ZM17.5 15H10C9.66848 15 9.35054 15.1317 9.11612 15.3661C8.8817 15.6005 8.75 15.9185 8.75 16.25C8.75 16.5815 8.8817 16.8995 9.11612 17.1339C9.35054 17.3683 9.66848 17.5 10 17.5H17.5C17.8315 17.5 18.1495 17.3683 18.3839 17.1339C18.6183 16.8995 18.75 16.5815 18.75 16.25C18.75 15.9185 18.6183 15.6005 18.3839 15.3661C18.1495 15.1317 17.8315 15 17.5 15ZM25.8875 22.8625C25.7713 22.7453 25.633 22.6523 25.4807 22.5889C25.3284 22.5254 25.165 22.4928 25 22.4928C24.835 22.4928 24.6716 22.5254 24.5193 22.5889C24.367 22.6523 24.2287 22.7453 24.1125 22.8625L23.75 23.2375V20C23.75 19.6685 23.6183 19.3505 23.3839 19.1161C23.1495 18.8817 22.8315 18.75 22.5 18.75C22.1685 18.75 21.8505 18.8817 21.6161 19.1161C21.3817 19.3505 21.25 19.6685 21.25 20V23.2375L20.8875 22.8625C20.6521 22.6271 20.3329 22.4949 20 22.4949C19.6671 22.4949 19.3479 22.6271 19.1125 22.8625C18.8771 23.0979 18.7449 23.4171 18.7449 23.75C18.7449 24.0829 18.8771 24.4021 19.1125 24.6375L21.6125 27.1375C21.7314 27.2513 21.8716 27.3405 22.025 27.4C22.1746 27.4661 22.3364 27.5003 22.5 27.5003C22.6636 27.5003 22.8254 27.4661 22.975 27.4C23.1284 27.3405 23.2686 27.2513 23.3875 27.1375L25.8875 24.6375C26.0047 24.5213 26.0977 24.383 26.1611 24.2307C26.2246 24.0784 26.2572 23.915 26.2572 23.75C26.2572 23.585 26.2246 23.4216 26.1611 23.2693C26.0977 23.117 26.0047 22.9787 25.8875 22.8625ZM15 22.5C15.3315 22.5 15.6495 22.3683 15.8839 22.1339C16.1183 21.8995 16.25 21.5815 16.25 21.25C16.25 20.9185 16.1183 20.6005 15.8839 20.3661C15.6495 20.1317 15.3315 20 15 20H10C9.66848 20 9.35054 20.1317 9.11612 20.3661C8.8817 20.6005 8.75 20.9185 8.75 21.25C8.75 21.5815 8.8817 21.8995 9.11612 22.1339C9.35054 22.3683 9.66848 22.5 10 22.5H15Z" fill="#364F6B"/>
</svg>
