<svg width="14" height="14" viewBox="0 0 14 14" fill="none" xmlns="http://www.w3.org/2000/svg">
<g id="Arrows / growth">
<path id="Vector" d="M12.7865 3.86167C12.7273 3.71913 12.614 3.60586 12.4715 3.54667C12.4013 3.51678 12.326 3.50092 12.2498 3.5H9.33313C9.17842 3.5 9.03005 3.56146 8.92066 3.67085C8.81126 3.78025 8.7498 3.92862 8.7498 4.08333C8.7498 4.23804 8.81126 4.38642 8.92066 4.49581C9.03005 4.60521 9.17842 4.66667 9.33313 4.66667H10.844L7.58313 7.9275L5.66397 6.0025C5.60974 5.94783 5.54522 5.90443 5.47414 5.87481C5.40305 5.8452 5.32681 5.82995 5.2498 5.82995C5.17279 5.82995 5.09655 5.8452 5.02547 5.87481C4.95438 5.90443 4.88986 5.94783 4.83563 6.0025L1.33563 9.5025C1.28096 9.55673 1.23756 9.62125 1.20795 9.69233C1.17833 9.76342 1.16309 9.83966 1.16309 9.91667C1.16309 9.99367 1.17833 10.0699 1.20795 10.141C1.23756 10.2121 1.28096 10.2766 1.33563 10.3308C1.38986 10.3855 1.45438 10.4289 1.52547 10.4585C1.59655 10.4881 1.67279 10.5034 1.7498 10.5034C1.82681 10.5034 1.90305 10.4881 1.97414 10.4585C2.04522 10.4289 2.10974 10.3855 2.16397 10.3308L5.2498 7.23917L7.16897 9.16417C7.2232 9.21884 7.28771 9.26224 7.3588 9.29185C7.42988 9.32147 7.50613 9.33672 7.58313 9.33672C7.66014 9.33672 7.73639 9.32147 7.80747 9.29185C7.87856 9.26224 7.94307 9.21884 7.9973 9.16417L11.6665 5.48917V7C11.6665 7.15471 11.7279 7.30308 11.8373 7.41248C11.9467 7.52188 12.0951 7.58333 12.2498 7.58333C12.4045 7.58333 12.5529 7.52188 12.6623 7.41248C12.7717 7.30308 12.8331 7.15471 12.8331 7V4.08333C12.8322 4.0071 12.8164 3.9318 12.7865 3.86167Z" fill="#31BF37"/>
</g>
</svg>
