<svg xmlns="http://www.w3.org/2000/svg" width="16" height="16" viewBox="0 0 27 32" class="app-icon app-icon--smallsecondary menu__icon-align"><path d="M24.988 7.314v22.4A2.28 2.28 0 0122.716 32H4.543a2.279 2.279 0 01-2.272-2.286v-22.4h-.909c-.753 0-1.363-.614-1.363-1.371s.61-1.371 1.363-1.371h5.452V2.286A2.28 2.28 0 019.086 0h9.086a2.279 2.279 0 012.272 2.286v2.286h5.452c.753 0 1.363.614 1.363 1.371s-.61 1.371-1.363 1.371h-.909zm-19.99 0v21.943h17.264V7.314H4.998zm12.266 2.972c.753 0 1.363.614 1.363 1.371v13.257c0 .757-.61 1.371-1.363 1.371s-1.363-.614-1.363-1.371V11.657c0-.757.61-1.371 1.363-1.371zm-6.815 0c.753 0 1.363.614 1.363 1.371v13.257c0 .757-.61 1.371-1.363 1.371s-1.363-.614-1.363-1.371V11.657c0-.757.61-1.371 1.363-1.371zm-.908-5.715h8.178V2.742H9.541v1.829z"></path></svg>