<svg width="24" height="24" viewBox="0 0 24 24" fill="none" xmlns="http://www.w3.org/2000/svg">
<path d="M15.5625 1.80469C10.9101 1.80469 7.125 5.58975 7.125 10.2422C7.125 10.9643 7.21444 11.6692 7.39027 12.3516H13.3594V18.3862C14.0754 18.5794 14.8176 18.6797 15.5625 18.6797C20.2149 18.6797 24 14.8946 24 10.2422C24 5.58975 20.2149 1.80469 15.5625 1.80469ZM21.8906 9.53906V10.9453H20.4844V9.53906H21.8906ZM16.2656 7.42969V9.53906H18.375V10.9453H14.8594V7.42969H16.2656ZM14.8594 5.32031V3.91406H16.2656V5.32031H14.8594ZM14.8594 15.1641H16.2656V16.5703H14.8594V15.1641ZM10.6406 10.9453H9.23438V9.53906H10.6406V10.9453Z" fill="white"/>
<path d="M4.92185 11.6484C4.92185 10.4853 3.97558 9.53906 2.81248 9.53906H2.10935C1.91791 9.53906 1.7389 9.46345 1.60535 9.32616C1.47185 9.18895 1.40126 9.00769 1.40651 8.81564C1.41682 8.43914 1.74527 8.13281 2.1386 8.13281H4.21873C5.38183 8.13281 6.3281 7.18655 6.3281 6.02344V3.91406H4.92185V6.02344C4.92185 6.41114 4.60643 6.72656 4.21873 6.72656H2.1386C0.990772 6.72656 0.0317565 7.64648 0.000818961 8.77716C-0.014931 9.35194 0.196944 9.89522 0.597444 10.3068C0.998038 10.7186 1.53499 10.9453 2.10935 10.9453H2.81248C3.20018 10.9453 3.5156 11.2607 3.5156 11.6484V12.3516H4.92185V11.6484Z" fill="white"/>
<path d="M10.9999 20.7891C11.5841 20.2737 11.9531 19.52 11.9531 18.6797V13.7578H3.51562V15.1641H2.10938C0.946266 15.1641 0 16.1103 0 17.2734C0 18.4365 0.946266 19.3828 2.10938 19.3828H2.1683H3.60422C3.74658 19.9359 4.05337 20.4226 4.46883 20.7891H0V22.1953H15.4688V20.7891H10.9999ZM1.40625 17.2734C1.40625 16.8857 1.72167 16.5703 2.10938 16.5703H3.51562V17.9766H2.10938C1.72167 17.9766 1.40625 17.6611 1.40625 17.2734Z" fill="white"/>
</svg>
