<svg width="24" height="24" viewBox="0 0 24 24" fill="none" xmlns="http://www.w3.org/2000/svg">
<g clip-path="url(#clip0_4017_2304)">
<path fill-rule="evenodd" clip-rule="evenodd" d="M5.68391 8.55039C5.19276 9.51453 4.91586 10.6061 4.91586 11.7624H0.705933C0.705933 9.83876 1.18669 8.02756 2.03454 6.44234L5.68391 8.55039ZM2.41167 5.79062C3.32532 4.32653 4.56494 3.08686 6.02909 2.17321L8.13709 5.82248C7.30894 6.36224 6.60066 7.07048 6.06094 7.89862L2.41167 5.79062ZM6.6808 1.79613C8.16222 1.00375 9.84094 0.532033 11.6243 0.473633V4.68723C10.6076 4.74046 9.64763 5.00799 8.78885 5.44549L6.6808 1.79613ZM12.3773 0.473633C14.1601 0.532033 15.8384 1.0037 17.3194 1.79594L15.2126 5.44587C14.3538 5.00817 13.3939 4.7405 12.3773 4.68723V0.473633ZM17.9712 2.17302C19.4352 3.08672 20.6748 4.32643 21.5885 5.79062L17.9393 7.89862C17.3997 7.07076 16.6919 6.36267 15.8642 5.823L17.9712 2.17302ZM21.9656 6.44234C22.8134 8.02756 23.2942 9.83876 23.2942 11.7624H19.0842C19.0842 10.6061 18.8073 9.51448 18.3162 8.55039L21.9656 6.44234ZM4.92504 23.2588C5.42659 19.8204 8.38636 17.1794 11.9626 17.1794C15.5409 17.1794 18.5007 19.8205 19.0009 23.2588C19.0103 23.3262 18.99 23.3943 18.9453 23.4456C18.9006 23.4969 18.8359 23.5263 18.7679 23.5263C16.9962 23.5263 6.9296 23.5263 5.15756 23.5258C5.0897 23.5258 5.02513 23.4964 4.98052 23.4452C4.93596 23.394 4.91572 23.326 4.92504 23.2588ZM11.9626 16.7088C9.98236 16.7088 8.3681 15.0927 8.3681 13.1124C8.3681 11.1321 9.98236 9.51599 11.9626 9.51599C13.9449 9.51599 15.5591 11.1321 15.5591 13.1124C15.5591 15.0927 13.9449 16.7088 11.9626 16.7088ZM14.9703 9.97495C14.6021 9.62182 14.1721 9.3325 13.6986 9.12526L15.2312 7.59269C15.3718 7.45208 15.5625 7.37307 15.7614 7.37307C15.9603 7.37307 16.1511 7.45208 16.2917 7.59269L16.2918 7.59283C16.4325 7.73344 16.5115 7.92422 16.5115 8.12309C16.5115 8.32201 16.4325 8.51274 16.2918 8.6534L14.9703 9.97495Z" fill="white"/>
</g>
<defs>
<clipPath id="clip0_4017_2304">
<rect width="24" height="24" fill="white"/>
</clipPath>
</defs>
</svg>
