<svg width="24" height="24" viewBox="0 0 24 24" fill="none" xmlns="http://www.w3.org/2000/svg">
<path d="M14.325 3.91009C14.2169 0.833302 9.78337 0.833096 9.67505 3.91005C9.77793 6.98016 14.2215 6.98141 14.325 3.91009Z" fill="white"/>
<path d="M8.72253 9.83508H15.2775C15.5012 9.83474 15.7156 9.74574 15.8738 9.58758C16.0319 9.42942 16.1209 9.215 16.1213 8.99133V8.14383C16.1211 7.72099 15.9877 7.30896 15.74 6.96629C15.4922 6.62363 15.1428 6.36777 14.7413 6.23508L14.1975 6.05133C14.0802 6.17113 13.9535 6.28146 13.8188 6.38129C13.2226 6.82059 12.4877 7.02953 11.7496 6.96958C11.0115 6.90963 10.32 6.58483 9.80253 6.05508L9.25878 6.23508C8.8573 6.36777 8.50786 6.62363 8.26012 6.9663C8.01238 7.30896 7.87894 7.72099 7.87878 8.14383V8.99133C7.87912 9.21501 7.96813 9.42942 8.12629 9.58758C8.28445 9.74574 8.49886 9.83474 8.72253 9.83508Z" fill="white"/>
<path d="M7.74379 16.6713C7.6384 13.686 3.33904 13.6819 3.23254 16.6713C3.33128 19.654 7.64545 19.654 7.74379 16.6713Z" fill="white"/>
<path d="M8.1375 18.8988L7.665 18.7413C7.5515 18.8598 7.4286 18.9689 7.2975 19.0675C6.7083 19.5105 5.97708 19.7219 5.2424 19.6618C4.50772 19.6017 3.8206 19.2742 3.31125 18.7413L2.83875 18.8988C2.44856 19.0278 2.10906 19.2768 1.86867 19.6101C1.62827 19.9434 1.49925 20.3441 1.5 20.7551V21.5726C1.50001 21.7914 1.58693 22.0012 1.74165 22.1559C1.89636 22.3107 2.1062 22.3976 2.325 22.3976H8.6475C8.75613 22.398 8.86376 22.3769 8.96424 22.3356C9.06472 22.2944 9.15606 22.2337 9.23305 22.157C9.31003 22.0804 9.37114 21.9893 9.41287 21.889C9.45461 21.7887 9.47615 21.6812 9.47625 21.5726V20.7551C9.47701 20.3441 9.34798 19.9434 9.10759 19.6101C8.86719 19.2768 8.5277 19.0278 8.1375 18.8988Z" fill="white"/>
<path d="M16.2562 16.6713C16.3539 19.6528 20.6681 19.6553 20.7675 16.6713C20.6612 13.6821 16.3618 13.6858 16.2562 16.6713Z" fill="white"/>
<path d="M21.1613 18.8988L20.6888 18.7413C20.5753 18.8598 20.4524 18.9689 20.3213 19.0675C19.7322 19.5108 19.0009 19.7225 18.2662 19.6623C17.5314 19.6022 16.8442 19.2745 16.3351 18.7413L15.8626 18.8988C15.4724 19.0278 15.1329 19.2768 14.8925 19.6101C14.6521 19.9434 14.5231 20.3441 14.5238 20.7551V21.5726C14.5239 21.6812 14.5455 21.7887 14.5872 21.889C14.6289 21.9893 14.69 22.0804 14.767 22.157C14.844 22.2337 14.9353 22.2944 15.0358 22.3356C15.1363 22.3769 15.2439 22.398 15.3526 22.3976H21.6751C21.8939 22.3976 22.1037 22.3107 22.2584 22.1559C22.4131 22.0012 22.5001 21.7914 22.5001 21.5726V20.7551C22.5008 20.3441 22.3718 19.9434 22.1314 19.6101C21.891 19.2768 21.5515 19.0278 21.1613 18.8988Z" fill="white"/>
<path d="M15.75 14.1476C15.75 13.153 15.3549 12.1992 14.6516 11.4959C13.9484 10.7927 12.9946 10.3976 12 10.3976C11.0054 10.3976 10.0516 10.7927 9.34834 11.4959C8.64508 12.1992 8.25 13.153 8.25 14.1476C8.46064 19.1231 15.5401 19.1216 15.75 14.1476ZM13.8937 13.6151L11.3625 15.3026C11.2907 15.3509 11.2044 15.3728 11.1182 15.3646C11.032 15.3564 10.9514 15.3186 10.89 15.2576L10.0463 14.4138C9.97611 14.3431 9.93685 14.2475 9.93705 14.1479C9.93725 14.0483 9.97691 13.9528 10.0473 13.8824C10.1178 13.812 10.2132 13.7723 10.3128 13.7721C10.4124 13.7719 10.508 13.8112 10.5787 13.8813L11.205 14.5076L13.4813 12.9926C13.5638 12.9399 13.6637 12.9218 13.7595 12.9421C13.8553 12.9624 13.9393 13.0195 13.9934 13.1011C14.0475 13.1828 14.0673 13.2824 14.0487 13.3785C14.0301 13.4746 13.9744 13.5596 13.8937 13.6151Z" fill="white"/>
<path d="M16.5 4.2851H17.7637C17.8631 4.28538 17.9583 4.32499 18.0286 4.39525C18.0989 4.46551 18.1385 4.56073 18.1387 4.6601V10.9938C17.9777 10.7884 17.7095 10.6731 17.4975 10.8813C17.4272 10.9521 17.3878 11.0478 17.3878 11.1476C17.3878 11.2473 17.4272 11.343 17.4975 11.4138L18.2475 12.1638C18.318 12.2333 18.4129 12.2722 18.5119 12.2722C18.6108 12.2722 18.7058 12.2333 18.7762 12.1638L19.5262 11.4138C19.5945 11.3432 19.6324 11.2487 19.6317 11.1505C19.6311 11.0523 19.592 10.9582 19.5228 10.8886C19.4536 10.8189 19.3598 10.7791 19.2616 10.7777C19.1634 10.7764 19.0686 10.8136 18.9975 10.8813L18.8887 10.9901V4.6601C18.8879 4.36199 18.7691 4.07635 18.5583 3.86556C18.3475 3.65477 18.0619 3.53596 17.7637 3.5351H16.5C16.4005 3.5351 16.3052 3.5746 16.2348 3.64493C16.1645 3.71526 16.125 3.81064 16.125 3.9101C16.125 4.00955 16.1645 4.10493 16.2348 4.17526C16.3052 4.24559 16.4005 4.2851 16.5 4.2851Z" fill="white"/>
<path d="M5.22374 12.1638C5.29422 12.2332 5.38918 12.2722 5.48811 12.2722C5.58704 12.2722 5.682 12.2332 5.75249 12.1638L6.50249 11.4138C6.57274 11.343 6.61217 11.2473 6.61217 11.1476C6.61217 11.0478 6.57274 10.9521 6.50249 10.8813C6.29099 10.6743 6.02261 10.787 5.86124 10.9938V4.6601C5.86153 4.56073 5.90113 4.46551 5.97139 4.39525C6.04166 4.32499 6.13687 4.28538 6.23624 4.2851H7.49999C7.59944 4.2851 7.69483 4.24559 7.76515 4.17526C7.83548 4.10493 7.87499 4.00955 7.87499 3.9101C7.87499 3.81064 7.83548 3.71526 7.76515 3.64493C7.69483 3.5746 7.59944 3.5351 7.49999 3.5351H6.23624C5.93814 3.53596 5.65249 3.65477 5.4417 3.86556C5.23091 4.07635 5.11211 4.36199 5.11124 4.6601V10.9901L5.00252 10.8813C4.93147 10.8134 4.8366 10.7761 4.73832 10.7774C4.64003 10.7786 4.54617 10.8184 4.47691 10.8882C4.40765 10.9579 4.36852 11.0521 4.36793 11.1504C4.36733 11.2486 4.40532 11.3432 4.47373 11.4138L5.22374 12.1638Z" fill="white"/>
</svg>
